<svg width="35" height="36" viewBox="0 0 35 36" fill="none" xmlns="http://www.w3.org/2000/svg">
<path d="M35 18C35 27.9411 27.165 36 17.5 36C7.83502 36 0 27.9411 0 18C0 8.05888 7.83502 0 17.5 0C27.165 0 35 8.05888 35 18Z" fill="#269A55"/>
<path d="M11.1666 24.5217C13.8279 24.5217 15.4056 23.1754 15.4056 20.9106C15.4056 19.1986 14.3134 17.9682 12.6143 17.7452V17.6739C13.8192 17.451 14.7728 16.2027 14.7728 14.8652C14.7728 12.9393 13.3251 11.6553 11.1839 11.6553H6.28609V24.5217H11.1666ZM7.84647 13.073H10.8285C12.3456 13.073 13.1951 13.7774 13.1951 15.0525C13.1951 16.4434 12.1895 17.2013 10.3431 17.2013H7.84647V13.073ZM7.84647 23.104V18.5834H10.7852C12.779 18.5834 13.8019 19.3413 13.8019 20.8303C13.8019 22.3194 12.8137 23.104 10.9325 23.104H7.84647Z" fill="white"/>
<path d="M22.4533 11.4413C18.9078 11.4413 16.6886 14.0093 16.6886 18.093C16.6886 22.1767 18.9078 24.7357 22.4533 24.7357C25.9989 24.7357 28.2181 22.1767 28.2181 18.093C28.2181 14.0093 25.9989 11.4413 22.4533 11.4413ZM22.4533 12.9215C25.0106 12.9215 26.6143 14.9187 26.6143 18.093C26.6143 21.2583 25.0106 23.2556 22.4533 23.2556C19.896 23.2556 18.2923 21.2583 18.2923 18.093C18.2923 14.9187 19.896 12.9215 22.4533 12.9215Z" fill="white"/>
</svg>
