<svg width="221" height="164" viewBox="0 0 221 164" fill="none" xmlns="http://www.w3.org/2000/svg">
<path d="M54.3284 144.366L23.4463 127.43C30.5391 116.583 31.0781 110.394 32.291 101.776C36.185 74.2061 63.4993 56.6092 84.7423 42.1073C86.5314 40.8448 88.3851 39.6767 90.296 38.6078C92.5586 37.394 98.8073 33.6389 100.474 37.11C102.056 40.4392 98.1335 46.5012 96.1759 48.9359C97.4614 47.0073 98.8836 45.1736 100.432 43.4489C100.915 42.8051 101.583 42.3246 102.347 42.0718C103.765 41.7453 105.141 43.1081 105.361 44.5491C105.581 45.9901 104.978 47.4311 104.311 48.7372C102.731 51.8691 100.755 54.7845 98.4314 57.4114C99.9918 55.651 105.758 49.0211 105.638 55.729C105.541 59.9567 103.779 63.9749 100.737 66.909C102.058 65.7395 103.482 64.6917 104.992 63.7786C105.206 63.6093 105.453 63.4864 105.716 63.418C105.98 63.3495 106.255 63.337 106.524 63.3811C106.809 63.5189 107.053 63.7279 107.233 63.9878C107.413 64.2477 107.523 64.5497 107.553 64.8646C108.517 69.1662 106.134 72.2398 104.489 75.9168C103.219 78.7561 102.474 81.4748 100.85 84.2361C94.9843 94.2164 88.8774 101.144 82.1605 110.578C80.5008 113.006 54.4206 144.409 54.3284 144.366Z" fill="white"/>
<path d="M54.2932 144.721C54.2513 144.716 54.2106 144.704 54.1726 144.685L23.2764 127.763C23.2342 127.739 23.1973 127.706 23.1681 127.667C23.1388 127.628 23.1178 127.583 23.1061 127.536C23.0927 127.488 23.0901 127.437 23.0987 127.388C23.1073 127.339 23.1268 127.292 23.1558 127.252C29.8088 117.101 30.66 110.968 31.7381 103.203L31.9438 101.747C35.71 75.086 61.4073 57.5885 82.0615 43.5409L84.544 41.8444C86.3411 40.5604 88.2069 39.3756 90.1331 38.2952L90.6296 38.0254C92.7575 36.8613 96.7011 34.7034 99.141 35.4984C99.5025 35.611 99.8358 35.7997 100.118 36.052C100.401 36.3042 100.626 36.614 100.779 36.9607C101.638 38.7566 101.028 41.1771 100.02 43.3492L100.177 43.1718C100.714 42.4677 101.458 41.9491 102.304 41.6882C102.644 41.6174 102.995 41.6181 103.334 41.6902C103.674 41.7623 103.994 41.9043 104.276 42.107C104.668 42.3802 105.001 42.7297 105.254 43.1347C105.508 43.5397 105.677 43.9917 105.751 44.4637C105.986 45.9969 105.376 47.4805 104.673 48.8646C103.873 50.4444 102.973 51.9713 101.978 53.436C103.056 52.6339 104.063 52.1938 104.815 52.499C105.567 52.8042 106.035 53.9258 106.035 55.7359C105.96 58.8871 104.974 61.949 103.198 64.552C103.73 64.1829 104.276 63.8422 104.837 63.4944C105.091 63.2963 105.384 63.1551 105.697 63.0804C106.011 63.0057 106.336 62.9992 106.652 63.0614C107 63.2127 107.301 63.4544 107.525 63.7615C107.748 64.0685 107.885 64.4297 107.922 64.8076C108.709 68.3568 107.354 71.0115 105.922 73.8509C105.553 74.5607 105.212 75.3203 104.837 76.0869C104.39 77.0806 104.007 78.0815 103.631 79.0469C102.965 80.9083 102.144 82.7105 101.177 84.4345C97.2756 91.0786 93.2823 96.3456 89.055 101.932C86.9272 104.736 84.7284 107.611 82.4729 110.805C81.3877 112.331 71.0535 124.831 67.9114 128.629C64.5352 132.696 61.2158 136.7 58.7262 139.674C55.0663 144.096 54.5414 144.721 54.2932 144.721ZM23.9573 127.323L54.2577 143.919C56.3856 141.363 79.9975 113.112 81.9197 110.393C84.1823 107.213 86.3881 104.31 88.516 101.499C92.7291 95.9339 96.7152 90.6811 100.574 84.0725C101.521 82.3799 102.325 80.611 102.978 78.7843C103.354 77.8118 103.744 76.8109 104.198 75.7958C104.539 75.015 104.907 74.2626 105.29 73.5315C106.666 70.8128 107.964 68.2432 107.234 64.9637C107.127 64.481 106.901 63.8777 106.454 63.7428C106.232 63.7152 106.007 63.733 105.792 63.7953C105.578 63.8575 105.378 63.9628 105.205 64.1048C103.695 65.0036 102.27 66.0396 100.95 67.1997C100.883 67.2647 100.794 67.3012 100.701 67.3012C100.609 67.3012 100.519 67.2647 100.453 67.1997C100.39 67.1325 100.355 67.0437 100.355 66.9513C100.355 66.8589 100.39 66.77 100.453 66.7028C101.948 65.2868 103.148 63.5888 103.984 61.7066C104.821 59.8243 105.277 57.7952 105.326 55.7359C105.326 54.2807 105.099 53.4076 104.617 53.2088C103.673 52.8397 101.723 54.3162 98.836 57.5885L98.7793 57.6524C98.7508 57.6941 98.7138 57.7293 98.6708 57.7556C98.6277 57.7819 98.5795 57.7986 98.5294 57.8048C98.4793 57.8109 98.4285 57.8063 98.3804 57.7912C98.3322 57.7762 98.2878 57.751 98.2502 57.7174C98.2125 57.6838 98.1825 57.6425 98.162 57.5963C98.1416 57.5502 98.1312 57.5002 98.1316 57.4497C98.132 57.3992 98.1432 57.3494 98.1643 57.3035C98.1855 57.2577 98.2162 57.2169 98.2544 57.1839C100.529 54.5902 102.467 51.7186 104.021 48.6375C104.666 47.3598 105.234 45.9969 105.028 44.6624C104.967 44.2871 104.832 43.9278 104.629 43.6059C104.427 43.284 104.162 43.006 103.851 42.7884C103.65 42.6383 103.42 42.5328 103.175 42.4789C102.93 42.425 102.677 42.4241 102.432 42.4761C101.743 42.7136 101.142 43.1541 100.708 43.7396C99.8006 44.7476 98.9282 45.791 98.1054 46.8771C97.2472 48.1974 96.5237 49.1131 96.4315 49.2196C96.3744 49.2897 96.2927 49.3355 96.203 49.3473C96.1134 49.3592 96.0226 49.3364 95.9492 49.2834C95.8738 49.2292 95.8226 49.1475 95.8067 49.056C95.7907 48.9644 95.8114 48.8702 95.8641 48.7937C96.4244 47.9632 97.0061 47.1468 97.616 46.3518C99.4602 43.5125 101.24 39.6297 100.141 37.3156C100.034 37.0532 99.8712 36.8172 99.6643 36.6236C99.4574 36.43 99.2112 36.2835 98.9424 36.1941C96.7791 35.4842 92.8639 37.6137 90.9772 38.6643L90.4736 38.9411C88.5708 40.0005 86.7264 41.1616 84.9483 42.4193L82.4658 44.1087C61.9321 58.0925 36.3626 75.4977 32.653 101.847L32.4474 103.267C31.3622 111.103 30.5039 117.222 23.9573 127.323Z" fill="#231F20"/>
<path d="M61.7048 162.34L66.0952 135.692C66.0952 135.692 25.113 119.529 24.4676 119.167C23.9569 118.898 9.48047 162.34 9.48047 162.34H61.7048Z" fill="#231F20"/>
<path d="M61.7048 162.694H9.45211C9.39602 162.694 9.34083 162.68 9.29107 162.654C9.24131 162.629 9.1984 162.591 9.16586 162.545C9.13332 162.5 9.11209 162.447 9.1039 162.391C9.09571 162.336 9.1008 162.279 9.11875 162.226C23.4675 119.174 24.0917 118.926 24.2973 118.841C24.3455 118.82 24.3974 118.809 24.4498 118.809C24.5023 118.809 24.5542 118.82 24.6023 118.841C25.2691 119.174 52.1224 129.786 66.2229 135.352C66.2983 135.38 66.3614 135.434 66.4015 135.504C66.4416 135.574 66.4562 135.655 66.4428 135.735L62.0594 162.396C62.0458 162.48 62.0026 162.557 61.9375 162.611C61.8724 162.666 61.7898 162.696 61.7048 162.694ZM9.92733 161.985H61.3785L65.698 135.948C62.0311 134.528 28.1558 121.134 24.5598 119.622C23.3469 122.184 15.325 145.843 9.94861 161.985H9.92733Z" fill="#231F20"/>
<path d="M93.248 1.85935L34.9724 19.5787C32.4724 20.3389 31.0615 22.9833 31.8211 25.4852L63.8856 131.105C64.6451 133.607 67.2875 135.019 69.7875 134.258L128.063 116.539C130.563 115.779 131.974 113.135 131.214 110.633L99.1499 5.01313C98.3903 2.5112 95.748 1.09921 93.248 1.85935Z" fill="#231F20"/>
<path d="M68.4431 134.826C67.3521 134.826 66.2901 134.475 65.414 133.824C64.5378 133.173 63.8939 132.258 63.5774 131.213L31.4825 25.5967C31.2823 24.9549 31.2112 24.2799 31.2732 23.6105C31.3351 22.9411 31.529 22.2906 31.8436 21.6966C32.1581 21.1026 32.5872 20.5769 33.1059 20.1498C33.6246 19.7226 34.2228 19.4026 34.8658 19.2081L93.1473 1.4622C93.7858 1.26736 94.4564 1.20039 95.1208 1.26514C95.7852 1.32989 96.4303 1.52509 97.0192 1.83956C97.6082 2.15403 98.1294 2.58162 98.553 3.09786C98.9767 3.61409 99.2945 4.20886 99.4883 4.84813L131.569 110.543C131.96 111.834 131.823 113.228 131.187 114.418C130.551 115.608 129.469 116.497 128.179 116.889L69.9042 134.635C69.4291 134.769 68.9369 134.834 68.4431 134.826ZM94.6865 2.01588C94.2538 2.01645 93.8236 2.08104 93.4098 2.20753L35.1069 19.9251C34.5568 20.0922 34.045 20.3663 33.6008 20.7315C33.1565 21.0967 32.7885 21.5459 32.5178 22.0535C32.2471 22.561 32.0789 23.117 32.023 23.6897C31.9671 24.2623 32.0244 24.8404 32.1918 25.3908L64.1874 130.979C64.5264 132.09 65.2917 133.021 66.3155 133.568C67.3393 134.114 68.5381 134.233 69.6489 133.896L127.923 116.151C129.024 115.817 129.949 115.063 130.498 114.052C131.048 113.041 131.178 111.855 130.86 110.749L98.8145 5.12496C98.5413 4.22678 97.9873 3.44002 97.234 2.88037C96.4807 2.32072 95.5679 2.01771 94.6297 2.01588H94.6865Z" fill="#231F20"/>
<path d="M97.186 10.766L36.9287 29.0879L64.2509 119.086L124.508 100.764L97.186 10.766Z" fill="white"/>
<path d="M64.244 119.444C64.1869 119.445 64.1306 119.43 64.0809 119.402C64.0388 119.381 64.0013 119.353 63.9708 119.317C63.9403 119.282 63.9174 119.241 63.9036 119.196L36.5892 29.1957C36.57 29.1533 36.5601 29.1073 36.5601 29.0608C36.5601 29.0143 36.57 28.9683 36.5892 28.9259C36.6106 28.8854 36.6397 28.8494 36.675 28.8202C36.7103 28.791 36.7511 28.769 36.7949 28.7556L97.0837 10.4347C97.1731 10.4081 97.2693 10.4177 97.3516 10.4615C97.4339 10.5054 97.4956 10.5799 97.5235 10.6689L124.845 100.669C124.859 100.714 124.864 100.762 124.859 100.809C124.855 100.856 124.841 100.902 124.819 100.944C124.796 100.985 124.765 101.022 124.729 101.052C124.692 101.081 124.649 101.103 124.604 101.116L64.315 119.43C64.292 119.438 64.2682 119.443 64.244 119.444ZM37.3694 29.3306L64.4781 118.649L124.058 100.534L96.9489 11.2155L37.3694 29.3306Z" fill="#231F20"/>
<path d="M92.1969 122.865C91.6338 122.865 91.0857 122.684 90.6326 122.349C90.1796 122.015 89.8454 121.544 89.6789 121.006L88.8349 118.202C88.6334 117.535 88.7039 116.816 89.0309 116.202C89.3579 115.587 89.9148 115.127 90.5797 114.922L101.574 111.586C101.903 111.484 102.25 111.449 102.593 111.482C102.937 111.514 103.27 111.615 103.575 111.777C103.879 111.939 104.149 112.16 104.368 112.427C104.587 112.694 104.751 113.002 104.85 113.332L105.694 116.172C105.796 116.502 105.832 116.848 105.799 117.192C105.766 117.536 105.666 117.87 105.504 118.174C105.341 118.479 105.121 118.749 104.854 118.968C104.587 119.187 104.28 119.351 103.95 119.451L92.9558 122.787C92.7081 122.851 92.4523 122.877 92.1969 122.865ZM102.34 112.175C102.15 112.175 101.961 112.204 101.779 112.26L90.7854 115.604C90.3 115.753 89.8934 116.088 89.6542 116.536C89.415 116.985 89.3627 117.509 89.5087 117.996L90.3598 120.8C90.5088 121.285 90.8439 121.692 91.2917 121.932C91.7395 122.171 92.2638 122.224 92.7501 122.077L103.744 118.734C103.985 118.662 104.21 118.543 104.405 118.383C104.6 118.223 104.762 118.027 104.88 117.804C104.999 117.582 105.073 117.338 105.097 117.087C105.121 116.836 105.095 116.583 105.021 116.342L104.169 113.538C104.051 113.145 103.809 112.8 103.479 112.554C103.15 112.309 102.75 112.176 102.34 112.175Z" fill="#D1D3D4"/>
<path d="M52.165 20.2865C52.0892 20.287 52.0152 20.2631 51.9539 20.2184C51.8927 20.1737 51.8473 20.1105 51.8246 20.0381C51.7977 19.9477 51.8072 19.8504 51.8509 19.7669C51.8946 19.6834 51.9691 19.6202 52.0586 19.5909L71.1383 13.7915C71.2323 13.7633 71.3338 13.7736 71.4202 13.8202C71.5067 13.8668 71.5711 13.9458 71.5993 14.0399C71.6275 14.1341 71.6172 14.2356 71.5707 14.3221C71.5241 14.4086 71.4451 14.4731 71.3511 14.5013L52.2643 20.2439L52.165 20.2865Z" fill="#D1D3D4"/>
<path d="M73.9186 13.6715C73.8431 13.6708 73.7696 13.6465 73.7085 13.602C73.6475 13.5574 73.6019 13.4948 73.5782 13.423C73.5641 13.3778 73.5591 13.3303 73.5636 13.2831C73.5682 13.236 73.5821 13.1902 73.6046 13.1486C73.627 13.1069 73.6576 13.0701 73.6945 13.0405C73.7314 13.0108 73.7738 12.9888 73.8193 12.9758L76.3798 12.2021C76.4257 12.182 76.4752 12.1719 76.5253 12.1724C76.5753 12.1729 76.6247 12.1839 76.6701 12.2048C76.7156 12.2258 76.7561 12.2561 76.789 12.2938C76.8219 12.3315 76.8465 12.3758 76.8611 12.4237C76.8757 12.4716 76.8801 12.522 76.8738 12.5717C76.8675 12.6214 76.8508 12.6692 76.8248 12.7119C76.7988 12.7547 76.764 12.7915 76.7228 12.8198C76.6815 12.8482 76.6347 12.8675 76.5855 12.8764L74.025 13.6573C73.9908 13.6689 73.9547 13.6737 73.9186 13.6715Z" fill="#D1D3D4"/>
<path d="M87.9984 38.4199L47.5034 50.7329L59.8067 91.2597L100.302 78.9467L87.9984 38.4199Z" fill="#FEC600"/>
<path d="M59.8039 91.6185C59.728 91.619 59.6541 91.5951 59.5928 91.5504C59.5315 91.5056 59.4862 91.4425 59.4634 91.3701L47.1645 50.8384C47.1503 50.7941 47.1452 50.7475 47.1493 50.7012C47.1535 50.6549 47.1669 50.6099 47.1887 50.5689C47.2105 50.5279 47.2403 50.4916 47.2764 50.4623C47.3124 50.433 47.354 50.4113 47.3986 50.3983L87.8914 38.0897C87.9817 38.0629 88.0789 38.0723 88.1623 38.116C88.2458 38.1598 88.3089 38.2344 88.3382 38.324L100.637 78.8485C100.664 78.9389 100.655 79.0362 100.611 79.1197C100.567 79.2032 100.493 79.2664 100.403 79.2957L59.9316 91.6043C59.8909 91.6199 59.847 91.6247 59.8039 91.6185ZM47.9447 50.9733L60.0379 90.8235L99.8569 78.7208L87.7566 38.8705L47.9447 50.9733Z" fill="#231F20"/>
<path d="M100.301 78.94L59.8062 91.2529L62.934 101.556L103.429 89.2431L100.301 78.94Z" fill="white"/>
<path d="M62.9248 101.918C62.8705 101.914 62.8175 101.9 62.7687 101.876C62.7272 101.854 62.6907 101.823 62.6614 101.787C62.6321 101.75 62.6107 101.708 62.5985 101.663L59.4706 91.3628C59.4437 91.2725 59.4532 91.1752 59.4969 91.0917C59.5406 91.0081 59.6151 90.945 59.7046 90.9156L100.205 78.6071C100.294 78.5804 100.39 78.5901 100.472 78.6339C100.555 78.6777 100.616 78.7523 100.644 78.8413L103.772 89.1481C103.807 89.2347 103.807 89.3313 103.772 89.4179C103.726 89.4998 103.649 89.5607 103.559 89.5882L63.0312 101.876C62.9991 101.897 62.9628 101.911 62.9248 101.918ZM60.2437 91.5048L63.1659 101.123L102.985 89.0204L100.063 79.395L60.2437 91.5048Z" fill="#231F20"/>
<path d="M65.3647 93.2084C65.2889 93.2088 65.2149 93.1849 65.1536 93.1402C65.0924 93.0955 65.047 93.0323 65.0243 92.9599C64.9974 92.8695 65.0069 92.7723 65.0506 92.6887C65.0943 92.6052 65.1688 92.5421 65.2583 92.5127L96.4667 83.0293C96.5607 83.0011 96.6621 83.0114 96.7486 83.058C96.8351 83.1046 96.8995 83.1836 96.9277 83.2777C96.9559 83.3719 96.9456 83.4734 96.8991 83.5599C96.8525 83.6464 96.7735 83.7109 96.6795 83.7391L65.4711 93.2226L65.3647 93.2084Z" fill="#D1D3D4"/>
<path d="M66.4573 96.8144C66.3802 96.8156 66.305 96.7911 66.2434 96.7449C66.1818 96.6986 66.1372 96.6332 66.1168 96.5589C66.0902 96.4694 66.0998 96.3731 66.1436 96.2908C66.1874 96.2084 66.2619 96.1466 66.3509 96.1188L95.5023 87.2529C95.5963 87.2256 95.6974 87.2368 95.7832 87.2841C95.869 87.3313 95.9325 87.4108 95.9598 87.5049C95.9871 87.599 95.9759 87.7001 95.9286 87.786C95.8814 87.8719 95.802 87.9354 95.708 87.9627L66.5566 96.8215C66.5233 96.8259 66.4895 96.8235 66.4573 96.8144Z" fill="#D1D3D4"/>
<path d="M63.9464 77.2725C63.8699 77.2714 63.7958 77.246 63.7346 77.2001C63.6735 77.1542 63.6284 77.0901 63.6059 77.017L58.5842 60.4565C58.5487 60.3701 58.5487 60.2731 58.5842 60.1867C58.6324 60.1062 58.7079 60.0457 58.797 60.0164L83.7282 52.4353C83.8145 52.3998 83.9114 52.3998 83.9977 52.4353C84.0392 52.4572 84.0758 52.4874 84.1051 52.524C84.1344 52.5606 84.1558 52.603 84.168 52.6483L89.218 69.223C89.2528 69.3095 89.2528 69.4061 89.218 69.4927C89.1726 69.5728 89.0994 69.6334 89.0123 69.663L64.0811 77.2441L63.9464 77.2725ZM59.3644 60.5913L64.1875 76.4704L88.4449 69.1023L83.6218 53.2161L59.3644 60.5913Z" fill="white"/>
<path d="M63.9465 77.2728C63.8893 77.2731 63.8331 77.2584 63.7834 77.2302C63.7417 77.2085 63.7047 77.1788 63.6746 77.1427C63.6446 77.1066 63.6219 77.0649 63.6081 77.02C63.5942 76.9751 63.5894 76.9279 63.5939 76.8811C63.5985 76.8343 63.6122 76.7889 63.6344 76.7475L69.9754 64.8293C70.0183 64.7457 70.0921 64.6821 70.1811 64.6519C70.2699 64.6167 70.3688 64.6167 70.4577 64.6519L82.3523 71.0404C82.4351 71.0856 82.4965 71.1618 82.5231 71.2524C82.5497 71.3429 82.5393 71.4403 82.4942 71.5231C82.449 71.6059 82.3729 71.6674 82.2824 71.6941C82.1919 71.7207 82.0946 71.7102 82.0119 71.6651L70.4364 65.454L64.2586 77.0598C64.2319 77.1211 64.1884 77.1737 64.1332 77.2113C64.078 77.249 64.0133 77.2703 63.9465 77.2728Z" fill="white"/>
<path d="M79.0826 70.0537C79.0199 70.0549 78.9582 70.0376 78.9052 70.004C78.8235 69.9578 78.7634 69.881 78.7382 69.7905C78.7129 69.7001 78.7245 69.6032 78.7705 69.5213L81.8062 64.1762C81.8495 64.1008 81.9185 64.0435 82.0006 64.0149C82.0826 63.9862 82.1722 63.988 82.253 64.0201L88.3103 66.611C88.3933 66.65 88.4579 66.7197 88.4906 66.8054C88.5233 66.8911 88.5216 66.9862 88.4859 67.0707C88.4501 67.1551 88.383 67.2225 88.2987 67.2585C88.2144 67.2946 88.1194 67.2965 88.0337 67.264L82.2672 64.8009L79.3875 69.8762C79.3566 69.9299 79.3122 69.9745 79.2587 70.0056C79.2052 70.0367 79.1445 70.0533 79.0826 70.0537Z" fill="white"/>
<path d="M76.8481 63.9985C76.298 63.9967 75.7629 63.8186 75.3212 63.4903C74.8796 63.162 74.5546 62.7008 74.394 62.1742C74.2955 61.8512 74.2616 61.512 74.2943 61.1758C74.3269 60.8397 74.4254 60.5134 74.5842 60.2154C74.7429 59.9174 74.9588 59.6537 75.2195 59.4392C75.4802 59.2248 75.7805 59.0639 76.1034 58.9657C76.4265 58.8673 76.766 58.8337 77.1022 58.8669C77.4384 58.9 77.7647 58.9992 78.0626 59.1587C78.3604 59.3183 78.6238 59.5352 78.8378 59.7968C79.0517 60.0585 79.2119 60.3598 79.3093 60.6835C79.506 61.3349 79.4365 62.0378 79.116 62.6379C78.7956 63.2381 78.2503 63.6865 77.5999 63.8849C77.3565 63.9607 77.103 63.999 76.8481 63.9985ZM76.8481 59.5691C76.6631 59.5667 76.4789 59.593 76.3019 59.6472C75.8641 59.8163 75.5065 60.145 75.3008 60.5671C75.0951 60.9893 75.0567 61.4737 75.1932 61.9231C75.3297 62.3725 75.631 62.7535 76.0367 62.9897C76.4423 63.2259 76.9223 63.2997 77.3801 63.1964C77.8542 63.0514 78.2519 62.7248 78.4865 62.2878C78.602 62.0719 78.6733 61.8352 78.6965 61.5915C78.7196 61.3478 78.694 61.1019 78.6213 60.8681C78.5059 60.4871 78.2713 60.1531 77.9521 59.9155C77.6329 59.6778 77.2459 59.5489 76.8481 59.5478V59.5691Z" fill="white"/>
<path d="M131.587 25.6089L90.9575 37.8921L103.231 78.5538L143.861 66.2706L131.587 25.6089Z" fill="#FEC600"/>
<path d="M102.892 78.5219C102.835 78.5222 102.779 78.5075 102.729 78.4793C102.687 78.4575 102.649 78.4274 102.619 78.3908C102.589 78.3543 102.566 78.3119 102.552 78.2663L90.253 37.7417C90.2264 37.6523 90.2361 37.556 90.2799 37.4736C90.3237 37.3913 90.3981 37.3295 90.4871 37.3016L130.987 24.986C131.074 24.9545 131.169 24.9545 131.257 24.986C131.338 25.0326 131.399 25.1088 131.427 25.1989L143.726 65.7235C143.752 65.8129 143.743 65.9092 143.699 65.9916C143.655 66.074 143.581 66.1358 143.492 66.1636L102.999 78.4793L102.892 78.5219ZM91.0333 37.8766L103.126 77.741L142.945 65.6738L130.859 25.7668L91.0333 37.8766Z" fill="#231F20"/>
<path d="M143.888 66.2768L103.258 78.5601L106.378 88.8975L147.008 76.6143L143.888 66.2768Z" fill="white"/>
<path d="M106.035 88.8216C105.976 88.8211 105.917 88.8065 105.865 88.7791C105.783 88.7324 105.722 88.6562 105.694 88.5661L102.566 78.2664C102.553 78.2216 102.549 78.1748 102.554 78.1284C102.559 78.0821 102.574 78.0372 102.596 77.9963C102.618 77.9555 102.649 77.9194 102.685 77.8902C102.721 77.8611 102.763 77.8393 102.808 77.8263L143.3 65.5177C143.39 65.4911 143.486 65.5007 143.568 65.5445C143.651 65.5884 143.712 65.6629 143.74 65.752L146.868 76.0517C146.887 76.094 146.897 76.14 146.897 76.1866C146.897 76.2331 146.887 76.2791 146.868 76.3214C146.848 76.3635 146.819 76.401 146.784 76.4316C146.748 76.4621 146.707 76.485 146.662 76.4989L106.162 88.8074L106.035 88.8216ZM103.347 78.4012L106.269 88.0266L146.088 75.9168L143.166 66.2985L103.347 78.4012Z" fill="#231F20"/>
<path d="M108.453 80.1121C108.377 80.1109 108.303 80.0856 108.242 80.0397C108.18 79.9938 108.135 79.9296 108.113 79.8565C108.086 79.7661 108.097 79.669 108.142 79.5865C108.188 79.5039 108.264 79.4428 108.354 79.4164L139.562 69.933C139.648 69.9174 139.736 69.9338 139.81 69.9791C139.885 70.0243 139.94 70.0953 139.965 70.1785C139.99 70.2618 139.984 70.3514 139.948 70.4305C139.912 70.5095 139.848 70.5725 139.768 70.6073L108.56 80.0908C108.526 80.1046 108.49 80.1119 108.453 80.1121Z" fill="#D1D3D4"/>
<path d="M109.581 83.7106C109.506 83.7099 109.432 83.6856 109.371 83.6411C109.31 83.5965 109.264 83.5339 109.241 83.4621C109.227 83.4169 109.222 83.3693 109.226 83.3222C109.231 83.2751 109.245 83.2293 109.267 83.1876C109.29 83.146 109.32 83.1092 109.357 83.0796C109.394 83.0499 109.436 83.0279 109.482 83.0149L134.598 75.3842C134.683 75.3686 134.771 75.385 134.846 75.4302C134.92 75.4755 134.975 75.5465 135 75.6297C135.026 75.7129 135.02 75.8026 134.983 75.8817C134.947 75.9607 134.883 76.0237 134.803 76.0585L109.652 83.6964L109.581 83.7106Z" fill="#D1D3D4"/>
<path d="M107.042 64.1693C106.983 64.1702 106.924 64.1556 106.872 64.1267C106.832 64.1053 106.796 64.0761 106.766 64.0408C106.737 64.0055 106.715 63.9647 106.702 63.9209L101.673 47.3604C101.638 47.274 101.638 47.1771 101.673 47.0907C101.716 47.007 101.79 46.9434 101.879 46.9132L126.838 39.3392C126.929 39.3124 127.026 39.3218 127.109 39.3656C127.193 39.4093 127.256 39.4839 127.285 39.5735L132.279 56.134C132.314 56.2204 132.314 56.3173 132.279 56.4037C132.257 56.4452 132.227 56.4818 132.19 56.5111C132.153 56.5404 132.111 56.5619 132.066 56.5741L107.135 64.1551C107.105 64.1655 107.074 64.1703 107.042 64.1693ZM102.489 47.4953L107.312 63.3743L131.562 55.9991L126.711 40.1201L102.489 47.4953Z" fill="white"/>
<path d="M107.035 64.1688C106.975 64.1684 106.915 64.1523 106.863 64.1223C106.81 64.0922 106.766 64.0491 106.734 63.9971C106.703 63.9452 106.686 63.886 106.684 63.8253C106.682 63.7647 106.695 63.7045 106.723 63.6507L113.064 51.7254C113.11 51.643 113.187 51.5819 113.277 51.555C113.319 51.5358 113.365 51.5259 113.412 51.5259C113.458 51.5259 113.504 51.5358 113.547 51.555L125.441 57.9436C125.486 57.9635 125.525 57.9923 125.558 58.0283C125.591 58.0643 125.616 58.1066 125.632 58.1526C125.647 58.1987 125.653 58.2475 125.65 58.296C125.646 58.3445 125.632 58.3916 125.609 58.4346C125.586 58.4775 125.554 58.5152 125.516 58.5455C125.478 58.5757 125.434 58.5978 125.387 58.6103C125.34 58.6228 125.291 58.6256 125.243 58.6183C125.195 58.6111 125.149 58.594 125.108 58.5682L113.525 52.3572L107.355 63.9701C107.325 64.0298 107.28 64.0801 107.223 64.1153C107.167 64.1504 107.102 64.169 107.035 64.1688Z" fill="white"/>
<path d="M122.15 56.9502C122.09 56.9505 122.032 56.9359 121.979 56.9076C121.898 56.8614 121.838 56.7846 121.812 56.6941C121.787 56.6037 121.799 56.5068 121.845 56.4249L124.88 51.0728C124.923 50.9963 124.992 50.9385 125.075 50.9109C125.158 50.8833 125.248 50.8879 125.327 50.9237L131.377 53.5075C131.422 53.5244 131.463 53.5502 131.497 53.5833C131.532 53.6163 131.559 53.656 131.578 53.6999C131.597 53.7438 131.606 53.7911 131.606 53.8389C131.606 53.8866 131.597 53.9339 131.578 53.9779C131.56 54.0219 131.532 54.0616 131.498 54.0948C131.464 54.128 131.423 54.1539 131.378 54.1709C131.334 54.188 131.286 54.1958 131.239 54.1941C131.191 54.1923 131.144 54.1809 131.101 54.1605L125.341 51.6974L122.462 56.7727C122.43 56.8274 122.385 56.8727 122.33 56.9039C122.275 56.9351 122.213 56.9511 122.15 56.9502Z" fill="white"/>
<path d="M119.937 50.902C119.386 50.9003 118.851 50.7222 118.41 50.3939C117.968 50.0656 117.643 49.6043 117.482 49.0778C117.284 48.4254 117.353 47.7209 117.673 47.1192C117.994 46.5175 118.54 46.0679 119.192 45.8693C119.844 45.6707 120.548 45.7393 121.149 46.0602C121.75 46.381 122.199 46.9277 122.398 47.58C122.496 47.903 122.53 48.2422 122.498 48.5784C122.465 48.9145 122.366 49.2408 122.208 49.5388C122.049 49.8368 121.833 50.1005 121.572 50.315C121.312 50.5294 121.011 50.6903 120.688 50.7885C120.444 50.8613 120.191 50.8996 119.937 50.902ZM119.937 46.4656C119.754 46.4655 119.572 46.4942 119.398 46.5507C119.162 46.6188 118.943 46.7337 118.753 46.8886C118.562 47.0435 118.405 47.2352 118.291 47.4522C118.06 47.889 118.012 48.3995 118.156 48.8719C118.263 49.2241 118.472 49.5367 118.756 49.7701C119.041 50.0035 119.388 50.1471 119.754 50.1828C120.12 50.2186 120.489 50.1448 120.813 49.9708C121.137 49.7968 121.402 49.5305 121.575 49.2055C121.808 48.7698 121.859 48.2592 121.717 47.7859C121.6 47.406 121.364 47.0733 121.046 46.836C120.727 46.5986 120.341 46.4689 119.944 46.4656H119.937Z" fill="white"/>
<path d="M174.185 12.2134L133.69 24.5264L145.993 65.0531L186.488 52.7401L174.185 12.2134Z" fill="#FEC600"/>
<path d="M145.989 65.4183C145.929 65.4186 145.871 65.4039 145.819 65.3757C145.777 65.3553 145.741 65.3265 145.711 65.291C145.682 65.2555 145.661 65.2142 145.648 65.1698L133.342 24.6382C133.316 24.5478 133.327 24.4507 133.372 24.3681C133.417 24.2856 133.493 24.2244 133.583 24.1981L174.076 11.8895C174.119 11.8703 174.165 11.8604 174.211 11.8604C174.258 11.8604 174.303 11.8703 174.346 11.8895C174.388 11.9098 174.425 11.9386 174.456 11.974C174.486 12.0094 174.509 12.0507 174.523 12.0954L186.822 52.627C186.849 52.7165 186.839 52.8128 186.795 52.8951C186.751 52.9775 186.677 53.0393 186.588 53.0671L146.088 65.3757C146.059 65.3972 146.025 65.4118 145.989 65.4183ZM134.13 24.773L146.187 64.6233L186.006 52.556L173.942 12.6703L134.13 24.773Z" fill="#231F20"/>
<path d="M186.481 52.7403L145.986 65.0532L149.114 75.3564L189.609 63.0434L186.481 52.7403Z" fill="white"/>
<path d="M149.11 75.7181C149.054 75.7173 148.998 75.7052 148.947 75.6826C148.863 75.6368 148.799 75.5606 148.769 75.4696L145.649 65.1699C145.622 65.0805 145.632 64.9841 145.675 64.9018C145.719 64.8194 145.794 64.7576 145.883 64.7298L186.375 52.4141C186.421 52.4 186.468 52.395 186.515 52.3996C186.562 52.4041 186.608 52.418 186.65 52.4405C186.691 52.463 186.728 52.4936 186.758 52.5305C186.787 52.5674 186.809 52.6099 186.822 52.6555L189.95 62.9552C189.982 63.0424 189.982 63.1378 189.95 63.2249C189.904 63.3068 189.827 63.3678 189.737 63.3953L149.245 75.7039C149.202 75.7197 149.155 75.7246 149.11 75.7181ZM146.464 65.3048L149.351 74.9017L189.163 62.8345L186.248 53.2091L146.464 65.3048Z" fill="#231F20"/>
<path d="M151.549 67.0082C151.473 67.0087 151.399 66.9848 151.338 66.9401C151.277 66.8954 151.232 66.8322 151.209 66.7598C151.182 66.6694 151.191 66.5721 151.235 66.4886C151.279 66.4051 151.353 66.3419 151.443 66.3126L182.651 56.8292C182.696 56.815 182.744 56.8101 182.791 56.8146C182.838 56.8192 182.884 56.8331 182.926 56.8556C182.967 56.8781 183.004 56.9087 183.033 56.9456C183.063 56.9825 183.085 57.025 183.098 57.0705C183.111 57.1152 183.115 57.1621 183.11 57.2085C183.105 57.2548 183.091 57.2997 183.069 57.3405C183.046 57.3814 183.016 57.4175 182.98 57.4466C182.943 57.4758 182.902 57.4975 182.857 57.5106L151.649 66.994L151.549 67.0082Z" fill="#D1D3D4"/>
<path d="M152.642 70.643C152.565 70.6441 152.49 70.6197 152.428 70.5734C152.366 70.5272 152.322 70.4617 152.301 70.3874C152.275 70.298 152.284 70.2017 152.328 70.1193C152.372 70.0369 152.446 69.9752 152.535 69.9473L175.36 63.0122C175.404 62.997 175.451 62.991 175.498 62.9947C175.544 62.9984 175.59 63.0116 175.631 63.0336C175.672 63.0556 175.708 63.0858 175.737 63.1224C175.767 63.1591 175.788 63.2013 175.8 63.2465C175.826 63.3359 175.817 63.4322 175.773 63.5146C175.729 63.5969 175.655 63.6587 175.566 63.6866L152.741 70.6288L152.642 70.643Z" fill="#D1D3D4"/>
<path d="M150.131 51.0726C150.054 51.0715 149.98 51.0461 149.919 51.0002C149.858 50.9543 149.813 50.8902 149.79 50.817L144.761 34.2565C144.73 34.1694 144.73 34.074 144.761 33.9868C144.808 33.9049 144.884 33.844 144.974 33.8164L169.905 26.2354C169.996 26.209 170.093 26.2196 170.175 26.2649C170.258 26.3102 170.319 26.3864 170.345 26.4767L175.374 43.0372C175.409 43.1238 175.409 43.2204 175.374 43.307C175.328 43.387 175.255 43.4476 175.168 43.4773L150.237 51.0584L150.131 51.0726ZM145.549 34.3914L150.365 50.2705L174.622 42.9023L169.799 27.0162L145.549 34.3914Z" fill="white"/>
<path d="M150.131 51.0726C150.071 51.072 150.013 51.0574 149.96 51.03C149.919 51.0077 149.883 50.9775 149.854 50.9412C149.824 50.9048 149.802 50.863 149.789 50.8182C149.776 50.7733 149.772 50.7263 149.777 50.6798C149.782 50.6333 149.796 50.5883 149.819 50.5473L156.16 38.6292C156.203 38.5455 156.276 38.4819 156.365 38.4517C156.455 38.4197 156.552 38.4197 156.642 38.4517L168.537 44.8402C168.619 44.8854 168.681 44.9616 168.707 45.0522C168.734 45.1427 168.724 45.2401 168.678 45.3229C168.633 45.4058 168.557 45.4672 168.467 45.4939C168.376 45.5205 168.279 45.5101 168.196 45.4649L156.621 39.2538L150.443 50.8596C150.416 50.921 150.373 50.9735 150.317 51.0112C150.262 51.0488 150.197 51.0701 150.131 51.0726Z" fill="white"/>
<path d="M165.246 43.8535C165.183 43.8547 165.121 43.8374 165.068 43.8038C164.987 43.7575 164.927 43.6808 164.901 43.5903C164.876 43.4998 164.888 43.403 164.934 43.3211L167.969 37.9902C168.013 37.9148 168.082 37.8575 168.164 37.8288C168.246 37.8002 168.335 37.802 168.416 37.834L174.473 40.4249C174.556 40.464 174.621 40.5337 174.654 40.6194C174.686 40.7051 174.685 40.8002 174.649 40.8846C174.613 40.9691 174.546 41.0364 174.462 41.0725C174.377 41.1085 174.282 41.1105 174.197 41.078L168.452 38.6007L165.551 43.6689C165.521 43.7239 165.477 43.7699 165.423 43.8023C165.369 43.8347 165.308 43.8524 165.246 43.8535Z" fill="white"/>
<path d="M163.033 37.7989C162.557 37.7981 162.091 37.6653 161.687 37.4151C161.282 37.1648 160.955 36.8071 160.742 36.3818C160.529 35.9565 160.438 35.4802 160.479 35.0061C160.52 34.532 160.692 34.0787 160.976 33.6967C161.26 33.3147 161.644 33.0191 162.085 32.8427C162.527 32.6663 163.009 32.6161 163.477 32.6977C163.946 32.7794 164.382 32.9896 164.738 33.305C165.095 33.6204 165.356 34.0285 165.494 34.4839C165.592 34.8065 165.626 35.1452 165.593 35.4809C165.561 35.8165 165.462 36.1423 165.303 36.4397C165.145 36.7371 164.929 37.0003 164.668 37.214C164.407 37.4277 164.107 37.5879 163.785 37.6853C163.541 37.7611 163.288 37.7994 163.033 37.7989ZM163.033 33.3695C162.848 33.3671 162.664 33.3934 162.487 33.4476C162.194 33.5361 161.928 33.6955 161.711 33.9117C161.495 34.128 161.335 34.3943 161.246 34.6871C161.157 34.9799 161.142 35.2902 161.201 35.5903C161.261 35.8905 161.394 36.1713 161.588 36.4079C161.782 36.6444 162.031 36.8294 162.314 36.9464C162.596 37.0634 162.903 37.1088 163.208 37.0786C163.512 37.0484 163.804 36.9434 164.058 36.7732C164.312 36.6029 164.52 36.3725 164.664 36.1024C164.781 35.887 164.853 35.6506 164.878 35.4068C164.902 35.1631 164.878 34.9169 164.806 34.6827C164.736 34.449 164.62 34.2314 164.465 34.0426C164.311 33.8538 164.12 33.6974 163.905 33.5825C163.639 33.4412 163.341 33.368 163.04 33.3695H163.033Z" fill="white"/>
<path d="M49.2148 43.0587C51.522 43.0587 53.3924 41.1868 53.3924 38.8777C53.3924 36.5686 51.522 34.6968 49.2148 34.6968C46.9075 34.6968 45.0371 36.5686 45.0371 38.8777C45.0371 41.1868 46.9075 43.0587 49.2148 43.0587Z" fill="#D1D3D4"/>
<path d="M56.208 33.6107C56.1322 33.6112 56.0582 33.5873 55.9969 33.5426C55.9356 33.4979 55.8903 33.4347 55.8675 33.3623C55.8407 33.2719 55.8501 33.1746 55.8938 33.0911C55.9375 33.0076 56.0121 32.9444 56.1016 32.9151L94.3389 21.2951C94.4283 21.2684 94.5245 21.278 94.6068 21.3219C94.6891 21.3657 94.7508 21.4402 94.7787 21.5293C94.8055 21.6197 94.7961 21.7169 94.7524 21.8005C94.7087 21.884 94.6341 21.9471 94.5446 21.9765L56.3073 33.5965L56.208 33.6107Z" fill="#D1D3D4"/>
<path d="M57.1794 36.8121C57.0853 36.8262 56.9895 36.8024 56.913 36.7458C56.8365 36.6892 56.7857 36.6046 56.7715 36.5104C56.7574 36.4163 56.7813 36.3204 56.8378 36.2439C56.8943 36.1673 56.9789 36.1164 57.073 36.1023L95.3103 24.5035C95.3997 24.4769 95.4959 24.4865 95.5782 24.5304C95.6605 24.5742 95.7222 24.6487 95.75 24.7378C95.7769 24.8282 95.7675 24.9254 95.7238 25.009C95.68 25.0925 95.6055 25.1556 95.516 25.185L57.2787 36.7979L57.1794 36.8121Z" fill="#D1D3D4"/>
<path d="M58.1514 40.013C58.0755 40.0135 58.0015 39.9896 57.9403 39.9449C57.879 39.9001 57.8337 39.837 57.8109 39.7646C57.7841 39.6742 57.7935 39.5769 57.8372 39.4934C57.8809 39.4099 57.9554 39.3467 58.045 39.3174L92.6791 28.7621C92.7238 28.748 92.7709 28.7432 92.8175 28.7478C92.8641 28.7524 92.9093 28.7664 92.9504 28.7889C92.9915 28.8115 93.0276 28.8421 93.0565 28.879C93.0855 28.9158 93.1067 28.9582 93.1189 29.0034C93.1341 29.0476 93.14 29.0945 93.1364 29.1412C93.1327 29.1878 93.1195 29.2331 93.0975 29.2744C93.0755 29.3157 93.0453 29.352 93.0087 29.3811C92.9721 29.4102 92.93 29.4315 92.8848 29.4435L58.2507 39.9988C58.2189 40.0104 58.1851 40.0153 58.1514 40.013Z" fill="#D1D3D4"/>
<path d="M66.3579 110.095C66.2821 110.096 66.2081 110.072 66.1468 110.027C66.0855 109.982 66.0402 109.919 66.0174 109.847C65.9906 109.756 66 109.659 66.0437 109.576C66.0874 109.492 66.162 109.429 66.2515 109.4L117.447 93.84C117.537 93.8133 117.633 93.823 117.715 93.8668C117.798 93.9107 117.859 93.9852 117.887 94.0742C117.914 94.1646 117.905 94.2619 117.861 94.3454C117.817 94.4289 117.743 94.4921 117.653 94.5214L66.4572 110.081C66.4254 110.092 66.3916 110.097 66.3579 110.095Z" fill="#D1D3D4"/>
<path d="M197.795 124.349C197.795 124.349 181.446 83.8883 170.466 69.3224C168.969 67.3349 166.92 66.8806 165.395 67.7608C163.6 68.7971 163.267 72.6445 163.267 72.6445C163.267 72.6445 158.926 69.7625 156.727 70.1529C154.529 70.5433 154.06 73.9009 154.06 73.9009C154.06 73.9009 149.344 72.0198 147.251 73.5814C145.159 75.1431 144.904 78.2096 144.904 78.2096C144.904 78.2096 120.859 56.4105 118.178 54.5365C115.497 52.6626 110.269 55.3386 112.504 59.0724C113.922 61.3935 125.881 74.8237 129.768 79.0969C133.654 83.3701 142.584 94.8623 143.45 98.1347C144.315 101.407 144.996 105.098 138.385 105.112C131.775 105.127 125.831 105.886 122.781 108.101C119.731 110.315 117.603 113.829 119.001 114.631C120.398 115.433 141.499 116.193 150.103 120.31C158.706 124.427 169.055 138.815 169.055 138.815L197.795 124.349Z" fill="white"/>
<path d="M169.083 139.192C169.028 139.192 168.973 139.18 168.924 139.155C168.875 139.13 168.832 139.094 168.799 139.05C168.693 138.908 158.401 124.704 149.975 120.658C144.109 117.818 132.179 116.576 125.051 115.831C121.199 115.426 119.334 115.22 118.852 114.944C118.666 114.835 118.512 114.679 118.405 114.492C118.298 114.306 118.242 114.094 118.242 113.879C118.164 112.338 120.121 109.62 122.604 107.81C125.377 105.794 130.697 104.765 138.407 104.757C140.768 104.757 142.343 104.253 143.088 103.288C144.038 102.046 143.634 100.108 143.13 98.2269C142.293 95.0823 133.569 83.7888 129.526 79.3382C125.483 74.8875 113.631 61.5922 112.22 59.2569C111.753 58.5882 111.549 57.7713 111.644 56.9614C111.739 56.1515 112.129 55.4048 112.738 54.863C114.078 53.6066 116.625 53.0103 118.412 54.2454C120.902 55.9845 141.159 74.3054 144.655 77.4997C144.924 75.858 145.772 74.3671 147.046 73.2975C148.925 71.8778 152.578 72.9993 153.798 73.4252C154.011 72.4527 154.727 70.1529 156.635 69.8051C158.543 69.4572 161.735 71.2957 162.955 72.041C163.125 70.884 163.664 68.3215 165.182 67.4484C166.962 66.4191 169.182 67.0864 170.707 69.1094C181.588 83.5475 197.915 123.817 198.078 124.221C198.113 124.302 198.115 124.394 198.085 124.477C198.055 124.56 197.994 124.629 197.915 124.668L169.204 139.156C169.166 139.176 169.125 139.188 169.083 139.192ZM116.114 54.3164C115.048 54.3181 114.018 54.7093 113.22 55.4167C112.716 55.8473 112.394 56.4543 112.322 57.1139C112.249 57.7734 112.431 58.4358 112.83 58.9659C114.192 61.2302 126.101 74.5822 130.051 78.9335C133.683 82.9299 142.889 94.6209 143.818 98.0991C144.365 100.151 144.797 102.28 143.655 103.778C142.754 104.949 141.038 105.517 138.407 105.524C130.853 105.524 125.675 106.518 123.022 108.441C120.547 110.237 118.887 112.757 118.951 113.893C118.945 113.99 118.965 114.087 119.01 114.174C119.055 114.26 119.123 114.332 119.206 114.383C119.575 114.596 122.27 114.88 125.122 115.178C132.293 115.93 144.272 117.194 150.287 120.069C158.352 123.951 167.742 136.466 169.196 138.446L197.341 124.25C195.816 120.494 180.509 83.299 170.182 69.5921C168.884 67.8672 167.033 67.2851 165.579 68.1227C164.231 68.8965 163.721 71.6719 163.629 72.7296C163.625 72.7912 163.604 72.8506 163.57 72.9018C163.535 72.953 163.488 72.994 163.432 73.0208C163.377 73.0475 163.315 73.059 163.253 73.0539C163.192 73.0489 163.133 73.0276 163.082 72.9922C163.04 72.9922 158.827 70.2026 156.805 70.5646C154.883 70.9053 154.429 73.9789 154.422 74.0073C154.416 74.0612 154.397 74.1129 154.368 74.1584C154.338 74.2039 154.298 74.2421 154.252 74.2699C154.203 74.2928 154.15 74.3046 154.096 74.3046C154.042 74.3046 153.989 74.2928 153.94 74.2699C153.897 74.2699 149.386 72.4811 147.471 73.9008C145.556 75.3205 145.272 78.245 145.265 78.2734C145.262 78.34 145.239 78.4042 145.2 78.4583C145.161 78.5125 145.107 78.5542 145.045 78.5786C144.983 78.6025 144.916 78.6086 144.851 78.596C144.786 78.5835 144.725 78.5528 144.677 78.5076C144.435 78.2876 120.618 56.7015 117.986 54.863C117.433 54.4923 116.779 54.3014 116.114 54.3164Z" fill="#231F20"/>
<path d="M212.548 162.339C208.881 151.167 197.653 115.284 197.142 115.49C196.632 115.696 161.543 132.398 161.543 132.398L163.671 162.368L212.548 162.339Z" fill="#231F20"/>
<path d="M212.547 162.695H163.664C163.573 162.695 163.486 162.66 163.42 162.598C163.354 162.536 163.315 162.451 163.309 162.361L161.181 132.399C161.177 132.327 161.194 132.255 161.231 132.193C161.268 132.131 161.322 132.082 161.387 132.051C162.806 131.377 196.362 115.483 196.993 115.199C197.088 115.161 197.195 115.161 197.291 115.199C197.787 115.419 199.362 119.948 208.249 147.852C210.164 153.85 211.796 159.025 212.874 162.254C212.892 162.308 212.897 162.364 212.888 162.42C212.88 162.475 212.859 162.528 212.826 162.574C212.794 162.62 212.751 162.657 212.701 162.683C212.652 162.709 212.596 162.723 212.54 162.723L212.547 162.695ZM163.99 161.985H212.058C210.994 158.734 209.405 153.758 207.582 148.036C203.532 135.352 198.05 118.167 197.021 115.973C193.865 117.457 164.749 131.242 161.919 132.59L163.99 161.985Z" fill="#231F20"/>
<path d="M29.7944 114.702C29.7944 114.702 36.1425 66.9514 41.6252 61.8264C48.1364 55.7502 54.066 51.6189 55.1512 55.0971C56.2364 58.5753 57.279 64.3605 48.3563 70.8768L49.6543 82.4613C49.6543 82.4613 58.4139 88.5162 53.8532 107.632" fill="white"/>
<path d="M29.7946 115.028H29.752C29.6665 115.016 29.5893 114.97 29.5374 114.901C29.4856 114.832 29.4633 114.745 29.4754 114.659C29.7308 112.707 35.9015 66.7312 41.4055 61.5919C47.6968 55.7145 51.9667 53.01 54.0945 53.5779C54.4285 53.6708 54.7315 53.8515 54.9722 54.1011C55.2129 54.3507 55.3825 54.6602 55.4634 54.9976C57.9317 62.898 53.1867 67.7178 48.6969 71.0328L49.9594 82.2837C51.0659 83.1284 58.4708 89.6021 54.1655 107.703C54.1563 107.745 54.1388 107.784 54.1141 107.819C54.0894 107.854 54.0579 107.884 54.0215 107.906C53.9851 107.929 53.9446 107.944 53.9023 107.95C53.86 107.957 53.8168 107.955 53.7754 107.944C53.6935 107.923 53.6237 107.869 53.5811 107.796C53.5385 107.723 53.5268 107.636 53.5484 107.554C58.0027 88.871 49.5622 82.7877 49.4771 82.7096C49.4391 82.6842 49.4072 82.6507 49.3839 82.6113C49.3606 82.572 49.3464 82.528 49.3424 82.4824L48.0373 70.8979C48.0291 70.8405 48.0375 70.782 48.0614 70.7292C48.0852 70.6764 48.1236 70.6315 48.172 70.5998C56.4635 64.5236 56.0947 59.1643 54.8535 55.1679C54.8028 54.9356 54.6904 54.7213 54.5281 54.5476C54.3658 54.3739 54.1596 54.2474 53.9314 54.1812C52.0873 53.6986 47.8032 56.4882 41.8736 62.0462C36.5398 67.0151 30.206 114.248 30.1421 114.723C30.1394 114.766 30.1283 114.808 30.1093 114.847C30.0904 114.885 30.064 114.92 30.0317 114.948C29.9994 114.976 29.9619 114.998 29.9212 115.012C29.8805 115.026 29.8375 115.031 29.7946 115.028Z" fill="#231F20"/>
<path d="M1.61895 163.083C1.32383 163.063 1.06465 163.021 0.879431 162.963C0.69421 162.906 0.592712 162.836 0.589844 162.765C0.59226 162.676 0.743774 162.59 1.01221 162.527C1.28064 162.463 1.6448 162.427 2.02723 162.425L219.28 162.451C219.658 162.452 220.021 162.487 220.289 162.549C220.557 162.612 220.708 162.696 220.711 162.784C220.709 162.873 220.557 162.959 220.289 163.022C220.02 163.086 219.656 163.122 219.274 163.124L2.02146 163.098C1.88449 163.099 1.74768 163.094 1.61895 163.083Z" fill="#D1D3D4"/>
</svg>
