<svg width="203" height="171" viewBox="0 0 203 171" fill="none" xmlns="http://www.w3.org/2000/svg">
<path d="M176.361 71.8602L105.186 26.1297L34.1078 72.0102L34.1783 138.842L176.431 138.692L176.361 71.8602Z" fill="#E6E7E8"/>
<path d="M34.1776 139.176L176.431 139.026C176.518 139.026 176.602 138.991 176.663 138.928C176.725 138.865 176.76 138.779 176.76 138.69L176.689 71.8586C176.69 71.8022 176.677 71.7465 176.65 71.697C176.624 71.6476 176.585 71.6061 176.537 71.5768L105.363 25.873C105.31 25.8405 105.25 25.8233 105.188 25.8234C105.126 25.8234 105.066 25.8407 105.013 25.8734L33.9089 71.7607C33.8609 71.7898 33.8211 71.8311 33.7934 71.8805C33.7658 71.93 33.7512 71.9859 33.7511 72.0429L33.8215 138.874C33.83 138.962 33.8721 139.043 33.9387 139.1C34.0054 139.156 34.0912 139.184 34.1776 139.176ZM176.12 138.355L34.4733 138.504L34.4035 72.1966L105.185 26.5448L176.05 72.0474L176.12 138.355Z" fill="#231F20"/>
<path d="M87.8878 53.9635C85.5184 49.9838 84.9137 45.1427 85.1263 40.4954C85.2787 35.4111 86.5884 30.4325 88.9519 25.9526C89.9116 24.0287 91.3219 22.3758 93.0579 21.14C95.191 19.7947 96.648 20.6997 98.7361 20.3349C100.501 20.0241 102.345 18.7396 104.301 18.4085C108.814 17.6171 113.454 18.601 117.283 21.1615C123.981 25.7679 127.08 34.5819 134.003 38.8591C140.786 43.0289 149.462 41.764 157.067 44.066C160.277 45.043 163.269 46.6504 165.874 48.7978C167.673 50.199 169.147 51.9884 170.188 54.038C171.977 57.837 171.514 62.3636 170.201 66.3741C168.888 70.4987 166.665 74.4363 163.216 76.9985C160.326 79.1303 156.776 80.1145 153.265 80.7629C148.489 81.6476 143.542 81.9819 138.771 80.9326C135.25 80.2122 131.967 78.5885 129.233 76.215C128.059 75.1485 127.412 73.692 126.317 72.6321C124.807 71.1764 122.454 70.2858 120.687 69.1729C117.925 67.4231 115.155 65.5591 112.005 64.7297C104.005 62.6161 92.7189 62.0505 87.8878 53.9635Z" fill="white"/>
<path d="M145.141 81.9187C147.892 81.8919 150.634 81.6149 153.336 81.0908C156.379 80.5302 160.272 79.586 163.412 77.2793C166.552 74.9726 168.993 71.2296 170.503 66.5272C171.58 63.1684 172.471 58.2182 170.444 53.9628C169.393 51.8599 167.892 50.0253 166.05 48.5951C163.417 46.4228 160.391 44.797 157.145 43.8097C154.072 42.986 150.934 42.441 147.768 42.1811C142.852 41.6356 138.207 41.1167 134.159 38.6295C130.626 36.4575 128.046 32.9951 125.546 29.6467C123.177 26.4729 120.723 23.1916 117.453 20.9253C113.569 18.3168 108.859 17.3066 104.273 18.0985C103.225 18.3257 102.207 18.6831 101.244 19.1628C100.424 19.5546 99.565 19.8549 98.6819 20.0586C98.014 20.1546 97.3375 20.1711 96.6659 20.1078C95.3565 19.9168 94.0229 20.2011 92.8983 20.9109C91.1139 22.1644 89.6661 23.8536 88.687 25.8242C86.2918 30.3442 84.9682 35.373 84.822 40.5081C84.5709 46.015 85.4915 50.5805 87.6298 54.1441C91.5897 60.7344 99.6818 62.4115 106.838 63.8947C108.644 64.2689 110.344 64.6163 111.932 65.0377C114.772 65.7801 117.344 67.416 119.842 68.9981L120.501 69.434C121.161 69.8295 121.82 70.1981 122.512 70.56C123.798 71.1583 124.998 71.9319 126.079 72.8596C126.568 73.3691 127.01 73.9239 127.398 74.5169C127.857 75.2201 128.393 75.8684 128.994 76.4493C131.771 78.8871 135.118 80.5536 138.711 81.2876C140.826 81.7346 142.982 81.9463 145.141 81.9187ZM107.304 18.4848C110.792 18.4626 114.206 19.5019 117.111 21.4696C120.308 23.6621 122.723 26.9031 125.065 30.0367C127.599 33.432 130.218 36.9481 133.85 39.1738C138.01 41.7347 142.939 42.2802 147.689 42.8124C150.818 43.0644 153.919 43.6005 156.954 44.4143C160.127 45.385 163.083 46.9788 165.656 49.1059C167.425 50.4739 168.872 52.2275 169.891 54.2387C171.805 58.3062 170.961 63.0683 169.903 66.3264C168.432 70.9548 166.058 74.5702 163.036 76.7962C160.015 79.0222 156.181 79.9596 153.204 80.5134C147.658 81.5333 142.967 81.592 138.848 80.683C135.359 79.973 132.107 78.3573 129.409 75.9922C128.84 75.4409 128.334 74.8265 127.898 74.1605C127.486 73.5345 127.015 72.9503 126.493 72.416C125.372 71.4468 124.125 70.6392 122.788 70.0158C122.083 69.6472 121.424 69.2987 120.811 68.9165L120.112 68.4741C117.587 66.8717 114.976 65.2091 112.044 64.4533C110.436 64.032 108.749 63.6778 106.923 63.3037C99.8789 61.8539 91.9054 60.2036 88.1039 53.8414L87.8471 54.0029L88.1039 53.8414C86.0579 50.4053 85.144 45.9338 85.3887 40.5478C85.5281 35.5093 86.8249 30.5743 89.1749 26.1393C90.105 24.2571 91.4798 22.6402 93.1756 21.4344C94.1989 20.7991 95.4121 20.5595 96.5942 20.7592C97.3123 20.8208 98.0349 20.7997 98.7485 20.6965C99.6759 20.4887 100.577 20.1746 101.435 19.7602C102.35 19.3148 103.314 18.9823 104.307 18.7701C105.296 18.5892 106.299 18.4938 107.304 18.4848Z" fill="#231F20"/>
<path d="M61.0009 47.4116L64.4803 60.7044L56.1346 62.2309L51.3592 44.4738C51.3592 44.4738 58.7714 38.6773 59.9177 38.6358C61.064 38.5943 61.0009 47.4116 61.0009 47.4116Z" fill="white"/>
<path d="M56.1358 62.5665L56.1951 62.5665L64.5277 61.0601C64.5726 61.0525 64.6155 61.0352 64.6534 61.0094C64.6913 60.9836 64.7235 60.9499 64.7477 60.9105C64.7719 60.8712 64.7877 60.827 64.794 60.781C64.8003 60.735 64.7969 60.6881 64.7842 60.6435L61.3312 47.4111C61.3297 45.9875 61.3228 39.4602 60.3467 38.5009C60.2911 38.4408 60.2235 38.3935 60.1485 38.3623C60.0734 38.3311 59.9927 38.3167 59.9117 38.32C58.7324 38.3616 52.4261 43.2503 51.1687 44.2253C51.1171 44.2665 51.0784 44.3221 51.0574 44.3854C51.0364 44.4486 51.034 44.5167 51.0505 44.5814L55.8325 62.3385C55.8533 62.4041 55.8937 62.4614 55.9482 62.5023C56.0026 62.5432 56.0682 62.5657 56.1358 62.5665ZM64.0395 60.4563L56.3591 61.8477L51.7291 44.6008C55.2905 41.8303 59.2799 38.9922 59.9124 38.9714C60.3805 39.3268 60.675 43.6714 60.6526 47.432C60.649 47.461 60.649 47.4903 60.6527 47.5193L64.0395 60.4563Z" fill="#231F20"/>
<path d="M70.0092 38.703C70.0092 38.703 68.8328 41.3904 67.1335 41.8287C65.4342 42.267 61.7362 40.4107 61.3082 40.6529C60.8803 40.8951 51.1375 48.346 50.189 48.5687C49.2406 48.7913 47.4922 46.4494 46.7448 43.6633C46.7448 43.6633 56.2249 37.0588 56.8435 36.3598C57.462 35.6607 58.1955 31.483 59.1162 29.9509L70.0092 38.703Z" fill="white"/>
<path d="M50.0912 48.9267C50.1591 48.9332 50.2275 48.9331 50.2954 48.9265C50.8882 48.7782 53.9955 46.5252 59.1632 42.6719C60.3284 41.7976 61.3422 41.0512 61.4673 40.9705C61.5924 40.8897 62.2581 41.2114 62.7854 41.3988C64.1628 41.8608 66.0477 42.4967 67.1937 42.1866C69.0247 41.6877 70.2341 38.9802 70.2867 38.866C70.3183 38.7992 70.3264 38.7233 70.3095 38.6511C70.2926 38.5789 70.2519 38.5149 70.1941 38.4698L59.3209 29.7513C59.2837 29.7224 59.2412 29.7016 59.1959 29.6901C59.1505 29.6786 59.1034 29.6767 59.0573 29.6844C58.9656 29.704 58.8852 29.7595 58.8334 29.8391C58.263 31.0339 57.8225 32.2886 57.5197 33.581C57.3228 34.4864 57.0185 35.3639 56.6133 36.1942C56.179 36.6849 50.3725 40.8008 46.5739 43.4507C46.5165 43.4885 46.4726 43.5444 46.4489 43.6098C46.4252 43.6752 46.423 43.7466 46.4425 43.8135C47.1237 46.2571 48.8065 48.9281 50.0912 48.9267ZM61.4205 40.299C61.3268 40.2953 61.2338 40.3162 61.1504 40.3597C61.0121 40.4337 60.3209 40.9515 58.7739 42.1015C56.1407 44.045 50.7623 48.0799 50.1432 48.2484C49.5241 48.417 47.9541 46.5652 47.154 43.806C48.7538 42.6963 56.5222 37.2621 57.1144 36.5832C57.45 36.2068 57.7323 35.2395 58.1721 33.7079C58.4516 32.6014 58.8093 31.517 59.2426 30.4632L69.6015 38.7995C69.2793 39.4311 68.2863 41.1714 67.0546 41.4884C66.093 41.7446 64.2411 41.122 63.0218 40.7136C62.5081 40.5048 61.9697 40.3654 61.4205 40.299Z" fill="#231F20"/>
<path d="M59.6338 32.4563C59.7125 33.1661 59.5826 33.8838 59.2605 34.5183C58.7279 35.4926 56.3641 36.7911 56.3641 36.7911L54.7135 33.4352L57.9392 31.0545L59.6338 32.4563Z" fill="#231F20"/>
<path d="M56.3654 37.1272C56.4185 37.1275 56.4708 37.1136 56.5169 37.0868C56.7737 36.9522 58.986 35.7075 59.545 34.6795C59.9017 33.9817 60.0455 33.191 59.9576 32.4093C59.9475 32.3279 59.9074 32.2535 59.8454 32.2012L58.1507 30.7793C58.0925 30.7326 58.0205 30.7071 57.9464 30.7072C57.8723 30.7073 57.8004 30.7329 57.7422 30.7798L54.5231 33.1604C54.4606 33.2063 54.4158 33.2732 54.3967 33.3493C54.3775 33.4253 54.3851 33.5059 54.4181 33.5769L56.0687 36.9328C56.089 36.9729 56.1169 37.0083 56.1509 37.0372C56.1849 37.066 56.2242 37.0875 56.2666 37.1005C56.2974 37.1161 56.331 37.1252 56.3654 37.1272ZM59.3188 32.6383C59.3599 33.2331 59.2398 33.8279 58.9714 34.3578C58.6296 35.0297 57.2667 35.884 56.5029 36.3347L55.1362 33.5291L57.9274 31.4645L59.3188 32.6383Z" fill="#231F20"/>
<path d="M49.3145 41.883C49.3145 41.883 48.4485 39.1104 49.9702 38.9141C49.9837 38.67 50.0587 38.4335 50.188 38.2276C50.3172 38.0216 50.4963 37.853 50.708 37.7381C50.9198 37.6232 51.1569 37.5658 51.3967 37.5714C51.6365 37.577 51.8709 37.6455 52.0772 37.7702C52.0772 37.7702 52.5625 35.7081 54.1573 36.1228C55.7521 36.5375 57.0212 40.4243 56.7982 41.405C56.5752 42.3857 55.336 41.7893 54.7092 40.87C54.7092 40.87 55.5211 42.4002 54.9813 42.8037C54.1913 43.3955 53.3601 42.3488 52.6873 41.5839C52.6873 41.5839 53.684 43.3759 52.2216 43.5386C51.0952 43.6674 50.0452 41.3517 50.0452 41.3517L49.3145 41.883Z" fill="white"/>
<path d="M52.1613 43.8818L52.2865 43.8817C52.5754 43.8814 52.8525 43.7646 53.0572 43.5567C53.2618 43.3489 53.3775 43.067 53.379 42.7725C53.9263 43.2621 54.5591 43.5704 55.2108 43.0795C55.3521 42.9496 55.4547 42.7818 55.5069 42.5953C55.5592 42.4089 55.5589 42.2112 55.5062 42.0248C55.7909 42.2061 56.1292 42.2794 56.4617 42.232C56.6385 42.196 56.8001 42.1049 56.9239 41.9712C57.0477 41.8375 57.1276 41.6679 57.1527 41.4859C57.3952 40.3507 56.0799 36.2826 54.261 35.8077C54.0353 35.7392 53.798 35.7195 53.5643 35.7498C53.3307 35.7801 53.1058 35.8598 52.9041 35.9837C52.4361 36.312 52.0815 36.7824 51.8909 37.3279C51.6774 37.249 51.4504 37.2156 51.2237 37.2297C50.9971 37.2438 50.7758 37.3051 50.5733 37.4098C50.1506 37.6908 49.8493 38.126 49.7313 38.6262C49.4449 38.7111 49.1989 38.9001 49.0401 39.1575C48.4547 40.0915 48.9638 41.79 49.0431 41.9846C49.0571 42.0349 49.0831 42.0808 49.1188 42.1182C49.1545 42.1557 49.1987 42.1836 49.2475 42.1993C49.2967 42.2163 49.349 42.2215 49.4004 42.2145C49.4519 42.2074 49.501 42.1884 49.544 42.1587L49.9916 41.8426C50.3086 42.5272 51.1533 43.8829 52.1613 43.8818ZM52.7185 41.2488C52.647 41.2473 52.5772 41.2711 52.521 41.3162C52.457 41.3657 52.4125 41.437 52.3957 41.5171C52.3788 41.5972 52.3907 41.6808 52.4292 41.7527C52.5744 42.0145 52.8254 42.6589 52.6676 42.9747C52.6677 43.0217 52.5756 43.1695 52.2133 43.2102C51.5546 43.2848 50.6834 41.8687 50.3731 41.1975C50.3525 41.1539 50.323 41.1151 50.2866 41.0839C50.2503 41.0527 50.2078 41.0297 50.1621 41.0164C50.1155 41.0021 50.0663 40.9989 50.0183 41.0071C49.9703 41.0153 49.9248 41.0347 49.8854 41.0637L49.5167 41.326C49.3384 40.7295 49.3586 40.0897 49.5741 39.5061C49.6248 39.429 49.6921 39.3647 49.7708 39.3181C49.8495 39.2715 49.9376 39.2438 50.0284 39.237C50.0998 39.2262 50.1658 39.1922 50.2168 39.1402C50.2678 39.0881 50.3009 39.0207 50.3114 38.9479C50.3681 38.5641 50.5714 38.2187 50.877 37.987C51.0522 37.9154 51.2412 37.8853 51.4295 37.8991C51.6179 37.9128 51.8007 37.9701 51.9641 38.0665C52.0076 38.0865 52.0548 38.0968 52.1025 38.0967C52.1502 38.0967 52.1974 38.0863 52.2408 38.0662C52.2841 38.0441 52.3224 38.0129 52.353 37.9747C52.3836 37.9365 52.4059 37.8921 52.4185 37.8444C52.5427 37.3271 52.8348 36.8677 53.2472 36.5407C53.3748 36.4661 53.5161 36.4191 53.6624 36.4028C53.8086 36.3864 53.9566 36.4011 54.097 36.4458C55.5007 36.807 56.6838 40.4723 56.5069 41.3254C56.461 41.5336 56.3753 41.5538 56.3292 41.5606C56.0576 41.5233 55.7978 41.4237 55.5694 41.2692C55.341 41.1147 55.1499 40.9095 55.0106 40.6688C54.9625 40.599 54.8901 40.5504 54.808 40.533C54.726 40.5156 54.6406 40.5307 54.5691 40.5753C54.499 40.6211 54.4481 40.6919 54.4263 40.7738C54.4045 40.8557 54.4133 40.943 54.451 41.0186C54.7877 41.6898 54.9729 42.4149 54.8215 42.5292C54.3607 42.8722 53.8133 42.3221 53.1009 41.517L52.9624 41.356C52.931 41.3222 52.8932 41.2952 52.8513 41.2768C52.8094 41.2583 52.7642 41.2488 52.7185 41.2488Z" fill="#231F20"/>
<path d="M56.3488 33.5544C56.3488 33.5544 57.2497 31.9552 58.1999 33.3577C59.15 34.7602 60.2926 37.3847 58.7117 37.6684C57.1308 37.9521 55.9418 34.9449 56.3488 33.5544Z" fill="white"/>
<path d="M58.5068 38.0129C58.5923 38.0195 58.6782 38.0194 58.7637 38.0126C58.9704 37.987 59.1667 37.9064 59.3331 37.7789C59.4995 37.6515 59.6301 37.4816 59.7117 37.2864C60.1716 36.1644 59.1484 34.171 58.4687 33.1779C58.3555 32.9661 58.1903 32.7881 57.9892 32.6611C57.7881 32.5342 57.558 32.4627 57.3216 32.4538C56.597 32.4881 56.1169 33.3079 56.0643 33.3953L56.0314 33.4692C55.9233 34.1394 55.959 34.8255 56.1359 35.4803C56.3129 36.1351 56.627 36.7431 57.0566 37.2623C57.2322 37.4851 57.4524 37.6673 57.7024 37.7967C57.9525 37.9261 58.2267 37.9998 58.5068 38.0129ZM57.3684 33.1052C57.5858 33.1049 57.7969 33.3397 57.9289 33.5343C58.7273 34.7087 59.3812 36.3264 59.1052 37.005C59.0663 37.095 59.004 37.1726 58.9252 37.2295C58.8464 37.2863 58.7539 37.3203 58.6576 37.3278C58.4442 37.3415 58.2309 37.3002 58.0373 37.2077C57.8438 37.1152 57.6762 36.9744 57.5502 36.7984C57.1989 36.3686 56.9383 35.8695 56.7847 35.3324C56.6311 34.7953 56.5878 34.2316 56.6575 33.6767C56.7627 33.502 57.0588 33.1189 57.3552 33.1052L57.3684 33.1052Z" fill="#231F20"/>
<path d="M61.0078 48.3112C61.0078 48.3112 62.0434 43.24 62.1413 42.3333C62.3043 40.7953 61.9461 38.3916 60.6214 38.0169C59.2968 37.6423 56.2658 37.2895 56.768 38.6455C57.2239 39.8807 59.8792 40.1129 59.8792 40.1129C59.8792 40.1129 58.0496 41.9951 58.3283 43.8684" fill="white"/>
<path d="M61.0087 48.647C61.0837 48.6473 61.1565 48.6214 61.2152 48.5738C61.2738 48.5261 61.3148 48.4594 61.3312 48.3848C61.3705 48.1766 62.3668 43.28 62.4646 42.3397C62.6342 40.7682 62.302 38.1159 60.7072 37.6408C59.8768 37.4067 57.3398 36.9258 56.5962 37.7526C56.484 37.8803 56.4111 38.0388 56.3867 38.2084C56.3623 38.378 56.3874 38.5512 56.4589 38.7063C56.8355 39.7401 58.3512 40.1482 59.2276 40.3084C58.675 41.0208 57.787 42.4253 58.006 43.8621C58.0125 43.9062 58.0275 43.9486 58.0501 43.9867C58.0727 44.0249 58.1024 44.0582 58.1376 44.0847C58.1728 44.1111 58.2128 44.1303 58.2553 44.141C58.2977 44.1517 58.3418 44.1538 58.3851 44.1471C58.4283 44.1405 58.4699 44.1252 58.5074 44.1022C58.5448 44.0791 58.5774 44.0488 58.6034 44.0129C58.6294 43.9771 58.6481 43.9363 58.6586 43.893C58.6692 43.8498 58.6712 43.8048 58.6647 43.7607C58.4126 42.0754 60.1039 40.3075 60.117 40.294C60.1611 40.2479 60.1917 40.1902 60.2056 40.1273C60.2195 40.0645 60.2161 39.999 60.1957 39.938C60.1733 39.8785 60.1347 39.8267 60.0845 39.7887C60.0343 39.7507 59.9746 39.7281 59.9122 39.7234C59.2533 39.6637 57.3951 39.3232 57.0845 38.4706C57.0119 38.2894 57.0843 38.2356 57.0843 38.2087C57.433 37.8122 59.2581 37.9311 60.5366 38.2857C61.6108 38.5868 61.9688 40.7756 61.8123 42.2397C61.7144 43.1195 60.6919 48.1437 60.6853 48.1907C60.6758 48.234 60.675 48.2788 60.6828 48.3224C60.6907 48.3661 60.7072 48.4076 60.7312 48.4446C60.7553 48.4816 60.7864 48.5133 60.8227 48.5377C60.8591 48.5621 60.8999 48.5787 60.9427 48.5867L61.0087 48.647Z" fill="#231F20"/>
<path d="M41.5342 29.1049C41.5342 29.1049 52.509 27.9853 56.9918 30.6264C58.1184 31.3104 59.1978 32.0721 60.2224 32.9063C62.6555 34.8444 64.9439 37.0447 66.724 38.2717C70.2579 40.6855 73.6711 41.1721 75.9927 37.3218C77.9657 34.0359 76.8111 32.4791 74.1332 29.5608C72.814 28.1184 70.0181 25.7373 67.6107 23.1007C66.1877 21.6351 64.9868 19.9615 64.0478 18.1351C62.014 13.7857 62.5802 7.11671 62.5802 7.11671L41.5342 29.1049Z" fill="white"/>
<path d="M71.6601 40.4758C72.0146 40.4788 72.3683 40.4401 72.7141 40.3605C73.4679 40.1618 74.173 39.8059 74.7849 39.3151C75.3968 38.8244 75.902 38.2095 76.2687 37.5094C78.393 33.9883 77.0802 32.2907 74.3759 29.3388C73.8087 28.7216 72.9909 27.9435 72.0412 27.0513C70.7223 25.8036 69.2384 24.3681 67.8467 22.8788C66.4457 21.4408 65.2646 19.7963 64.3432 18.0004C62.3623 13.7718 62.9022 7.19014 62.9087 7.12298C62.9139 7.05387 62.8983 6.9848 62.8641 6.92489C62.83 6.86498 62.7788 6.81704 62.7173 6.78741C62.6551 6.75739 62.5852 6.74841 62.5176 6.76177C62.4501 6.77513 62.3885 6.81013 62.3419 6.86168L41.2827 28.87C41.2367 28.9193 41.2064 28.9816 41.1959 29.0488C41.1853 29.1159 41.1951 29.1848 41.2238 29.2462C41.253 29.3087 41.3001 29.3608 41.359 29.3955C41.4178 29.4302 41.4856 29.4459 41.5534 29.4405C41.6654 29.4404 52.4756 28.3613 56.8133 30.9287C57.9265 31.6042 58.9927 32.357 60.0044 33.1817C61.0001 33.9798 61.9826 34.8115 62.8992 35.6096C64.0574 36.6521 65.2679 37.6326 66.5258 38.5471C68.4378 39.8345 70.1514 40.4774 71.6601 40.4758ZM62.1981 7.96987C62.1211 9.98456 62.1328 14.8062 63.744 18.2898C64.699 20.1457 65.9198 21.8464 67.3663 23.3359C68.7712 24.8723 70.2682 26.2876 71.5938 27.542C72.5302 28.4275 73.348 29.1989 73.8954 29.796C76.5337 32.6472 77.5893 34.0429 75.7084 37.181C75.3859 37.8031 74.9414 38.351 74.4023 38.7906C73.8633 39.2301 73.2413 39.552 72.5751 39.7361C71.0075 40.087 69.1028 39.5047 66.9074 38.0095C65.6685 37.114 64.4777 36.1513 63.3401 35.1257C62.3971 34.3208 61.4278 33.4824 60.4255 32.6843C59.38 31.8371 58.2785 31.0642 57.129 30.371C53.312 28.1119 45.0903 28.5101 42.363 28.7212L62.1981 7.96987Z" fill="#231F20"/>
<path d="M59.6356 32.4571C62.0687 34.3953 65.0098 36.9642 66.7241 38.2651C70.6406 41.2426 73.1181 41.5556 75.6705 37.8662C78.3018 34.076 76.8112 32.4927 74.1333 29.5676C72.8141 28.1252 70.0182 25.7442 67.6107 23.1076C67.6107 23.1076 67.4621 25.8543 64.7842 29.2081C63.4695 30.8438 61.6581 31.9868 59.6356 32.4571Z" fill="#231F20"/>
<path d="M71.687 40.8983C71.89 40.8996 72.0927 40.8837 72.2931 40.8506C73.6105 40.641 74.7691 39.7534 75.94 38.0599C78.7095 34.0613 77.0869 32.2969 74.409 29.3718C73.8087 28.7009 72.991 27.9429 72.0414 27.0508C70.7224 25.8031 69.2385 24.3676 67.8469 22.8782C67.8042 22.8293 67.7479 22.7948 67.6855 22.7793C67.6231 22.7637 67.5576 22.7679 67.4976 22.7913C67.437 22.8136 67.3842 22.8534 67.3456 22.906C67.307 22.9585 67.2844 23.0215 67.2805 23.087C67.2805 23.087 67.0923 25.7734 64.5262 28.9927C63.2581 30.5631 61.5183 31.6646 59.5752 32.1273C59.513 32.1399 59.4555 32.1698 59.409 32.2137C59.3626 32.2576 59.3289 32.3138 59.3119 32.3761C59.2992 32.4398 59.3036 32.5058 59.3245 32.5672C59.3454 32.6286 59.3822 32.6832 59.4309 32.7251C60.5518 33.6171 61.7717 34.6365 62.9586 35.6225C64.317 36.7559 65.5963 37.829 66.5259 38.5332C68.6293 40.1494 70.2771 40.8997 71.687 40.8983ZM67.8347 23.8385C69.0945 25.1803 70.4134 26.428 71.5939 27.5415C72.5304 28.4269 73.3481 29.1983 73.8956 29.7954C76.5339 32.687 77.853 34.1159 75.3994 37.671C74.3403 39.2032 73.32 40.0034 72.1936 40.1859C70.83 40.4022 69.2086 39.7324 66.9207 37.9955C66.0042 37.325 64.7249 36.2317 63.3732 35.1049C62.3709 34.2666 61.3422 33.4081 60.3663 32.6167C62.1984 32.0392 63.8237 30.926 65.0406 29.4153C66.39 27.8067 67.3474 25.8959 67.8347 23.8385Z" fill="#231F20"/>
<path d="M38.4882 28.1602C40.948 30.4073 46.3945 28.5279 51.6932 23.9492C53.0511 22.7779 54.3266 21.511 55.5104 20.1577C56.6738 18.8295 57.7466 17.4215 58.721 15.9437C62.6677 10.0166 63.8936 4.28039 61.4141 2.01992C58.3542 -0.777172 50.7288 2.80345 44.392 10.0224C38.0551 17.2414 35.4152 25.3564 38.4882 28.1602Z" fill="#FEC600"/>
<path d="M58.6525 1.07734C54.917 1.08128 49.2811 4.4852 44.4116 10.0305C38.0682 17.2495 35.4151 25.3645 38.5013 28.1683C39.2788 28.8293 40.2714 29.1686 41.2826 29.1189C44.0694 29.116 47.9083 27.2249 51.7063 23.9572C53.0642 22.786 54.3397 21.5191 55.5235 20.1657C56.6826 18.835 57.7509 17.4248 58.7209 15.9451C62.6676 10.018 63.8935 4.28177 61.414 2.0213C60.6404 1.36807 59.6561 1.03159 58.6525 1.07734ZM58.6518 0.405804C59.8268 0.353188 60.9779 0.754933 61.8746 1.53059C64.5586 3.97888 63.5174 9.92308 59.2879 16.3072C57.2761 19.3419 54.8724 22.0866 52.1416 24.4672C48.1923 27.829 44.2414 29.7806 41.2964 29.7837C40.109 29.8358 38.9468 29.4239 38.0472 28.6321C36.3524 27.0894 36.0661 24.2021 37.2942 20.5073C38.7724 16.4452 41.023 12.7207 43.917 9.54754C48.826 4.00889 54.5935 0.410081 58.6518 0.405804Z" fill="#231F20"/>
<path d="M47.3061 18.3682L51.6932 23.9508C53.0511 22.7795 54.3266 21.5126 55.5104 20.1593C56.6738 18.8311 57.7465 17.4231 58.721 15.9453L52.3789 11.9832L47.3061 18.3682Z" fill="white"/>
<path d="M47.2993 18.3761C46.4973 17.706 46.9914 15.7398 48.403 13.9844C49.8146 12.2289 51.6091 11.3491 52.4111 12.0191C53.2131 12.6892 52.719 14.6555 51.3074 16.4109C49.8958 18.1663 48.1013 19.0462 47.2993 18.3761Z" fill="#231F20"/>
<path d="M47.9786 18.9169C49.0129 18.9158 50.4087 18.0615 51.5733 16.6097C52.2366 15.813 52.7293 14.8838 53.0198 13.8817C53.2626 12.9145 53.1234 12.1558 52.6289 11.7467C52.1343 11.3375 51.3833 11.345 50.5009 11.7489C49.5953 12.2435 48.8033 12.9288 48.1774 13.7592C46.6246 15.6882 46.1591 17.8242 47.1152 18.629C47.3632 18.8208 47.6673 18.9222 47.9786 18.9169ZM51.7333 12.1169C51.9056 12.1072 52.0758 12.1593 52.2144 12.2642C52.4913 12.4989 52.5512 13.0294 52.3806 13.7145C52.1184 14.6241 51.6702 15.4668 51.0656 16.1872C49.6838 17.9078 48.0902 18.581 47.5231 18.1048C46.956 17.6286 47.2902 15.9024 48.6719 14.1818C49.2535 13.4352 49.9823 12.8214 50.8112 12.3798C51.0971 12.2274 51.4112 12.1378 51.7333 12.1169Z" fill="#231F20"/>
<path d="M52.7199 41.9209C52.7781 41.9212 52.8351 41.9049 52.8846 41.8737C52.9222 41.8521 52.9553 41.823 52.9817 41.7881C53.0081 41.7533 53.0274 41.7134 53.0384 41.6708C53.0495 41.6282 53.052 41.5838 53.0458 41.5401C53.0397 41.4965 53.025 41.4546 53.0027 41.4169C52.5927 40.7341 52.0858 40.1169 51.4986 39.5852C51.4667 39.5509 51.428 39.5238 51.3851 39.5058C51.3422 39.4877 51.2961 39.4791 51.2497 39.4805C51.2033 39.482 51.1578 39.4933 51.116 39.514C51.0742 39.5346 51.0372 39.5639 51.0074 39.6002C50.9775 39.6364 50.9555 39.6786 50.9428 39.7241C50.93 39.7696 50.9269 39.8173 50.9335 39.8641C50.9401 39.9109 50.9564 39.9558 50.9812 39.9957C51.006 40.0357 51.0388 40.0699 51.0775 40.096C51.5899 40.5866 52.0338 41.1465 52.3969 41.76C52.4303 41.8153 52.4784 41.8597 52.5356 41.8882C52.5927 41.9167 52.6567 41.928 52.7199 41.9209Z" fill="#231F20"/>
<path d="M54.7414 41.204L54.7941 41.2039C54.8365 41.1951 54.8767 41.1778 54.9126 41.1531C54.9484 41.1283 54.9791 41.0967 55.0029 41.0599C55.0268 41.023 55.0432 40.9818 55.0514 40.9385C55.0596 40.8952 55.0593 40.8506 55.0506 40.8074C54.8116 39.8493 54.2542 39.0051 53.4735 38.4184C53.4036 38.3651 53.3157 38.3422 53.2292 38.3549C53.1427 38.3676 53.0647 38.4148 53.0124 38.4861C52.96 38.5574 52.9376 38.6469 52.9501 38.7351C52.9625 38.8232 53.0088 38.9027 53.0788 38.9561C53.7247 39.4458 54.1896 40.1433 54.3985 40.9357C54.4156 41.0144 54.4593 41.0844 54.522 41.1335C54.5847 41.1826 54.6624 41.2075 54.7414 41.204Z" fill="#231F20"/>
<path d="M50.077 41.6881C50.1432 41.6885 50.2078 41.6673 50.2614 41.6275C50.297 41.602 50.3273 41.5696 50.3505 41.5321C50.3737 41.4946 50.3895 41.4528 50.3968 41.4091C50.4041 41.3654 50.4028 41.3206 50.3931 41.2774C50.3833 41.2342 50.3652 41.1934 50.3399 41.1573L49.8912 40.4863C49.8386 40.4158 49.7617 40.3683 49.6761 40.3534C49.5905 40.3386 49.5025 40.3574 49.43 40.4062C49.3595 40.4587 49.3119 40.5372 49.2972 40.625C49.2825 40.7128 49.302 40.8029 49.3514 40.8763L49.8067 41.5474C49.8365 41.5921 49.8769 41.6284 49.9242 41.6529C49.9714 41.6775 50.0239 41.6896 50.077 41.6881Z" fill="#231F20"/>
<path d="M70.869 40.2202C70.9404 40.2206 71.0099 40.1969 71.0666 40.1528C73.9762 37.8934 75.7785 35.1516 76.1314 32.4382L76.1313 32.3643C76.152 32.2931 76.149 32.217 76.1227 32.1478C76.0964 32.0785 76.0483 32.0201 75.986 31.9817C75.9495 31.9574 75.9085 31.9409 75.8656 31.9331C75.8226 31.9254 75.7786 31.9266 75.7361 31.9367C75.6937 31.9468 75.6536 31.9655 75.6185 31.9918C75.5833 32.0181 75.5537 32.0514 75.5315 32.0896C75.4925 32.1715 75.4701 32.2606 75.4659 32.3516C75.1326 34.8904 73.429 37.4709 70.651 39.616C70.5952 39.6587 70.5542 39.7183 70.5338 39.7862C70.5134 39.8542 70.5147 39.927 70.5375 39.9942C70.5603 40.0613 70.6034 40.1194 70.6606 40.16C70.7178 40.2006 70.7862 40.2217 70.8559 40.2202L70.869 40.2202Z" fill="white"/>
<path d="M72.4846 29.5011C72.5299 29.5004 72.5745 29.4898 72.6154 29.4701C72.6562 29.4503 72.6925 29.4219 72.7217 29.3866C72.7523 29.356 72.7767 29.3194 72.7933 29.279C72.8099 29.2386 72.8184 29.1953 72.8183 29.1515C72.8183 29.1077 72.8097 29.0644 72.793 29.0241C72.7763 28.9837 72.7519 28.9472 72.7212 28.9166L69.1732 25.5626C69.1436 25.5305 69.1078 25.505 69.0682 25.4875C69.0285 25.4701 68.9857 25.4611 68.9425 25.4611C68.8993 25.4612 68.8565 25.4702 68.8169 25.4878C68.7773 25.5053 68.7416 25.531 68.712 25.5631C68.6814 25.5938 68.657 25.6304 68.6404 25.6707C68.6239 25.7111 68.6153 25.7545 68.6154 25.7982C68.6154 25.842 68.624 25.8854 68.6407 25.9257C68.6574 25.966 68.6818 26.0026 68.7125 26.0332L72.2605 29.3871C72.2883 29.4207 72.3225 29.4481 72.361 29.4677C72.3996 29.4873 72.4416 29.4986 72.4846 29.5011Z" fill="white"/>
<path d="M71.9978 30.3078C72.0896 30.3053 72.1769 30.2667 72.2414 30.2001C72.3021 30.1361 72.336 30.0506 72.3359 29.9616C72.3358 29.8726 72.3017 29.7871 72.2409 29.7233L68.6929 26.3693C68.6313 26.3079 68.5484 26.2735 68.4622 26.2736C68.376 26.2737 68.2932 26.3082 68.2317 26.3698C68.2009 26.4011 68.1764 26.4382 68.1597 26.4792C68.143 26.5201 68.1345 26.564 68.1345 26.6083C68.1346 26.6527 68.1432 26.6965 68.16 26.7374C68.1768 26.7783 68.2013 26.8154 68.2322 26.8466L71.7736 30.2006C71.833 30.263 71.9127 30.3012 71.9978 30.3078Z" fill="white"/>
<path d="M71.4397 31.2346C71.4846 31.2356 71.5291 31.2265 71.5701 31.2079C71.6111 31.1893 71.6476 31.1616 71.6768 31.1269C71.7074 31.0962 71.7318 31.0596 71.7483 31.0192C71.7649 30.9789 71.7735 30.9355 71.7734 30.8917C71.7734 30.848 71.7648 30.8046 71.7481 30.7643C71.7314 30.724 71.707 30.6874 71.6763 30.6568L68.1283 27.3029C68.0987 27.2708 68.0629 27.2452 68.0232 27.2277C67.9836 27.2103 67.9408 27.2013 67.8976 27.2013C67.8544 27.2014 67.8116 27.2105 67.772 27.228C67.7323 27.2456 67.6966 27.2712 67.6671 27.3033C67.6365 27.334 67.6121 27.3706 67.5955 27.411C67.5789 27.4514 67.5704 27.4947 67.5705 27.5385C67.5705 27.5823 67.5791 27.6256 67.5958 27.6659C67.6125 27.7063 67.6369 27.7428 67.6676 27.7734L71.2156 31.1274C71.2437 31.16 71.2781 31.1863 71.3167 31.2048C71.3552 31.2232 71.3971 31.2334 71.4397 31.2346Z" fill="white"/>
<path d="M130.128 82.9686L131.821 120.183C131.821 120.183 109.257 120.483 96.2724 114.969C95.205 111.423 93.9162 107.95 92.4139 104.571C90.5057 100.652 82.3237 94.8783 84.8773 79.8601C84.8773 79.8601 65.6264 92.3038 60.1917 86.6015C54.7569 80.8991 52.0145 54.2419 52.0145 54.2419L63.2897 50.5366L68.4326 66.9704C68.4326 66.9704 100.922 50.9066 108.496 48.8705C111.309 48.1155 120.056 52.8473 130.084 59.3976" fill="#FEC600"/>
<path d="M109.207 60.0312C109.207 60.0312 104 76.5834 103.111 83.5885C102.223 90.5936 102.103 102.171 102.103 102.171C102.103 102.171 93.8078 76.3659 94.8122 60.4225L109.207 60.0312Z" fill="#231F20"/>
<path d="M102.104 102.474L102.143 102.474C102.212 102.464 102.275 102.43 102.321 102.377C102.367 102.324 102.392 102.256 102.393 102.185C102.393 102.071 102.526 90.5404 103.401 83.6361C104.277 76.7317 109.431 60.2938 109.484 60.1258C109.497 60.0807 109.5 60.0331 109.492 59.9867C109.484 59.9403 109.465 59.8964 109.438 59.8586C109.41 59.8208 109.374 59.7901 109.333 59.7689C109.292 59.7477 109.246 59.7367 109.2 59.7366L94.8119 60.1279C94.739 60.1279 94.6689 60.1565 94.6162 60.2078C94.5634 60.2592 94.5322 60.3293 94.5289 60.4035C93.5244 76.2193 101.741 102.031 101.82 102.266C101.839 102.328 101.876 102.381 101.928 102.419C101.979 102.456 102.041 102.476 102.104 102.474ZM108.806 60.3414C108.011 62.9076 103.625 77.2025 102.822 83.5494C102.168 88.8284 101.92 96.7864 101.844 100.339C100.039 94.2969 94.339 74.0426 95.0892 60.7252L108.806 60.3414Z" fill="#231F20"/>
<path d="M135.611 139.936L73.3461 140.002L96.2534 114.969L131.802 120.183C131.802 120.183 136.069 129.997 135.674 136.887C135.649 137.7 135.63 138.741 135.611 139.936Z" fill="#231F20"/>
<path d="M73.3464 140.338L135.612 140.272C135.655 140.273 135.697 140.265 135.737 140.249C135.777 140.233 135.813 140.209 135.844 140.178C135.875 140.147 135.899 140.111 135.916 140.07C135.932 140.03 135.941 139.987 135.941 139.943C135.94 138.815 135.978 137.734 136.023 136.907C136.418 130.01 132.303 120.452 132.125 120.043C132.101 119.992 132.066 119.948 132.023 119.914C131.979 119.88 131.928 119.858 131.874 119.848L96.2924 114.634C96.2392 114.628 96.1853 114.634 96.135 114.653C96.0847 114.672 96.0393 114.702 96.0027 114.742L73.0954 139.774C73.0517 139.822 73.0228 139.882 73.0123 139.947C73.0017 140.012 73.0099 140.078 73.0359 140.138C73.0618 140.198 73.1045 140.249 73.1585 140.284C73.2125 140.32 73.2755 140.338 73.3398 140.338L73.3464 140.338ZM135.275 139.601L74.1099 139.666L96.3788 115.326L131.579 120.486C132.14 121.829 135.714 130.629 135.351 136.868C135.319 137.627 135.274 138.587 135.275 139.601Z" fill="#231F20"/>
<path d="M96.5945 51.1476L94.8189 60.4234C94.8189 60.4234 94.7784 65.7957 100.615 65.2725C102.34 65.1056 104.006 64.5486 105.492 63.642C106.979 62.7355 108.248 61.5022 109.207 60.0321L111.555 43.8322C111.349 40.8831 111.581 37.9192 112.244 35.041C105.529 33.6311 101.188 27.4374 101.188 27.4374C101.188 27.4374 98.2198 30.5296 97.0086 31.4711C96.034 32.1532 95.1492 32.9598 94.3758 33.8712C93.106 35.4775 92.7328 37.7209 92.4055 39.7023C91.9934 42.054 91.7909 44.4389 91.8003 46.8279C91.9105 51.3607 96.5945 51.1476 96.5945 51.1476Z" fill="white"/>
<path d="M99.8572 65.6145C100.108 65.6143 100.371 65.614 100.641 65.6137C102.414 65.4491 104.127 64.8798 105.654 63.9482C107.182 63.0166 108.484 61.7465 109.464 60.2321C109.483 60.1963 109.496 60.1578 109.503 60.1179C109.503 60.1179 111.845 43.9985 111.851 43.9179C111.877 43.6477 111.877 43.3755 111.85 43.1054C111.695 40.4301 111.927 37.7462 112.54 35.1402C112.55 35.1015 112.552 35.061 112.545 35.0216C112.538 34.9821 112.523 34.9447 112.501 34.9119C112.479 34.8778 112.451 34.8485 112.418 34.8255C112.385 34.8024 112.348 34.7862 112.309 34.7778C105.792 33.4416 101.484 27.3553 101.444 27.2949C101.418 27.2586 101.384 27.2284 101.346 27.2064C101.307 27.1845 101.264 27.1712 101.22 27.1675C101.176 27.1633 101.132 27.1696 101.09 27.186C101.049 27.2024 101.012 27.2283 100.983 27.2618C100.95 27.2618 98.0148 30.3473 96.8299 31.2551C95.8547 31.9546 94.9702 32.7768 94.1972 33.7023C92.8813 35.3959 92.4819 37.7333 92.1677 39.6744C91.751 42.0437 91.5462 44.4467 91.556 46.8538C91.5394 47.4676 91.6483 48.0781 91.8757 48.6467C92.1032 49.2153 92.4442 49.7294 92.8771 50.1564C93.8316 50.983 95.0329 51.4552 96.2847 51.4958L94.5745 60.409C94.5843 61.8889 95.1629 63.3059 96.1862 64.3559C97.2088 65.2351 98.5212 65.6851 99.8572 65.6145ZM108.917 59.9238C107.975 61.3342 106.741 62.5169 105.302 63.3886C103.863 64.2603 102.254 64.7998 100.588 64.9691C98.8487 65.1186 97.4911 64.7507 96.5481 63.8653C95.6635 62.9419 95.1539 61.7119 95.1214 60.4218L96.8905 51.2064C96.8979 51.1605 96.8958 51.1135 96.8844 51.0684C96.873 51.0234 96.8525 50.9812 96.8243 50.9446C96.7954 50.9078 96.758 50.8788 96.7155 50.8601C96.673 50.8414 96.6266 50.8336 96.5804 50.8374C95.3636 50.8628 94.1773 50.4476 93.2324 49.6658C92.8669 49.291 92.5805 48.844 92.3908 48.3522C92.2011 47.8604 92.112 47.3343 92.1291 46.8062C92.1206 44.435 92.3232 42.068 92.7344 39.7342C93.0552 37.8066 93.3889 35.6103 94.639 34.051C95.3885 33.1635 96.2443 32.3752 97.1862 31.7047C98.2131 30.9179 100.418 28.6726 101.135 27.9063C102.079 29.1477 106.03 33.945 111.862 35.2819C111.276 37.8443 111.057 40.4796 111.211 43.106C111.229 43.3295 111.23 43.5541 111.212 43.7776C111.212 43.7776 111.239 43.9454 108.917 59.9238Z" fill="#231F20"/>
<path d="M95.8018 55.7142C95.8018 55.7142 99.4658 56.59 102.31 54.5388C105.154 52.4876 105.27 49.8887 105.27 49.8887C105.27 49.8887 100.765 51.8476 96.5941 51.1469L95.8018 55.7142Z" fill="#231F20"/>
<path d="M97.721 56.2044C99.4118 56.2397 101.072 55.7432 102.476 54.7824C105.406 52.6707 105.535 50.0516 105.535 49.9038C105.539 49.8537 105.529 49.8034 105.507 49.7585C105.485 49.7135 105.451 49.6756 105.409 49.6488C105.37 49.6188 105.324 49.5999 105.275 49.594C105.227 49.5882 105.177 49.5956 105.132 49.6155C105.086 49.6156 100.648 51.5341 96.6151 50.8534C96.5401 50.8418 96.4636 50.8607 96.402 50.9059C96.3405 50.9512 96.2988 51.0193 96.286 51.0955L95.487 55.6628C95.4734 55.7384 95.4892 55.8164 95.5311 55.8803C95.573 55.9442 95.6377 55.9889 95.7114 56.005C96.3719 56.1478 97.0459 56.2147 97.721 56.2044ZM104.876 50.3545C104.467 51.9715 103.485 53.3768 102.12 54.2993C99.8487 55.9403 96.9891 55.6478 96.1127 55.4808L96.8069 51.4844C100.2 51.9577 103.651 50.8258 104.876 50.3545Z" fill="#231F20"/>
<path d="M101.439 35.3281C101.439 35.3281 97.6817 39.227 98.2361 40.133C98.7904 41.039 100.833 40.9092 100.833 40.9092" fill="white"/>
<path d="M100.518 41.2111L100.854 41.2108C100.892 41.2082 100.93 41.1979 100.964 41.1806C100.998 41.1633 101.028 41.1393 101.053 41.11C101.079 41.0806 101.098 41.0465 101.11 41.0096C101.122 40.9727 101.127 40.9337 101.124 40.8949C101.119 40.8159 101.083 40.7421 101.025 40.6895C100.968 40.6368 100.892 40.6094 100.814 40.6132C100.294 40.6137 98.8376 40.6152 98.4811 39.9844C98.2567 39.6085 99.7303 37.5319 101.645 35.5422C101.672 35.5144 101.693 35.4814 101.708 35.4453C101.722 35.4092 101.729 35.3705 101.729 35.3315C101.728 35.2925 101.721 35.254 101.706 35.2182C101.691 35.1823 101.669 35.1498 101.642 35.1225C101.614 35.0951 101.582 35.0736 101.547 35.059C101.511 35.0444 101.473 35.0371 101.435 35.0374C101.397 35.0378 101.359 35.0458 101.324 35.061C101.289 35.0763 101.257 35.0984 101.23 35.1262C100.052 36.3497 97.3802 39.3006 97.9874 40.3005C98.4889 41.1125 99.866 41.2118 100.518 41.2111Z" fill="#231F20"/>
<path d="M96.238 37.4518C95.9614 37.387 95.8337 36.9066 95.9528 36.3789C96.0718 35.8512 96.3925 35.476 96.6691 35.5408C96.9457 35.6056 97.0734 36.086 96.9544 36.6137C96.8354 37.1414 96.5146 37.5167 96.238 37.4518Z" fill="#231F20"/>
<path d="M104.633 38.3112C104.356 38.2464 104.228 37.766 104.347 37.2383C104.466 36.7106 104.787 36.3354 105.064 36.4002C105.34 36.465 105.468 36.9454 105.349 37.4731C105.23 38.0008 104.909 38.376 104.633 38.3112Z" fill="#231F20"/>
<path d="M109.396 38.4896C110.31 36.9776 112.451 36.7672 113.947 37.3767C114.443 37.5571 114.875 37.8849 115.187 38.3179C115.498 38.7509 115.676 39.2692 115.695 39.8059C115.708 40.465 115.592 41.1201 115.355 41.7335C114.958 42.8835 114.361 43.951 113.593 44.8849C113.234 45.3734 112.761 45.7619 112.217 46.0145C111.874 46.1384 111.502 46.1549 111.15 46.0619C110.798 45.969 110.481 45.7708 110.24 45.4928" fill="white"/>
<path d="M111.596 46.446C111.844 46.4455 112.09 46.3974 112.321 46.3042C112.911 46.0303 113.427 45.6123 113.821 45.0872C114.611 44.1241 115.226 43.0251 115.636 41.8417C115.887 41.1872 116.009 40.489 115.997 39.7865C115.97 39.1935 115.772 38.6218 115.427 38.1439C115.081 37.666 114.605 37.3035 114.057 37.1023C112.409 36.4325 110.103 36.7036 109.137 38.3364C109.103 38.4055 109.097 38.4846 109.118 38.5584C109.139 38.6322 109.186 38.6954 109.25 38.7356C109.314 38.7759 109.391 38.7902 109.465 38.7759C109.539 38.7616 109.605 38.7196 109.651 38.6582C110.473 37.3143 112.416 37.0906 113.833 37.6667C114.275 37.8259 114.661 38.1159 114.941 38.4996C115.22 38.8832 115.382 39.3432 115.404 39.8206C115.413 40.4407 115.304 41.0566 115.083 41.6341C114.697 42.7494 114.118 43.785 113.373 44.6914C113.045 45.1377 112.613 45.4936 112.116 45.7269C111.825 45.8315 111.51 45.8448 111.211 45.7649C110.913 45.685 110.645 45.5156 110.442 45.2788C110.416 45.2437 110.383 45.2148 110.345 45.1938C110.307 45.1728 110.265 45.1604 110.222 45.1572C110.179 45.154 110.136 45.1603 110.095 45.1755C110.055 45.1907 110.018 45.2145 109.987 45.2454C109.957 45.2763 109.933 45.3135 109.917 45.3545C109.902 45.3955 109.895 45.4395 109.898 45.4834C109.9 45.5272 109.912 45.5701 109.932 45.609C109.952 45.6479 109.98 45.682 110.014 45.709C110.217 45.9323 110.461 46.1124 110.733 46.2389C111.004 46.3654 111.298 46.4358 111.596 46.446Z" fill="#231F20"/>
<path d="M97.7565 42.1218L102.165 42.5537C102.165 42.5537 101.256 49.4983 99.2728 49.3124C97.2896 49.1265 97.2777 44.1101 97.7565 42.1218Z" fill="white"/>
<path d="M99.3596 49.6129C101.435 49.6107 102.305 43.7809 102.455 42.5921C102.463 42.553 102.461 42.5127 102.451 42.4743C102.44 42.4359 102.422 42.4004 102.396 42.3705C102.373 42.3377 102.344 42.3104 102.31 42.2907C102.275 42.271 102.237 42.2593 102.198 42.2566L97.7834 41.8247C97.7143 41.8178 97.6451 41.8364 97.5883 41.8771C97.5315 41.9179 97.491 41.978 97.474 42.0467C97.1001 43.5916 96.9788 47.2919 98.0741 48.8554C98.2024 49.0619 98.3744 49.2364 98.5774 49.3664C98.7805 49.4963 99.0095 49.5783 99.2476 49.6063L99.3596 49.6129ZM101.836 42.8211C101.47 45.3599 100.525 49.014 99.359 49.0152L99.2997 49.0153C99.1458 48.9931 98.9986 48.9366 98.8687 48.8496C98.7387 48.7627 98.6293 48.6476 98.5481 48.5124C97.6837 47.271 97.6409 44.1618 97.9818 42.4692L101.836 42.8211Z" fill="#231F20"/>
<path d="M86.7847 95.9755C86.8376 95.9754 86.8896 95.9608 86.9352 95.9332C86.9807 95.9057 87.0182 95.8662 87.0438 95.8188C87.0693 95.7715 87.0819 95.7181 87.0802 95.6641C87.0786 95.6101 87.0628 95.5576 87.0345 95.5119C86.9883 95.4247 82.1372 87.1296 86.7505 69.8393C86.769 69.761 86.7574 69.6785 86.7181 69.6086C86.6789 69.5388 86.6149 69.4868 86.5393 69.4635C86.5012 69.4524 86.4613 69.4491 86.422 69.454C86.3827 69.4589 86.3447 69.4717 86.3104 69.4918C86.276 69.5118 86.2459 69.5387 86.2219 69.5708C86.1979 69.603 86.1804 69.6396 86.1706 69.6787C81.4785 87.2511 86.3164 95.4925 86.5276 95.8684C86.5582 95.9067 86.5978 95.9366 86.6427 95.9554C86.6876 95.9741 86.7364 95.981 86.7847 95.9755Z" fill="#231F20"/>
<path d="M176.359 71.8613L105.288 124.242L34.1064 72.0113L34.1969 157.82L176.45 157.67L176.359 71.8613Z" fill="white"/>
<path d="M34.1982 158.154L176.451 158.004C176.539 158.004 176.622 157.969 176.684 157.906C176.746 157.843 176.78 157.757 176.78 157.668L176.69 71.8593C176.691 71.7979 176.674 71.7375 176.643 71.6852C176.611 71.6328 176.566 71.5908 176.512 71.564C176.46 71.5313 176.401 71.514 176.34 71.514C176.28 71.5141 176.22 71.5315 176.169 71.5644L105.289 123.797L34.3047 71.7139C34.2534 71.6812 34.194 71.6639 34.1334 71.6639C34.0728 71.664 34.0135 71.6814 33.9622 71.7142C33.9072 71.7409 33.8608 71.7827 33.8283 71.835C33.7957 71.8873 33.7783 71.948 33.778 72.0099L33.8684 157.819C33.8702 157.907 33.9055 157.992 33.967 158.054C34.0285 158.117 34.1114 158.153 34.1982 158.154ZM176.141 157.333L34.494 157.483L34.4046 72.6674L105.098 124.509C105.155 124.551 105.223 124.574 105.293 124.574C105.363 124.574 105.431 124.551 105.487 124.509L176.051 72.5181L176.141 157.333Z" fill="#231F20"/>
<path d="M176.451 158.006C176.51 158.006 176.569 157.99 176.62 157.959C176.671 157.928 176.713 157.884 176.741 157.831C176.782 157.753 176.792 157.662 176.768 157.577C176.745 157.492 176.69 157.419 176.615 157.375L111.497 119.495C111.421 119.451 111.331 119.44 111.247 119.464C111.163 119.488 111.092 119.545 111.049 119.623C111.027 119.66 111.012 119.702 111.006 119.746C111 119.79 111.003 119.834 111.014 119.877C111.025 119.919 111.044 119.959 111.071 119.994C111.097 120.029 111.13 120.058 111.168 120.079L176.293 157.959C176.341 157.988 176.395 158.004 176.451 158.006Z" fill="#231F20"/>
<path d="M34.1985 158.156C34.2563 158.154 34.3128 158.138 34.3632 158.109L99.4017 120.092C99.4776 120.048 99.5333 119.975 99.5567 119.89C99.58 119.804 99.5691 119.713 99.5264 119.635C99.4822 119.559 99.4109 119.503 99.3274 119.48C99.2439 119.456 99.1546 119.466 99.0782 119.508L34.0398 157.525C33.9639 157.569 33.9082 157.642 33.8848 157.727C33.8614 157.813 33.8723 157.904 33.9151 157.982C33.9425 158.034 33.9833 158.078 34.0332 158.109C34.0831 158.14 34.1403 158.156 34.1985 158.156Z" fill="#231F20"/>
<path d="M142.499 118.348C142.499 118.348 139.628 125.993 138.949 126.41C138.271 126.827 130.257 130.18 130.832 131.744C131.407 133.308 135.015 131.397 135.015 131.397C135.015 131.397 129.823 137.534 131.195 138.613C132.566 139.693 137.18 141.884 139.031 140.989C140.881 140.094 150.099 128.426 152.05 123.361" fill="white"/>
<path d="M137.913 141.554C138.342 141.567 138.769 141.484 139.164 141.311C141.14 140.348 150.417 128.54 152.355 123.501C152.37 123.46 152.378 123.415 152.377 123.371C152.375 123.327 152.366 123.283 152.348 123.242C152.33 123.202 152.305 123.165 152.273 123.135C152.241 123.104 152.204 123.081 152.163 123.065C152.123 123.049 152.079 123.041 152.036 123.043C151.992 123.044 151.949 123.054 151.91 123.072C151.87 123.09 151.834 123.116 151.804 123.148C151.774 123.181 151.751 123.218 151.735 123.26C149.764 128.426 140.487 139.926 138.887 140.733C137.287 141.541 132.785 139.504 131.387 138.398C131.357 138.369 131.333 138.335 131.316 138.297C131.299 138.259 131.289 138.218 131.288 138.176C131.161 136.833 134.116 133.023 135.234 131.665C135.284 131.606 135.312 131.531 135.314 131.452C135.316 131.374 135.29 131.298 135.243 131.237C135.195 131.176 135.128 131.133 135.053 131.117C134.978 131.101 134.9 131.112 134.832 131.148C134.173 131.498 132.29 132.333 131.446 132.005C131.369 131.978 131.299 131.934 131.24 131.876C131.182 131.818 131.138 131.747 131.11 131.669C130.951 131.233 131.991 130.137 137.858 127.358C138.569 127.021 138.945 126.839 139.096 126.738C139.807 126.274 142.094 120.309 142.777 118.495C142.793 118.453 142.8 118.409 142.799 118.365C142.798 118.32 142.788 118.276 142.771 118.236C142.753 118.195 142.727 118.159 142.696 118.128C142.664 118.098 142.626 118.074 142.585 118.058C142.504 118.028 142.414 118.031 142.335 118.068C142.257 118.104 142.195 118.171 142.164 118.254C140.797 121.888 139.141 125.845 138.733 126.181C138.621 126.255 138.141 126.484 137.581 126.747C132.853 128.981 130.022 130.629 130.491 131.905C130.552 132.072 130.647 132.225 130.772 132.351C130.896 132.477 131.045 132.574 131.21 132.636C132.098 132.82 133.021 132.711 133.845 132.324C132.575 133.944 130.476 136.854 130.61 138.237C130.62 138.368 130.657 138.494 130.717 138.609C130.777 138.725 130.86 138.827 130.959 138.909C132.047 139.747 135.554 141.556 137.913 141.554Z" fill="#231F20"/>
<path d="M130.083 59.4264C147.039 70.5024 167.665 86.8057 169.408 90.6182C172.194 96.6591 151.434 127.075 151.434 127.075L140.167 119.807L150.434 97.0111L130.127 82.9638" fill="#FEC600"/>
<path d="M143.131 92.318C143.179 92.3194 143.228 92.3084 143.272 92.2861C143.315 92.2638 143.353 92.2308 143.381 92.1902C143.425 92.1227 143.443 92.0404 143.429 91.9604C143.415 91.8804 143.372 91.8088 143.308 91.7605L120.509 75.5266C120.477 75.5024 120.44 75.4851 120.401 75.4758C120.362 75.4664 120.322 75.4652 120.282 75.4721C120.243 75.4791 120.205 75.494 120.172 75.5162C120.138 75.5383 120.11 75.5671 120.087 75.6009C120.065 75.6344 120.049 75.6721 120.041 75.7119C120.033 75.7516 120.032 75.7926 120.04 75.8325C120.047 75.8724 120.062 75.9105 120.084 75.9445C120.106 75.9784 120.134 76.0077 120.167 76.0306L142.959 92.2645C143.009 92.3012 143.069 92.32 143.131 92.318Z" fill="#231F20"/>
<path d="M44.19 138.496L16.5606 121.301L39.9659 131.208L44.19 138.496Z" fill="#231F20"/>
<path d="M44.1919 138.831C44.235 138.831 44.2776 138.822 44.3172 138.805C44.3568 138.787 44.3926 138.762 44.4224 138.73C44.4747 138.678 44.5082 138.609 44.5177 138.535C44.5272 138.46 44.512 138.385 44.4747 138.321L40.2506 131.039C40.2172 130.976 40.1637 130.926 40.0989 130.898L16.6673 120.991C16.5905 120.958 16.5044 120.956 16.4264 120.986C16.3484 121.015 16.2843 121.074 16.2468 121.15C16.2094 121.225 16.2014 121.313 16.2245 121.394C16.2476 121.476 16.3001 121.545 16.3714 121.589L44.0206 138.758C44.071 138.796 44.1298 138.821 44.1919 138.831ZM39.7437 131.449L43.2352 137.489L20.3656 123.257L39.7437 131.449Z" fill="#231F20"/>
<path d="M39.9655 131.207L30.9446 135.924L16.5603 121.3L39.9655 131.207Z" fill="white"/>
<path d="M30.9465 136.226C30.9947 136.227 31.0425 136.216 31.0848 136.192L40.1057 131.482C40.1575 131.457 40.2007 131.416 40.2299 131.366C40.2592 131.316 40.2732 131.258 40.2702 131.2C40.2669 131.141 40.2479 131.084 40.2154 131.036C40.1828 130.987 40.1379 130.949 40.0854 130.925L16.667 121.017C16.6028 120.991 16.532 120.989 16.4661 121.01C16.4002 121.03 16.3433 121.073 16.3047 121.132C16.2654 121.19 16.2478 121.26 16.2552 121.331C16.2625 121.401 16.2943 121.466 16.3447 121.514L30.729 136.139C30.7569 136.169 30.7907 136.192 30.8283 136.207C30.8659 136.222 30.9062 136.228 30.9465 136.226ZM39.2556 131.241L31.0051 135.548L17.8541 122.178L39.2556 131.241Z" fill="#231F20"/>
<path d="M16.5632 121.3L46.2969 128.508L53.0523 124.559L16.5632 121.3Z" fill="white"/>
<path d="M46.3211 128.811C46.3721 128.811 46.4222 128.797 46.466 128.771L53.228 124.828C53.282 124.795 53.3243 124.744 53.349 124.685C53.3736 124.626 53.3794 124.56 53.3656 124.497C53.3517 124.434 53.3188 124.377 53.2716 124.334C53.2244 124.291 53.1651 124.264 53.1022 124.258L16.6132 120.999C16.5378 120.993 16.463 121.015 16.4033 121.063C16.3436 121.11 16.3034 121.178 16.2906 121.254C16.2784 121.33 16.2947 121.409 16.3363 121.473C16.3778 121.538 16.4415 121.584 16.515 121.603L46.2487 128.804L46.3211 128.811ZM52.0948 124.776L46.2743 128.173L20.6199 121.995L52.0948 124.776Z" fill="#231F20"/>
<path d="M46.2947 128.509L44.1904 138.497L39.9663 131.208L16.561 121.301L46.2947 128.509Z" fill="white"/>
<path d="M44.1925 138.803L44.2386 138.803C44.2986 138.794 44.3545 138.766 44.3991 138.724C44.4437 138.682 44.4749 138.628 44.4887 138.568L46.5864 128.573C46.5951 128.534 46.5962 128.494 46.5897 128.455C46.5831 128.415 46.569 128.378 46.5481 128.344C46.5273 128.31 46.5001 128.281 46.4682 128.258C46.4362 128.235 46.4001 128.219 46.362 128.211L16.6283 121.009C16.5532 120.985 16.4714 120.991 16.401 121.028C16.3306 121.064 16.2774 121.128 16.253 121.205C16.2286 121.281 16.2351 121.364 16.271 121.436C16.3069 121.508 16.3693 121.562 16.4445 121.587L39.7377 131.454L43.909 138.649C43.9367 138.7 43.9782 138.741 44.0285 138.768C44.0788 138.796 44.1357 138.808 44.1925 138.803ZM45.9409 128.728L44.0595 137.655L40.2314 131.044C40.1962 130.988 40.1457 130.944 40.0863 130.917L20.1414 122.476L45.9409 128.728Z" fill="#231F20"/>
<path d="M50.2868 139.88C50.3573 139.878 50.4254 139.854 50.4811 139.81C50.5368 139.766 50.5771 139.705 50.5962 139.635C50.6153 139.566 50.6121 139.493 50.5872 139.425C50.5622 139.358 50.5167 139.301 50.4574 139.262L49.3564 138.545C49.283 138.496 49.1935 138.479 49.1077 138.497C49.0218 138.515 48.9466 138.568 48.8987 138.643C48.8507 138.717 48.8338 138.809 48.8519 138.896C48.8699 138.984 48.9213 139.06 48.9947 139.109L50.1089 139.833C50.1631 139.864 50.2245 139.881 50.2868 139.88Z" fill="#D1D3D4"/>
<path d="M150.053 170.543C150.139 170.541 150.222 170.505 150.284 170.443C150.345 170.38 150.38 170.296 150.382 170.207C150.382 170.119 150.348 170.035 150.287 169.972C150.227 169.909 150.145 169.873 150.058 169.872L148.49 169.84L147.43 169.807C147.343 169.807 147.26 169.84 147.196 169.9C147.133 169.96 147.094 170.042 147.087 170.13C147.086 170.175 147.093 170.219 147.108 170.261C147.124 170.303 147.147 170.341 147.177 170.374C147.207 170.406 147.243 170.432 147.283 170.45C147.324 170.468 147.367 170.478 147.411 170.479L148.471 170.511L150.046 170.543L150.053 170.543ZM152.688 170.54C153.584 170.539 154.467 170.498 155.323 170.464C155.41 170.458 155.491 170.419 155.55 170.354C155.609 170.289 155.641 170.203 155.639 170.114C155.637 170.07 155.627 170.027 155.609 169.987C155.591 169.947 155.565 169.911 155.533 169.881C155.501 169.851 155.464 169.828 155.423 169.812C155.382 169.797 155.339 169.79 155.296 169.792C154.44 169.827 153.563 169.854 152.661 169.869C152.573 169.869 152.49 169.904 152.428 169.967C152.366 170.03 152.332 170.116 152.332 170.205C152.333 170.251 152.342 170.295 152.361 170.337C152.379 170.379 152.405 170.416 152.437 170.448C152.47 170.479 152.508 170.503 152.55 170.519C152.592 170.535 152.637 170.542 152.681 170.54L152.688 170.54ZM144.782 170.367C144.865 170.367 144.945 170.334 145.005 170.276C145.066 170.217 145.101 170.136 145.104 170.051C145.107 170.007 145.101 169.963 145.087 169.921C145.073 169.88 145.05 169.841 145.022 169.808C144.993 169.775 144.958 169.748 144.919 169.729C144.88 169.71 144.838 169.698 144.794 169.696C143.918 169.656 143.042 169.604 142.159 169.544C142.115 169.541 142.072 169.546 142.03 169.56C141.989 169.574 141.951 169.597 141.918 169.626C141.885 169.656 141.859 169.692 141.841 169.732C141.822 169.772 141.812 169.816 141.81 169.86C141.806 169.904 141.811 169.948 141.825 169.99C141.838 170.031 141.86 170.07 141.888 170.103C141.916 170.136 141.951 170.163 141.99 170.183C142.028 170.202 142.07 170.213 142.113 170.216C142.99 170.275 143.866 170.328 144.749 170.367L144.782 170.367ZM157.925 170.307C158.821 170.238 159.697 170.157 160.56 170.062C160.647 170.052 160.725 170.007 160.78 169.938C160.834 169.869 160.859 169.78 160.85 169.692C160.847 169.648 160.834 169.605 160.814 169.566C160.794 169.526 160.766 169.492 160.732 169.464C160.698 169.436 160.658 169.416 160.616 169.405C160.574 169.393 160.53 169.391 160.487 169.397C159.637 169.485 158.768 169.567 157.852 169.635C157.765 169.635 157.681 169.671 157.619 169.734C157.558 169.797 157.523 169.882 157.523 169.971C157.523 170.06 157.558 170.146 157.62 170.209C157.682 170.271 157.765 170.307 157.853 170.307L157.925 170.307ZM139.524 170.024C139.611 170.024 139.695 169.988 139.757 169.925C139.819 169.862 139.853 169.777 139.853 169.688C139.853 169.599 139.818 169.513 139.756 169.45C139.694 169.387 139.611 169.352 139.523 169.352C138.647 169.279 137.777 169.2 136.888 169.113C136.801 169.107 136.715 169.135 136.648 169.192C136.581 169.248 136.537 169.328 136.526 169.416C136.521 169.46 136.525 169.505 136.538 169.547C136.55 169.59 136.571 169.629 136.599 169.663C136.626 169.698 136.66 169.726 136.699 169.747C136.737 169.768 136.779 169.781 136.823 169.785C137.701 169.869 138.58 169.949 139.458 170.024L139.524 170.024ZM163.162 169.723L163.208 169.723C164.091 169.588 164.967 169.44 165.843 169.277C165.886 169.269 165.928 169.252 165.964 169.227C166.001 169.203 166.033 169.171 166.058 169.134C166.082 169.097 166.1 169.055 166.109 169.011C166.118 168.967 166.118 168.922 166.11 168.878C166.101 168.834 166.085 168.792 166.06 168.754C166.036 168.717 166.005 168.684 165.969 168.659C165.932 168.634 165.891 168.616 165.848 168.607C165.805 168.598 165.761 168.598 165.717 168.606C164.881 168.768 164.011 168.917 163.135 169.045C163.092 169.052 163.051 169.067 163.014 169.09C162.977 169.113 162.945 169.143 162.919 169.178C162.893 169.214 162.875 169.254 162.865 169.297C162.854 169.34 162.852 169.385 162.859 169.428C162.87 169.507 162.907 169.58 162.965 169.634C163.023 169.688 163.097 169.72 163.175 169.723L163.162 169.723ZM134.279 169.512C134.322 169.515 134.366 169.509 134.407 169.494C134.448 169.48 134.485 169.457 134.518 169.428C134.55 169.398 134.577 169.363 134.596 169.323C134.614 169.283 134.626 169.24 134.628 169.196C134.631 169.152 134.625 169.108 134.61 169.066C134.596 169.024 134.574 168.986 134.545 168.953C134.517 168.92 134.482 168.893 134.443 168.874C134.404 168.854 134.361 168.843 134.318 168.841C133.44 168.743 132.561 168.636 131.682 168.521C131.595 168.51 131.507 168.534 131.437 168.589C131.367 168.644 131.322 168.724 131.31 168.814C131.299 168.903 131.323 168.993 131.377 169.064C131.431 169.135 131.51 169.181 131.597 169.193L134.233 169.505L134.279 169.512ZM129.054 168.846C129.134 168.845 129.21 168.816 129.271 168.763C129.331 168.71 129.371 168.637 129.383 168.557C129.39 168.513 129.387 168.468 129.377 168.425C129.366 168.381 129.347 168.341 129.32 168.305C129.294 168.269 129.261 168.24 129.223 168.217C129.185 168.195 129.143 168.18 129.099 168.175L126.503 167.781C126.461 167.773 126.417 167.775 126.375 167.784C126.333 167.794 126.294 167.813 126.259 167.838C126.224 167.864 126.194 167.897 126.172 167.934C126.149 167.972 126.134 168.013 126.128 168.057C126.121 168.1 126.122 168.145 126.131 168.189C126.141 168.232 126.159 168.273 126.184 168.309C126.209 168.345 126.241 168.376 126.278 168.399C126.315 168.423 126.356 168.439 126.399 168.446L129.034 168.839L129.054 168.846ZM168.326 168.738L168.405 168.738C169.281 168.528 170.144 168.299 170.968 168.063C171.05 168.037 171.12 167.979 171.162 167.901C171.203 167.823 171.214 167.732 171.191 167.647C171.179 167.604 171.159 167.565 171.132 167.531C171.105 167.496 171.071 167.468 171.033 167.446C170.995 167.425 170.953 167.412 170.91 167.407C170.867 167.402 170.824 167.406 170.782 167.419C169.966 167.655 169.116 167.884 168.253 168.093C168.211 168.102 168.171 168.121 168.136 168.146C168.1 168.172 168.07 168.204 168.048 168.242C168.025 168.28 168.01 168.321 168.003 168.365C167.997 168.409 167.999 168.453 168.01 168.496C168.032 168.567 168.076 168.628 168.136 168.671C168.195 168.713 168.267 168.734 168.34 168.731L168.326 168.738ZM123.855 168.012C123.932 168.013 124.007 167.986 124.066 167.935C124.126 167.885 124.165 167.814 124.178 167.737C124.191 167.649 124.17 167.559 124.12 167.486C124.069 167.413 123.993 167.364 123.907 167.347L121.317 166.88C121.275 166.871 121.231 166.871 121.189 166.88C121.146 166.889 121.106 166.907 121.071 166.932C121.035 166.957 121.005 166.989 120.981 167.026C120.958 167.064 120.943 167.105 120.936 167.149C120.92 167.236 120.939 167.326 120.989 167.399C121.038 167.472 121.114 167.522 121.199 167.538L123.796 168.012L123.855 168.012ZM173.391 167.228C173.426 167.234 173.462 167.234 173.497 167.228C174.34 166.925 175.176 166.595 175.973 166.252C176.013 166.234 176.049 166.209 176.079 166.177C176.109 166.145 176.133 166.107 176.149 166.066C176.164 166.025 176.172 165.981 176.171 165.937C176.17 165.892 176.161 165.849 176.144 165.808C176.109 165.728 176.044 165.664 175.964 165.632C175.884 165.599 175.795 165.6 175.715 165.634C174.931 165.971 174.108 166.307 173.278 166.597C173.191 166.612 173.113 166.662 173.062 166.736C173.011 166.81 172.991 166.901 173.005 166.99C173.02 167.079 173.069 167.158 173.142 167.211C173.214 167.263 173.304 167.284 173.391 167.268L173.391 167.228ZM118.709 167.03C118.784 167.029 118.857 167.002 118.916 166.953C118.974 166.904 119.015 166.837 119.031 166.762C119.04 166.718 119.04 166.674 119.032 166.63C119.023 166.587 119.007 166.546 118.983 166.509C118.959 166.472 118.928 166.441 118.892 166.416C118.856 166.392 118.816 166.374 118.774 166.366L116.197 165.818C116.155 165.809 116.111 165.809 116.069 165.817C116.026 165.826 115.986 165.842 115.95 165.867C115.914 165.891 115.883 165.922 115.858 165.959C115.834 165.996 115.817 166.037 115.809 166.08C115.799 166.123 115.798 166.167 115.806 166.21C115.813 166.254 115.829 166.295 115.852 166.332C115.876 166.369 115.906 166.4 115.942 166.425C115.977 166.45 116.017 166.467 116.06 166.476L118.643 167.024L118.709 167.03ZM113.555 165.908C113.599 165.913 113.642 165.909 113.684 165.896C113.726 165.884 113.765 165.863 113.799 165.835C113.833 165.807 113.861 165.773 113.882 165.734C113.903 165.695 113.916 165.653 113.921 165.608C113.925 165.564 113.922 165.52 113.909 165.477C113.897 165.435 113.877 165.395 113.85 165.36C113.822 165.326 113.789 165.297 113.751 165.276C113.712 165.254 113.67 165.241 113.627 165.236C112.771 165.036 111.92 164.835 111.07 164.621C110.986 164.601 110.896 164.616 110.822 164.662C110.748 164.709 110.696 164.784 110.675 164.87C110.665 164.913 110.662 164.958 110.669 165.002C110.675 165.046 110.69 165.089 110.713 165.127C110.736 165.165 110.766 165.198 110.801 165.224C110.837 165.25 110.877 165.269 110.919 165.279C111.77 165.487 112.62 165.694 113.483 165.888L113.555 165.908ZM178.244 165.121C178.297 165.119 178.349 165.106 178.396 165.081C179.193 164.663 179.97 164.213 180.707 163.735C180.744 163.712 180.776 163.681 180.801 163.645C180.826 163.609 180.844 163.569 180.854 163.525C180.864 163.482 180.865 163.438 180.858 163.394C180.851 163.351 180.835 163.309 180.812 163.272C180.79 163.233 180.76 163.2 180.725 163.174C180.69 163.148 180.649 163.129 180.607 163.119C180.564 163.109 180.52 163.108 180.478 163.116C180.435 163.124 180.394 163.14 180.357 163.165C179.64 163.615 178.876 164.053 178.092 164.463C178.005 164.484 177.929 164.539 177.882 164.616C177.834 164.694 177.819 164.787 177.839 164.876C177.859 164.965 177.913 165.043 177.989 165.091C178.065 165.139 178.157 165.155 178.244 165.134L178.244 165.121ZM108.409 164.644C108.496 164.655 108.584 164.629 108.653 164.574C108.722 164.518 108.767 164.437 108.777 164.348C108.788 164.259 108.763 164.169 108.709 164.099C108.654 164.028 108.574 163.983 108.487 163.972L105.943 163.303C105.9 163.292 105.855 163.289 105.811 163.296C105.766 163.302 105.724 163.317 105.685 163.34C105.647 163.363 105.613 163.394 105.586 163.43C105.559 163.467 105.54 163.508 105.528 163.552C105.517 163.596 105.515 163.642 105.521 163.688C105.527 163.733 105.542 163.776 105.565 163.815C105.587 163.855 105.617 163.889 105.653 163.916C105.689 163.944 105.729 163.964 105.773 163.975C106.616 164.207 107.466 164.43 108.323 164.644C108.355 164.653 108.39 164.653 108.422 164.644L108.409 164.644ZM103.321 163.246C103.393 163.247 103.463 163.224 103.52 163.18C103.577 163.136 103.618 163.074 103.637 163.004C103.659 162.917 103.648 162.825 103.605 162.748C103.561 162.67 103.49 162.613 103.406 162.588L100.882 161.845C100.799 161.82 100.71 161.829 100.633 161.87C100.557 161.912 100.499 161.983 100.474 162.067C100.461 162.109 100.456 162.154 100.461 162.198C100.465 162.242 100.478 162.285 100.499 162.324C100.52 162.363 100.548 162.397 100.583 162.424C100.617 162.451 100.656 162.471 100.698 162.483C101.535 162.737 102.379 162.992 103.229 163.232C103.262 163.245 103.299 163.25 103.334 163.246L103.321 163.246ZM182.689 162.296C182.76 162.296 182.829 162.273 182.886 162.228C183.604 161.684 184.295 161.106 184.94 160.507C184.971 160.476 184.995 160.439 185.012 160.398C185.028 160.357 185.037 160.313 185.037 160.269C185.037 160.224 185.028 160.18 185.012 160.14C184.995 160.099 184.97 160.062 184.939 160.03C184.909 159.999 184.873 159.974 184.834 159.957C184.794 159.941 184.752 159.932 184.709 159.932C184.666 159.932 184.623 159.941 184.584 159.958C184.544 159.975 184.508 160 184.478 160.031C183.837 160.625 183.167 161.186 182.471 161.712C182.401 161.765 182.355 161.845 182.342 161.933C182.33 162.021 182.353 162.111 182.405 162.182C182.44 162.222 182.484 162.254 182.533 162.274C182.583 162.293 182.636 162.301 182.689 162.296ZM98.2861 161.713C98.3559 161.714 98.4241 161.692 98.4801 161.649C98.5361 161.607 98.5766 161.546 98.5955 161.478C98.6087 161.436 98.6135 161.391 98.6097 161.347C98.6058 161.302 98.5934 161.259 98.5732 161.22C98.5529 161.181 98.5252 161.146 98.4916 161.118C98.4581 161.089 98.4193 161.068 98.3776 161.055C97.5341 160.794 96.7036 160.52 95.8732 160.252C95.8322 160.237 95.7887 160.231 95.7453 160.234C95.7019 160.237 95.6596 160.249 95.6208 160.269C95.5821 160.29 95.5477 160.317 95.5198 160.351C95.4919 160.385 95.471 160.425 95.4584 160.467C95.4315 160.552 95.4386 160.644 95.4782 160.723C95.5178 160.802 95.5867 160.862 95.6697 160.89C96.5001 161.164 97.3371 161.432 98.1872 161.7C98.2186 161.713 98.2522 161.72 98.2861 161.72L98.2861 161.713ZM93.2707 160.06C93.3581 160.074 93.4474 160.052 93.519 159.999C93.5906 159.946 93.6386 159.866 93.6525 159.777C93.6664 159.688 93.645 159.597 93.593 159.524C93.5411 159.451 93.4628 159.402 93.3754 159.388C92.5384 159.1 91.708 158.812 90.8907 158.518C90.8077 158.49 90.7171 158.496 90.6384 158.535C90.5597 158.574 90.4991 158.643 90.4693 158.726C90.4547 158.767 90.4483 158.811 90.4504 158.855C90.4526 158.898 90.4631 158.941 90.4816 158.98C90.5 159.019 90.5259 159.055 90.5578 159.084C90.5897 159.113 90.627 159.135 90.6674 159.149C91.4912 159.444 92.3216 159.739 93.1652 160.026L93.2707 160.06ZM186.565 158.686C186.612 158.685 186.659 158.675 186.702 158.655C186.745 158.635 186.784 158.607 186.815 158.571C187.407 157.895 187.96 157.186 188.473 156.447C188.503 156.412 188.525 156.371 188.538 156.326C188.552 156.282 188.556 156.235 188.55 156.188C188.544 156.142 188.53 156.098 188.506 156.058C188.483 156.018 188.452 155.983 188.414 155.956C188.377 155.929 188.335 155.91 188.29 155.901C188.246 155.891 188.2 155.891 188.155 155.901C188.11 155.91 188.068 155.929 188.031 155.956C187.994 155.984 187.963 156.018 187.939 156.058C187.439 156.777 186.899 157.466 186.321 158.122C186.26 158.186 186.226 158.271 186.226 158.36C186.226 158.449 186.26 158.535 186.321 158.599C186.354 158.63 186.392 158.655 186.434 158.671C186.476 158.687 186.52 158.694 186.565 158.692L186.565 158.686ZM88.3013 158.292C88.3686 158.29 88.4338 158.268 88.4888 158.229C88.5438 158.189 88.5862 158.134 88.6107 158.07C88.6403 157.987 88.636 157.894 88.5989 157.814C88.5617 157.733 88.4947 157.671 88.4126 157.641C87.5756 157.333 86.7583 157.018 85.941 156.71C85.8625 156.69 85.7795 156.7 85.7078 156.738C85.6361 156.776 85.5807 156.84 85.5523 156.918C85.5238 156.995 85.5243 157.08 85.5536 157.157C85.5829 157.234 85.639 157.297 85.7111 157.335C86.5284 157.649 87.3522 157.957 88.1893 158.265C88.2229 158.287 88.2617 158.298 88.3013 158.299L88.3013 158.292ZM83.3713 156.397C83.4146 156.405 83.4589 156.404 83.5019 156.394C83.5448 156.385 83.5855 156.367 83.6215 156.341C83.6576 156.315 83.6884 156.283 83.7121 156.245C83.7358 156.207 83.752 156.165 83.7597 156.121C83.7675 156.077 83.7666 156.032 83.7572 155.988C83.7478 155.944 83.73 155.903 83.7049 155.866C83.6798 155.829 83.6478 155.798 83.6108 155.774C83.5738 155.75 83.5324 155.733 83.4892 155.725L81.0439 154.741C80.9635 154.707 80.8734 154.708 80.7932 154.742C80.713 154.776 80.6493 154.841 80.6159 154.922C80.5829 155.005 80.5831 155.098 80.6165 155.181C80.6498 155.264 80.7136 155.33 80.7942 155.366L83.2461 156.384C83.2866 156.397 83.3288 156.404 83.3713 156.404L83.3713 156.397ZM189.604 154.324C189.664 154.325 189.722 154.309 189.773 154.278C189.824 154.247 189.866 154.203 189.894 154.149C190.324 153.355 190.708 152.536 191.044 151.697C191.078 151.614 191.077 151.521 191.043 151.439C191.009 151.356 190.944 151.291 190.863 151.257C190.781 151.223 190.69 151.224 190.609 151.259C190.529 151.293 190.465 151.359 190.431 151.442C190.109 152.261 189.735 153.057 189.314 153.827C189.274 153.906 189.265 153.998 189.29 154.083C189.314 154.168 189.37 154.24 189.446 154.284C189.495 154.31 189.549 154.324 189.604 154.324ZM78.4807 154.394C78.5462 154.396 78.6104 154.376 78.6647 154.339C78.7189 154.302 78.7605 154.248 78.7836 154.186C78.8167 154.105 78.8172 154.013 78.7851 153.932C78.753 153.85 78.6908 153.785 78.6118 153.749C77.7879 153.401 76.9772 153.08 76.1862 152.704C76.1058 152.669 76.0149 152.667 75.9334 152.7C75.8518 152.733 75.7865 152.797 75.7516 152.879C75.7167 152.961 75.7153 153.054 75.7475 153.137C75.7797 153.22 75.843 153.287 75.9234 153.322L78.3555 154.367C78.3947 154.386 78.4375 154.395 78.4807 154.394ZM73.6427 152.271C73.7059 152.27 73.7677 152.251 73.8212 152.217C73.8746 152.182 73.9177 152.133 73.9456 152.075C73.9639 152.035 73.974 151.991 73.9752 151.947C73.9765 151.902 73.9688 151.858 73.9528 151.816C73.9367 151.775 73.9126 151.737 73.8818 151.706C73.8511 151.674 73.8143 151.649 73.7738 151.632C72.9565 151.257 72.1589 150.895 71.3811 150.527C71.3016 150.49 71.2108 150.486 71.1286 150.517C71.0465 150.548 70.9798 150.611 70.9432 150.692C70.9066 150.773 70.9031 150.866 70.9334 150.949C70.9638 151.033 71.0255 151.101 71.1051 151.138C71.8895 151.507 72.687 151.875 73.5109 152.244C73.5523 152.263 73.5974 152.272 73.6427 152.271ZM68.8507 150.033C68.9128 150.034 68.974 150.017 69.0267 149.984C69.0794 149.95 69.1212 149.902 69.147 149.844C69.1661 149.805 69.1773 149.761 69.1799 149.717C69.1826 149.673 69.1767 149.629 69.1626 149.587C69.1485 149.545 69.1264 149.507 69.0977 149.474C69.0689 149.441 69.034 149.414 68.995 149.395C68.1776 149.006 67.3866 148.617 66.622 148.235C66.5433 148.196 66.4527 148.191 66.3699 148.22C66.2872 148.249 66.2191 148.31 66.1808 148.39C66.1424 148.47 66.1369 148.563 66.1654 148.647C66.1939 148.732 66.2541 148.801 66.3328 148.84L68.7123 150.006C68.7562 150.025 68.8033 150.034 68.8507 150.033ZM191.589 149.346C191.661 149.345 191.731 149.321 191.788 149.276C191.845 149.231 191.886 149.168 191.905 149.097C192.145 148.224 192.338 147.339 192.482 146.444C192.496 146.355 192.474 146.264 192.422 146.191C192.37 146.118 192.292 146.069 192.205 146.055C192.117 146.041 192.028 146.062 191.956 146.115C191.885 146.168 191.837 146.248 191.823 146.337C191.692 147.216 191.513 148.086 191.285 148.943C191.273 148.986 191.269 149.03 191.274 149.074C191.279 149.118 191.292 149.16 191.313 149.199C191.334 149.237 191.362 149.271 191.396 149.299C191.429 149.327 191.468 149.347 191.51 149.359L191.589 149.346ZM64.1311 147.687C64.193 147.688 64.2538 147.671 64.3064 147.637C64.3589 147.604 64.4009 147.556 64.4274 147.499C64.4663 147.42 64.4729 147.328 64.4457 147.243C64.4184 147.159 64.3596 147.089 64.2819 147.049C63.4712 146.634 62.6867 146.232 61.9352 145.829C61.8574 145.789 61.7669 145.781 61.6835 145.808C61.6002 145.835 61.5308 145.895 61.4907 145.974C61.4506 146.054 61.443 146.146 61.4697 146.231C61.4963 146.316 61.555 146.387 61.6328 146.427C62.3843 146.823 63.1687 147.232 63.9861 147.647C64.0304 147.673 64.0802 147.686 64.1311 147.687ZM59.4508 145.214C59.5102 145.215 59.5687 145.199 59.6198 145.168C59.6709 145.137 59.7127 145.093 59.7405 145.039C59.7808 144.961 59.7896 144.869 59.7649 144.784C59.7402 144.699 59.6841 144.627 59.6083 144.583C58.7909 144.14 58.0196 143.711 57.2945 143.309C57.2566 143.282 57.2135 143.263 57.168 143.254C57.1225 143.245 57.0756 143.246 57.0304 143.256C56.9852 143.267 56.9426 143.287 56.9056 143.315C56.8686 143.344 56.8379 143.38 56.8155 143.421C56.7932 143.463 56.7796 143.509 56.7758 143.556C56.772 143.603 56.778 143.65 56.7934 143.695C56.8089 143.74 56.8333 143.78 56.8653 143.815C56.8972 143.849 56.9359 143.876 56.9788 143.894C57.704 144.303 58.4753 144.732 59.2993 145.181C59.3402 145.202 59.3852 145.213 59.4311 145.214L59.4508 145.214ZM192.466 144.087C192.55 144.087 192.631 144.054 192.692 143.995C192.753 143.937 192.79 143.856 192.795 143.771C192.795 143.247 192.834 142.71 192.833 142.179C192.833 141.803 192.832 141.427 192.832 141.058C192.831 141.013 192.821 140.97 192.803 140.929C192.786 140.889 192.76 140.852 192.728 140.822C192.696 140.792 192.658 140.769 192.617 140.754C192.576 140.739 192.532 140.733 192.489 140.736C192.446 140.738 192.403 140.748 192.364 140.767C192.324 140.785 192.289 140.811 192.26 140.844C192.23 140.876 192.208 140.914 192.193 140.956C192.178 140.997 192.171 141.041 192.173 141.085C192.173 141.448 192.174 141.817 192.174 142.18C192.175 142.697 192.175 143.221 192.136 143.731C192.134 143.775 192.14 143.82 192.154 143.861C192.168 143.903 192.19 143.942 192.219 143.975C192.248 144.008 192.283 144.035 192.322 144.054C192.361 144.073 192.403 144.084 192.446 144.087L192.466 144.087ZM54.8363 142.62C54.9082 142.619 54.9779 142.595 55.0347 142.55C55.0914 142.505 55.1322 142.442 55.1508 142.371C55.1694 142.301 55.1648 142.225 55.1376 142.158C55.1104 142.09 55.0622 142.033 55.0004 141.996C54.15 141.499 53.3853 141.05 52.726 140.655C52.6889 140.632 52.6476 140.616 52.6045 140.61C52.5615 140.603 52.5176 140.605 52.4753 140.616C52.4331 140.626 52.3933 140.645 52.3583 140.672C52.3233 140.698 52.2939 140.731 52.2716 140.769C52.2275 140.846 52.2146 140.938 52.2356 141.024C52.2566 141.111 52.3099 141.186 52.384 141.233C53.0433 141.635 53.8146 142.091 54.6716 142.573C54.716 142.599 54.7655 142.615 54.8166 142.62L54.8363 142.62ZM192.23 138.735L192.276 138.735C192.363 138.721 192.441 138.674 192.494 138.602C192.547 138.531 192.57 138.441 192.559 138.352C192.439 137.472 192.287 136.573 192.088 135.666C192.068 135.58 192.015 135.505 191.941 135.457C191.867 135.41 191.778 135.393 191.693 135.411C191.65 135.421 191.61 135.439 191.574 135.464C191.539 135.49 191.509 135.522 191.485 135.56C191.462 135.597 191.446 135.639 191.439 135.683C191.432 135.727 191.433 135.771 191.443 135.815C191.635 136.681 191.794 137.56 191.907 138.426C191.913 138.51 191.95 138.587 192.01 138.644C192.07 138.701 192.148 138.734 192.23 138.735ZM191.078 133.505C191.111 133.511 191.144 133.511 191.177 133.505C191.218 133.492 191.257 133.47 191.291 133.442C191.324 133.414 191.352 133.379 191.372 133.339C191.392 133.3 191.404 133.257 191.408 133.213C191.412 133.168 191.407 133.124 191.394 133.081C191.136 132.236 190.832 131.376 190.495 130.531C190.457 130.457 190.393 130.4 190.316 130.372C190.238 130.344 190.154 130.346 190.078 130.378C190.002 130.41 189.941 130.47 189.906 130.545C189.871 130.621 189.865 130.707 189.889 130.786C190.213 131.612 190.51 132.451 190.768 133.284C190.789 133.35 190.831 133.407 190.887 133.447C190.943 133.487 191.01 133.507 191.078 133.505ZM189.096 128.538C189.159 128.556 189.226 128.554 189.287 128.531C189.326 128.511 189.361 128.484 189.39 128.451C189.418 128.418 189.44 128.379 189.455 128.338C189.469 128.296 189.474 128.252 189.472 128.207C189.469 128.163 189.458 128.12 189.438 128.081C189.049 127.282 188.62 126.483 188.164 125.705C188.143 125.666 188.115 125.633 188.08 125.606C188.046 125.579 188.007 125.559 187.965 125.548C187.923 125.537 187.88 125.534 187.837 125.54C187.794 125.547 187.753 125.562 187.716 125.584C187.641 125.63 187.587 125.705 187.564 125.791C187.542 125.878 187.554 125.97 187.598 126.048C188.047 126.806 188.463 127.591 188.846 128.383C188.876 128.428 188.916 128.465 188.963 128.49C189.01 128.516 189.063 128.53 189.116 128.531L189.096 128.538ZM186.41 123.92C186.497 123.923 186.582 123.892 186.647 123.833C186.682 123.808 186.713 123.776 186.736 123.739C186.759 123.702 186.775 123.661 186.782 123.618C186.789 123.575 186.788 123.53 186.778 123.488C186.769 123.445 186.751 123.405 186.726 123.369C186.224 122.631 185.683 121.9 185.129 121.202C185.074 121.134 184.994 121.091 184.908 121.082C184.821 121.073 184.735 121.1 184.668 121.155C184.6 121.211 184.556 121.291 184.547 121.379C184.537 121.468 184.562 121.556 184.616 121.625C185.163 122.296 185.691 123.028 186.186 123.753C186.211 123.798 186.247 123.836 186.289 123.865C186.331 123.894 186.379 123.913 186.43 123.92L186.41 123.92ZM183.111 119.76C183.177 119.762 183.241 119.745 183.296 119.709C183.351 119.673 183.394 119.622 183.419 119.561C183.445 119.5 183.452 119.432 183.439 119.367C183.426 119.302 183.395 119.242 183.348 119.196C182.741 118.525 182.102 117.908 181.442 117.304C181.412 117.273 181.376 117.248 181.336 117.231C181.297 117.214 181.254 117.206 181.211 117.206C181.168 117.206 181.126 117.214 181.086 117.231C181.047 117.248 181.011 117.273 180.981 117.305C180.95 117.336 180.926 117.373 180.909 117.414C180.892 117.455 180.884 117.499 180.884 117.543C180.884 117.587 180.892 117.631 180.909 117.672C180.926 117.713 180.95 117.75 180.981 117.781C181.641 118.372 182.254 118.996 182.848 119.64C182.88 119.678 182.921 119.709 182.966 119.73C183.012 119.751 183.061 119.761 183.111 119.76Z" fill="#D1D3D4"/>
<path d="M179.168 116.146C179.218 116.146 179.266 116.135 179.311 116.113C179.356 116.091 179.394 116.058 179.425 116.018C179.478 115.947 179.502 115.857 179.491 115.767C179.479 115.678 179.434 115.597 179.365 115.542C179.009 115.273 178.653 115.005 178.29 114.744C178.255 114.716 178.214 114.695 178.171 114.684C178.128 114.673 178.083 114.67 178.038 114.677C177.994 114.684 177.952 114.7 177.914 114.724C177.876 114.749 177.843 114.78 177.818 114.818C177.793 114.855 177.775 114.898 177.766 114.942C177.757 114.987 177.757 115.033 177.766 115.077C177.775 115.122 177.793 115.164 177.819 115.202C177.844 115.239 177.877 115.271 177.915 115.295C178.271 115.549 178.621 115.811 178.964 116.079C179.023 116.124 179.094 116.148 179.168 116.146Z" fill="#D1D3D4"/>
<path d="M31.3781 76.1778C31.4199 76.1791 31.4614 76.1713 31.5 76.1551C31.5386 76.1388 31.5733 76.1145 31.602 76.0836C31.6327 76.0529 31.657 76.0163 31.6736 75.9759C31.6902 75.9356 31.6987 75.8922 31.6987 75.8485C31.6987 75.8047 31.69 75.7613 31.6734 75.721C31.6567 75.6807 31.6323 75.6441 31.6015 75.6135C31.6015 75.6135 31.2784 75.2647 30.7177 74.634C30.6913 74.5946 30.6569 74.5613 30.6168 74.5365C30.5768 74.5117 30.532 74.4959 30.4855 74.4901C30.439 74.4843 30.3918 74.4888 30.347 74.5031C30.3023 74.5174 30.2611 74.5412 30.2262 74.5731C30.1912 74.6049 30.1634 74.644 30.1444 74.6877C30.1255 74.7313 30.1159 74.7786 30.1163 74.8264C30.1167 74.8742 30.1271 74.9213 30.1469 74.9646C30.1666 75.008 30.1951 75.0465 30.2306 75.0777C30.7979 75.7487 31.1277 76.0774 31.1277 76.0774C31.1599 76.1115 31.1989 76.1381 31.2422 76.1555C31.2854 76.1728 31.3318 76.1804 31.3781 76.1778Z" fill="#D1D3D4"/>
<path d="M28.7392 73.1509C28.8187 73.1505 28.8955 73.1219 28.9566 73.0701C28.9872 73.0395 29.0115 73.0029 29.0281 72.9625C29.0447 72.9221 29.0533 72.8788 29.0532 72.835C29.0532 72.7912 29.0445 72.7479 29.0279 72.7075C29.0112 72.6672 28.9868 72.6306 28.9561 72.6C28.4481 71.9828 27.8808 71.2581 27.2739 70.5133C27.2194 70.4442 27.1404 70.3998 27.054 70.3898C26.9676 70.3799 26.8808 70.4051 26.8126 70.4601C26.7783 70.487 26.7496 70.5207 26.7284 70.5591C26.7071 70.5976 26.6936 70.64 26.6887 70.6839C26.6838 70.7277 26.6877 70.7722 26.7 70.8145C26.7123 70.8568 26.7329 70.8962 26.7604 70.9302C27.3674 71.7086 27.9413 72.4131 28.4558 73.0304C28.4895 73.0729 28.5331 73.1061 28.5826 73.1272C28.632 73.1483 28.6859 73.1564 28.7392 73.1509ZM25.4407 68.9237C25.5114 68.9207 25.5799 68.8974 25.6382 68.8564C25.7075 68.8007 25.7525 68.7194 25.7635 68.6302C25.7745 68.541 25.7506 68.4509 25.697 68.3795C25.189 67.7085 24.6612 66.9704 24.1267 66.2121C24.076 66.1391 23.9989 66.0897 23.9124 66.0747C23.8259 66.0596 23.7371 66.0803 23.6655 66.132C23.5939 66.1837 23.5454 66.2623 23.5307 66.3505C23.5159 66.4387 23.5362 66.5292 23.5869 66.6022C24.128 67.3671 24.6558 68.0986 25.177 68.7897C25.2033 68.8307 25.2382 68.8653 25.2793 68.8908C25.3204 68.9163 25.3665 68.9322 25.4143 68.9372L25.4407 68.9237ZM22.3396 64.515C22.4001 64.5168 22.4599 64.5013 22.5121 64.4702C22.5644 64.439 22.607 64.3935 22.6351 64.3389C22.6632 64.2842 22.6757 64.2226 22.6711 64.1611C22.6665 64.0996 22.645 64.0406 22.6091 63.9909C22.1274 63.2594 21.6391 62.5078 21.1639 61.7293C21.1165 61.6549 21.0425 61.6022 20.9577 61.5823C20.8729 61.5623 20.7838 61.5767 20.7092 61.6224C20.636 61.6706 20.5845 61.7465 20.5661 61.8334C20.5476 61.9203 20.5637 62.011 20.6109 62.0858C21.0662 62.8308 21.5546 63.5958 22.0627 64.3675C22.0907 64.4099 22.1278 64.4452 22.1712 64.4708C22.2146 64.4964 22.2632 64.5115 22.3132 64.515L22.3396 64.515ZM19.5149 59.9246C19.5732 59.9257 19.6305 59.9093 19.6796 59.8775C19.7173 59.8559 19.7503 59.8268 19.7767 59.7919C19.8032 59.7571 19.8224 59.7171 19.8335 59.6745C19.8445 59.6319 19.847 59.5875 19.8408 59.5439C19.8347 59.5003 19.82 59.4584 19.7977 59.4207C19.3489 58.6287 18.9198 57.8301 18.5303 57.0582C18.49 56.979 18.4205 56.9193 18.3371 56.8923C18.2537 56.8654 18.1631 56.8732 18.0854 56.9143C18.0077 56.9553 17.9492 57.0262 17.9227 57.1112C17.8962 57.1963 17.904 57.2885 17.9443 57.3677C18.3404 58.153 18.776 58.9517 19.2315 59.7571C19.2579 59.8041 19.2951 59.8439 19.3398 59.873C19.3846 59.9022 19.4356 59.9199 19.4886 59.9247L19.5149 59.9246ZM17.0656 55.1123C17.1113 55.1218 17.1584 55.1218 17.204 55.1121C17.2433 55.0941 17.2787 55.0681 17.308 55.0359C17.3373 55.0036 17.3599 54.9657 17.3746 54.9244C17.3893 54.883 17.3958 54.8391 17.3935 54.7952C17.3913 54.7513 17.3804 54.7083 17.3616 54.6688C16.9852 53.8297 16.6352 52.9974 16.3313 52.1919C16.3159 52.1503 16.2926 52.1122 16.2626 52.0798C16.2327 52.0475 16.1968 52.0215 16.1569 52.0034C16.117 51.9854 16.0741 51.9755 16.0304 51.9745C15.9868 51.9735 15.9434 51.9814 15.9028 51.9976C15.8215 52.0307 15.756 52.0949 15.7204 52.1764C15.6848 52.258 15.6819 52.3505 15.7122 52.4343C16.0293 53.2532 16.3728 54.099 16.7624 54.9447C16.7915 54.9937 16.832 55.0345 16.8803 55.0637C16.9286 55.093 16.9832 55.1097 17.0393 55.1123L17.0656 55.1123ZM15.1431 50.0644L15.242 50.0642C15.3251 50.0364 15.3943 49.9766 15.4348 49.8975C15.4753 49.8185 15.484 49.7264 15.4589 49.641C15.1945 48.7615 14.9696 47.8888 14.7974 47.0495C14.7783 46.9635 14.7269 46.8886 14.6541 46.8409C14.5813 46.7932 14.4931 46.7766 14.4084 46.7947C14.3236 46.8142 14.2496 46.8664 14.2018 46.9403C14.1539 47.0142 14.136 47.1041 14.1519 47.1912C14.3372 48.0506 14.5622 48.9435 14.8135 49.8767C14.8419 49.9337 14.8853 49.9815 14.9389 50.0146C14.9925 50.0478 15.0541 50.065 15.1168 50.0644L15.1431 50.0644ZM14.0307 44.7738L14.0637 44.7738C14.15 44.7652 14.2294 44.7222 14.2849 44.6543C14.3403 44.5863 14.3672 44.4989 14.3598 44.4108C14.3595 44.1288 14.3065 43.8535 14.293 43.5715C14.2923 42.9469 14.2324 42.3292 14.212 41.7315C14.212 41.6872 14.2032 41.6433 14.1861 41.6025C14.169 41.5617 14.144 41.5248 14.1126 41.4941C14.0812 41.4634 14.044 41.4395 14.0033 41.4238C13.9625 41.4081 13.9192 41.401 13.8757 41.4029C13.7889 41.4064 13.7068 41.4441 13.6467 41.508C13.5865 41.572 13.553 41.6571 13.5532 41.7457C13.5538 42.3568 13.6006 42.9745 13.6342 43.6125C13.6345 43.9012 13.6743 44.1832 13.701 44.472C13.7107 44.5545 13.7495 44.6306 13.8101 44.6861C13.8708 44.7417 13.9492 44.7728 14.0307 44.7738ZM13.8735 39.3614C13.9598 39.3613 14.0425 39.3268 14.104 39.2652C14.1656 39.2036 14.2009 39.1199 14.2026 39.032C14.2016 38.1187 14.2665 37.2188 14.3315 36.3457C14.335 36.3019 14.3299 36.2579 14.3165 36.2161C14.3031 36.1744 14.2816 36.1358 14.2534 36.1027C14.2251 36.0695 14.1906 36.0425 14.1519 36.0232C14.1132 36.0038 14.0711 35.9926 14.0281 35.9901C13.9848 35.9865 13.9412 35.9916 13.8999 36.0052C13.8585 36.0188 13.8203 36.0406 13.7872 36.0694C13.7542 36.0981 13.727 36.1332 13.7074 36.1727C13.6877 36.2122 13.6759 36.2552 13.6726 36.2994C13.6077 37.1792 13.5625 38.0925 13.5437 39.0192C13.5438 39.1078 13.5774 39.1929 13.6377 39.2567C13.6979 39.3205 13.7801 39.358 13.8669 39.3614L13.8735 39.3614ZM14.2961 33.9886C14.3756 33.988 14.4524 33.9585 14.5127 33.9056C14.5729 33.8526 14.6128 33.7796 14.6252 33.6995C14.7494 32.7995 14.9132 31.9129 15.1033 31.0666C15.1225 30.9775 15.1061 30.8843 15.0578 30.8076C15.0096 30.7308 14.9334 30.6767 14.846 30.6572C14.7586 30.6377 14.6672 30.6544 14.5919 30.7036C14.5166 30.7528 14.4635 30.8305 14.4444 30.9195C14.2542 31.7793 14.0905 32.6861 13.9597 33.6062C13.9483 33.6941 13.9708 33.7831 14.0225 33.8544C14.0742 33.9258 14.151 33.9739 14.2368 33.9887L14.2961 33.9886ZM15.483 28.7225C15.5526 28.7233 15.6207 28.7016 15.6775 28.6606C15.7343 28.6195 15.7768 28.5611 15.799 28.4939C16.0671 27.6483 16.3808 26.8185 16.7385 26.0082C16.7566 25.968 16.7668 25.9246 16.7685 25.8805C16.7702 25.8363 16.7633 25.7923 16.7483 25.7508C16.7332 25.7094 16.7103 25.6713 16.6809 25.6389C16.6514 25.6065 16.616 25.5803 16.5766 25.5618C16.5372 25.5433 16.4947 25.5329 16.4513 25.5312C16.408 25.5295 16.3648 25.5365 16.3241 25.5518C16.2834 25.5671 16.2461 25.5905 16.2143 25.6205C16.1825 25.6505 16.1568 25.6866 16.1387 25.7268C15.7704 26.561 15.448 27.4155 15.1729 28.2863C15.1457 28.3701 15.1519 28.4614 15.1902 28.5405C15.2285 28.6197 15.2958 28.6803 15.3776 28.7092C15.4128 28.7131 15.4485 28.7108 15.483 28.7024L15.483 28.7225ZM17.6783 23.8113C17.7344 23.8116 17.7897 23.7976 17.8392 23.7706C17.8886 23.7436 17.9307 23.7044 17.9614 23.6565C18.4149 22.8996 18.9205 22.1765 19.4744 21.4926C19.529 21.4238 19.5547 21.3358 19.5459 21.2478C19.5372 21.1598 19.4948 21.0788 19.4278 21.0225C19.3952 20.9938 19.3572 20.972 19.3162 20.9584C19.2751 20.9449 19.2318 20.9398 19.1888 20.9436C19.1458 20.9474 19.104 20.96 19.0659 20.9806C19.0277 21.0011 18.994 21.0292 18.9667 21.0633C18.3954 21.765 17.8722 22.506 17.401 23.281C17.3772 23.3182 17.3609 23.36 17.3534 23.4038C17.3458 23.4475 17.347 23.4924 17.3569 23.5357C17.3668 23.579 17.3852 23.6198 17.4109 23.6557C17.4367 23.6915 17.4694 23.7217 17.5069 23.7443C17.5585 23.7762 17.6179 23.7925 17.6783 23.7911L17.6783 23.8113ZM21.0603 19.6643C21.1395 19.6628 21.216 19.6344 21.2776 19.5835C21.9255 18.993 22.6165 18.4535 23.3446 17.9696C23.3834 17.947 23.4173 17.9165 23.4442 17.8801C23.4711 17.8437 23.4905 17.8021 23.5011 17.7578C23.5117 17.7135 23.5133 17.6675 23.5059 17.6225C23.4985 17.5776 23.4822 17.5346 23.458 17.4963C23.4337 17.458 23.4021 17.4251 23.365 17.3996C23.3279 17.3741 23.2861 17.3567 23.2422 17.3482C23.1982 17.3397 23.153 17.3405 23.1094 17.3504C23.0657 17.3603 23.0245 17.3792 22.9882 17.4059C22.2306 17.9083 21.511 18.468 20.8356 19.0803C20.7749 19.1443 20.741 19.2298 20.7411 19.3188C20.7412 19.4078 20.7753 19.4933 20.8362 19.5571C20.8978 19.6132 20.9776 19.6442 21.0602 19.6442L21.0603 19.6643ZM25.4911 16.725C25.5367 16.7342 25.5837 16.7341 25.6294 16.7249C26.4224 16.3558 27.2386 16.0409 28.0727 15.7821C28.16 15.7562 28.2336 15.696 28.2774 15.6147C28.3212 15.5335 28.3315 15.4378 28.3061 15.3488C28.2806 15.2597 28.2216 15.1846 28.1418 15.14C28.0621 15.0954 27.9682 15.0849 27.8809 15.1108C27.0174 15.3755 26.1726 15.6995 25.352 16.0805C25.3127 16.0986 25.2774 16.1245 25.2481 16.1568C25.2187 16.189 25.1961 16.2269 25.1814 16.2683C25.1667 16.3096 25.1603 16.3535 25.1625 16.3974C25.1647 16.4413 25.1756 16.4843 25.1944 16.5239C25.2219 16.5796 25.2644 16.6262 25.3169 16.6583C25.3695 16.6903 25.4298 16.7065 25.491 16.7049L25.4911 16.725ZM30.5623 15.1416L30.6216 15.1415C31.4823 14.988 32.3512 14.8861 33.2236 14.8366C33.2669 14.8339 33.3093 14.8226 33.3483 14.8033C33.3873 14.784 33.4221 14.757 33.4509 14.7239C33.4796 14.6908 33.5016 14.6522 33.5157 14.6104C33.5298 14.5686 33.5356 14.5244 33.5329 14.4803C33.5332 14.4352 33.5241 14.3906 33.5061 14.3495C33.488 14.3083 33.4616 14.2716 33.4285 14.2417C33.3954 14.2118 33.3564 14.1895 33.3141 14.1763C33.2718 14.1631 33.2273 14.1593 33.1834 14.1651C32.2868 14.2173 31.3939 14.3214 30.5089 14.4768C30.4231 14.4933 30.3469 14.5432 30.2965 14.6159C30.2462 14.6887 30.2256 14.7786 30.2392 14.8666C30.256 14.9405 30.2973 15.0063 30.3562 15.0527C30.4151 15.0991 30.4879 15.1234 30.5623 15.1214L30.5623 15.1416Z" fill="#D1D3D4"/>
<path d="M37.1968 14.9396C37.24 14.9431 37.2835 14.9379 37.3248 14.9242C37.3661 14.9106 37.4043 14.8888 37.4373 14.86C37.4703 14.8313 37.4975 14.7963 37.5172 14.7568C37.5369 14.7174 37.5488 14.6745 37.5522 14.6304C37.5556 14.5863 37.5505 14.5419 37.5371 14.4998C37.5237 14.4578 37.5023 14.4188 37.4741 14.3851C37.4172 14.3172 37.3361 14.2751 37.2488 14.268C36.8123 14.1989 36.3723 14.1546 35.931 14.1351C35.8436 14.1299 35.7578 14.1602 35.6924 14.2195C35.6269 14.2787 35.5873 14.3621 35.5821 14.4511C35.577 14.5402 35.6068 14.6277 35.6649 14.6944C35.723 14.761 35.8048 14.8015 35.8922 14.8067C36.6894 14.8529 37.1638 14.9262 37.1638 14.9262L37.1968 14.9396Z" fill="#D1D3D4"/>
<path d="M180.916 25.3259L200.797 41.8536C201.513 42.449 201.62 43.5234 201.036 44.2535L192.713 54.6562C192.129 55.3862 191.074 55.4954 190.358 54.9L170.477 38.3723C169.761 37.7769 169.654 36.7025 170.238 35.9724L178.561 25.5697C179.145 24.8397 180.199 24.7305 180.916 25.3259Z" fill="white"/>
<path d="M191.41 55.619L191.614 55.6188C192.132 55.5586 192.605 55.2926 192.931 54.8787L201.287 44.4611C201.456 44.2549 201.582 44.0165 201.66 43.7598C201.737 43.503 201.763 43.2332 201.736 42.9661C201.709 42.6989 201.631 42.4399 201.504 42.2043C201.378 41.9687 201.207 41.7611 201.001 41.5939L181.12 25.0614C180.918 24.8894 180.684 24.7602 180.432 24.6816C180.18 24.603 179.915 24.5765 179.653 24.6037C179.391 24.6309 179.137 24.7112 178.906 24.8399C178.675 24.9686 178.471 25.1431 178.307 25.3532L169.977 35.7641C169.808 35.9702 169.682 36.2086 169.605 36.4653C169.527 36.7221 169.501 36.9919 169.528 37.2591C169.555 37.5262 169.634 37.7852 169.76 38.0208C169.886 38.2565 170.057 38.464 170.263 38.6312L190.144 55.157C190.5 55.4569 190.948 55.6204 191.41 55.619ZM179.855 25.2777C180.164 25.2782 180.463 25.3843 180.705 25.579L200.586 42.1114C200.72 42.2254 200.831 42.3654 200.911 42.5232C200.992 42.6811 201.04 42.8537 201.055 43.0309C201.088 43.3931 200.982 43.7544 200.76 44.0385L192.43 54.4427C192.32 54.583 192.183 54.6993 192.028 54.7848C191.873 54.8703 191.703 54.9233 191.528 54.9406C191.174 54.975 190.822 54.8669 190.546 54.6395L170.678 38.107C170.539 37.9956 170.424 37.8569 170.338 37.6991C170.253 37.5413 170.2 37.3677 170.182 37.1885C170.164 37.0093 170.182 36.8283 170.234 36.6562C170.286 36.4841 170.371 36.3244 170.485 36.1866L178.815 25.7958C178.938 25.6344 179.096 25.5038 179.276 25.414C179.456 25.3242 179.654 25.2776 179.855 25.2777Z" fill="#D1D3D4"/>
<path d="M201.386 43.2346C201.473 43.2345 201.557 43.1991 201.619 43.136C201.68 43.073 201.715 42.9876 201.715 42.8985C201.719 42.8547 201.715 42.8105 201.703 42.7684C201.69 42.7263 201.669 42.6872 201.641 42.6534C201.614 42.6196 201.58 42.5918 201.541 42.5717C201.503 42.5516 201.461 42.5395 201.418 42.5362L184.86 41.0897L180.139 24.8502C180.128 24.8073 180.108 24.7673 180.081 24.7325C180.054 24.6976 180.021 24.6687 179.982 24.6474C179.944 24.6261 179.902 24.6129 179.859 24.6086C179.816 24.6043 179.772 24.6089 179.73 24.6223C179.648 24.6487 179.579 24.7072 179.538 24.7852C179.497 24.8631 179.489 24.9543 179.513 25.0388L184.287 41.4999C184.305 41.5649 184.341 41.6229 184.392 41.6661C184.443 41.7093 184.505 41.7356 184.571 41.7414L201.353 43.2347L201.386 43.2346Z" fill="#D1D3D4"/>
<path d="M183.923 39.3304C184.01 39.3303 184.094 39.2949 184.156 39.2318C184.218 39.1688 184.252 39.0834 184.252 38.9943C184.252 38.9053 184.217 38.8199 184.155 38.757C184.093 38.6941 184.01 38.6588 183.922 38.6589L169.914 37.0418C169.828 37.0342 169.742 37.0607 169.675 37.1158C169.607 37.1709 169.563 37.2504 169.552 37.3377C169.547 37.3818 169.55 37.4266 169.561 37.4695C169.573 37.5124 169.593 37.5525 169.62 37.5874C169.647 37.6224 169.681 37.6516 169.719 37.6732C169.757 37.6948 169.799 37.7085 169.842 37.7134L183.864 39.3305L183.923 39.3304Z" fill="#D1D3D4"/>
<path d="M191.43 55.6198C191.462 55.6262 191.496 55.6261 191.528 55.6197C191.57 55.6068 191.609 55.5854 191.642 55.5569C191.675 55.5284 191.702 55.4933 191.722 55.4538C191.742 55.4142 191.753 55.3711 191.756 55.3268C191.759 55.2826 191.753 55.2383 191.739 55.1964L187.37 41.5353C187.356 41.4912 187.334 41.4502 187.305 41.4147C187.276 41.3793 187.241 41.35 187.201 41.3285C187.161 41.307 187.117 41.2938 187.072 41.2896C187.027 41.2854 186.981 41.2903 186.938 41.304C186.895 41.3177 186.854 41.34 186.82 41.3695C186.785 41.3991 186.756 41.4353 186.735 41.4762C186.714 41.5171 186.701 41.5618 186.697 41.6077C186.693 41.6537 186.698 41.7 186.711 41.7441L191.08 55.4053C191.107 55.4752 191.156 55.534 191.219 55.5728C191.283 55.6116 191.356 55.6281 191.43 55.6198Z" fill="#D1D3D4"/>
<path d="M1.83325 98.1117L20.7499 89.7279C21.4306 89.4262 22.2224 89.7441 22.5184 90.438L26.7429 100.341C27.0389 101.035 26.7271 101.842 26.0464 102.143L7.12971 110.527C6.44902 110.829 5.65724 110.511 5.36124 109.817L1.13668 99.9142C0.840682 99.2204 1.15255 98.4134 1.83325 98.1117Z" fill="white"/>
<path d="M6.5827 110.969C6.80933 110.967 7.03328 110.919 7.24137 110.827L26.1539 102.44C26.3566 102.352 26.5402 102.225 26.6938 102.064C26.8475 101.904 26.9683 101.714 27.049 101.505C27.2166 101.085 27.2161 100.615 27.0476 100.196L22.8273 90.2951C22.6489 89.8816 22.3175 89.5566 21.9051 89.391C21.4928 89.2254 21.033 89.2326 20.6259 89.411L1.70669 97.7916C1.50522 97.8813 1.32305 98.0105 1.17061 98.172C1.01818 98.3335 0.898463 98.524 0.81829 98.7327C0.733707 98.939 0.690265 99.1605 0.690501 99.3842C0.690737 99.6079 0.734645 99.8292 0.819663 100.035L5.04655 109.923C5.13317 110.128 5.25877 110.314 5.4161 110.469C5.57344 110.624 5.75939 110.747 5.96326 110.828C6.15922 110.915 6.36939 110.962 6.5827 110.969ZM21.2457 89.9409C21.4434 89.9412 21.6367 90.0004 21.8019 90.1111C21.967 90.2219 22.0968 90.3795 22.1753 90.5644L26.4286 100.499C26.5325 100.748 26.5355 101.029 26.4371 101.281C26.3386 101.532 26.1467 101.734 25.903 101.842L6.98381 110.23C6.73478 110.334 6.45566 110.334 6.20641 110.23C6.08253 110.181 5.9696 110.107 5.87442 110.013C5.77923 109.918 5.70372 109.805 5.6524 109.68L1.42549 99.7729C1.32311 99.5215 1.32281 99.2389 1.42466 98.9872C1.47166 98.8595 1.54378 98.743 1.63658 98.6447C1.72938 98.5464 1.8409 98.4686 1.9643 98.4158L20.8703 90.0285C20.9881 89.9731 21.116 89.9432 21.2457 89.9409Z" fill="#D1D3D4"/>
<path d="M14.453 101.68C14.5083 101.681 14.563 101.668 14.6115 101.64C14.66 101.613 14.7007 101.574 14.7295 101.525L21.9642 89.8464C21.9871 89.8089 22.0025 89.7671 22.0096 89.7236C22.0167 89.68 22.0152 89.6354 22.0054 89.5924C21.9956 89.5494 21.9775 89.5088 21.9523 89.4729C21.9271 89.437 21.8951 89.4065 21.8583 89.3831C21.8215 89.3598 21.7806 89.3441 21.7379 89.3369C21.6951 89.3297 21.6514 89.3311 21.6092 89.3411C21.567 89.3512 21.5271 89.3696 21.4919 89.3953C21.4567 89.421 21.4268 89.4536 21.4039 89.4911L14.3139 100.975L1.23353 98.4303C1.19106 98.4206 1.14711 98.4197 1.10431 98.4278C1.0615 98.4358 1.02073 98.4526 0.984452 98.4771C0.948167 98.5016 0.917115 98.5333 0.893169 98.5703C0.869223 98.6074 0.852871 98.649 0.845105 98.6927C0.82966 98.7807 0.848642 98.8714 0.897968 98.9454C0.947292 99.0194 1.02306 99.0708 1.10907 99.0886L14.4068 101.68L14.453 101.68Z" fill="#D1D3D4"/>
<path d="M6.20057 110.907C6.25498 110.907 6.30858 110.894 6.35675 110.868C6.40492 110.842 6.44621 110.805 6.47711 110.759L12.7786 101.183C12.8261 101.109 12.8431 101.019 12.8257 100.932C12.8084 100.845 12.7581 100.769 12.6858 100.72C12.6501 100.695 12.6099 100.678 12.5674 100.669C12.525 100.66 12.4813 100.66 12.4389 100.669C12.3965 100.678 12.3563 100.695 12.3207 100.72C12.285 100.745 12.2546 100.777 12.2313 100.814L5.92993 110.417C5.88199 110.493 5.86483 110.584 5.88217 110.672C5.8995 110.76 5.94994 110.837 6.02265 110.887C6.07924 110.91 6.14057 110.917 6.20057 110.907Z" fill="#D1D3D4"/>
<path d="M26.6929 101.841C26.7719 101.842 26.8485 101.814 26.9089 101.762C26.9694 101.71 27.0095 101.638 27.022 101.559C27.0285 101.515 27.0265 101.47 27.0161 101.428C27.0057 101.385 26.9871 101.344 26.9613 101.309C26.9356 101.273 26.9032 101.243 26.8661 101.22C26.829 101.198 26.7878 101.183 26.7449 101.176L15.543 99.3211C15.4997 99.314 15.4555 99.3158 15.4129 99.3262C15.3703 99.3366 15.3301 99.3555 15.2947 99.3817C15.2592 99.4079 15.2292 99.441 15.2063 99.4791C15.1834 99.5171 15.168 99.5594 15.1612 99.6035C15.1543 99.6476 15.156 99.6927 15.1662 99.7361C15.1764 99.7795 15.1949 99.8205 15.2206 99.8566C15.2464 99.8927 15.2788 99.9234 15.3162 99.9467C15.3535 99.9701 15.395 99.9857 15.4383 99.9927L26.6402 101.848L26.6929 101.841Z" fill="#D1D3D4"/>
<path d="M133.701 15.9254L148.01 11.0736C148.524 10.8992 149.08 11.1829 149.251 11.7073L151.697 19.2008C151.868 19.7252 151.59 20.2917 151.075 20.4661L136.766 25.3179C136.252 25.4923 135.696 25.2086 135.525 24.6843L133.079 17.1907C132.908 16.6663 133.186 16.0999 133.701 15.9254Z" fill="white"/>
<path d="M136.471 25.6927C136.61 25.6923 136.747 25.6695 136.879 25.6252L151.19 20.775C151.52 20.6615 151.792 20.4198 151.947 20.1027C152.102 19.7853 152.128 19.4184 152.019 19.0819L149.573 11.5901C149.463 11.2547 149.227 10.9773 148.917 10.8179C148.608 10.6586 148.249 10.6302 147.919 10.739L133.608 15.5891C133.278 15.7028 133.006 15.9446 132.851 16.2618C132.696 16.5789 132.67 16.9457 132.779 17.2823L135.218 24.7741C135.306 25.042 135.474 25.275 135.699 25.4399C135.924 25.6048 136.194 25.6933 136.471 25.6927ZM136.674 24.9874C136.514 25.0548 136.334 25.0549 136.174 24.9879C136.096 24.9483 136.027 24.8936 135.971 24.8268C135.914 24.7601 135.871 24.6826 135.844 24.5988L133.392 17.1137C133.326 16.9503 133.325 16.7669 133.391 16.6034C133.468 16.4455 133.603 16.3247 133.766 16.2672L148.077 11.417C148.243 11.3624 148.423 11.3767 148.578 11.4568C148.731 11.5366 148.847 11.6738 148.901 11.8392L151.347 19.331C151.41 19.4951 151.41 19.6772 151.348 19.8414C151.268 19.9981 151.131 20.1165 150.966 20.1709L136.674 24.9874Z" fill="#D1D3D4"/>
<path d="M142.692 19.4548C142.743 19.4543 142.793 19.4419 142.839 19.4185C142.884 19.3952 142.924 19.3616 142.955 19.3203L148.975 11.2957C149.022 11.225 149.041 11.1386 149.027 11.0542C149.014 10.9698 148.97 10.8938 148.903 10.8416C148.837 10.7895 148.753 10.7651 148.67 10.7734C148.586 10.7818 148.509 10.8223 148.454 10.8867L142.592 18.7297L133.287 16.0533C133.245 16.0412 133.201 16.0376 133.158 16.0429C133.114 16.0481 133.072 16.0621 133.034 16.0841C132.996 16.106 132.963 16.1353 132.936 16.1705C132.91 16.2056 132.89 16.2459 132.879 16.2888C132.857 16.3743 132.868 16.4653 132.912 16.5419C132.955 16.6186 133.026 16.6747 133.11 16.6982L142.626 19.4683L142.692 19.4548Z" fill="#D1D3D4"/>
<path d="M136.098 25.6262C136.147 25.6269 136.196 25.6157 136.241 25.5935C136.286 25.5713 136.325 25.5387 136.354 25.4983L141.552 18.9252C141.607 18.8557 141.633 18.7668 141.623 18.678C141.614 18.5892 141.571 18.5079 141.502 18.4518C141.434 18.3958 141.347 18.3697 141.26 18.3792C141.173 18.3888 141.093 18.4332 141.038 18.5027L135.84 25.0825C135.786 25.1522 135.762 25.2407 135.772 25.3287C135.782 25.4168 135.825 25.4972 135.893 25.5526C135.952 25.5994 136.023 25.6253 136.098 25.6262Z" fill="#D1D3D4"/>
<path d="M151.62 20.3736C151.663 20.3788 151.707 20.3754 151.749 20.3633C151.791 20.3513 151.83 20.331 151.864 20.3035C151.899 20.276 151.927 20.2419 151.948 20.2032C151.97 20.1645 151.983 20.1218 151.989 20.0777C151.994 20.0336 151.99 19.9889 151.978 19.9462C151.967 19.9034 151.947 19.8635 151.92 19.8286C151.893 19.7937 151.859 19.7645 151.821 19.7428C151.783 19.7211 151.742 19.7072 151.698 19.702L143.672 17.6152C143.63 17.6042 143.586 17.6017 143.543 17.6079C143.5 17.6141 143.459 17.6288 143.421 17.6513C143.384 17.6738 143.352 17.7036 143.326 17.739C143.3 17.7743 143.281 17.8146 143.27 17.8574C143.259 17.8998 143.257 17.9439 143.263 17.9872C143.269 18.0305 143.284 18.0721 143.306 18.1096C143.328 18.1471 143.357 18.1797 143.392 18.2056C143.426 18.2314 143.466 18.2499 143.508 18.2601L151.534 20.3535L151.62 20.3736Z" fill="#D1D3D4"/>
</svg>
