<svg width="30" height="29" viewBox="0 0 30 29" fill="none" xmlns="http://www.w3.org/2000/svg">
<path d="M9.5002 22.2539L5.8632 25.305C5.73436 25.4116 5.57793 25.4795 5.41206 25.5008C5.24619 25.5221 5.07767 25.4959 4.92607 25.4253C4.77446 25.3547 4.64598 25.2426 4.55553 25.1019C4.46508 24.9613 4.41636 24.7979 4.41504 24.6306V7.07578C4.41504 6.84123 4.50821 6.61629 4.67407 6.45043C4.83992 6.28458 5.06486 6.19141 5.29941 6.19141H24.7557C24.9902 6.19141 25.2152 6.28458 25.381 6.45043C25.5469 6.61629 25.64 6.84123 25.64 7.07578V21.2258C25.64 21.4603 25.5469 21.6853 25.381 21.8511C25.2152 22.017 24.9902 22.1102 24.7557 22.1102H9.90922L9.5002 22.2539Z" stroke="#A1A1A1" stroke-width="2" stroke-linecap="round" stroke-linejoin="round"/>
<path d="M11.4902 12.3809H18.5652" stroke="#A1A1A1" stroke-width="2" stroke-linecap="round" stroke-linejoin="round"/>
<path d="M11.4902 15.918H18.5652" stroke="#A1A1A1" stroke-width="2" stroke-linecap="round" stroke-linejoin="round"/>
</svg>
