<svg width="24" height="24" viewBox="0 0 24 24" fill="none" xmlns="http://www.w3.org/2000/svg">
<path d="M5.10901 18.8903C4.24651 18.0278 4.81838 16.2184 4.37776 15.159C3.93713 14.0996 2.24963 13.1715 2.24963 11.9996C2.24963 10.8278 3.91838 9.93713 4.37776 8.84026C4.83713 7.74338 4.24651 5.97151 5.10901 5.10901C5.97151 4.24651 7.78088 4.81838 8.84026 4.37776C9.89963 3.93713 10.8278 2.24963 11.9996 2.24963C13.1715 2.24963 14.0621 3.91838 15.159 4.37776C16.2559 4.83713 18.0278 4.24651 18.8903 5.10901C19.7528 5.97151 19.1809 7.78088 19.6215 8.84026C20.0621 9.89963 21.7496 10.8278 21.7496 11.9996C21.7496 13.1715 20.0809 14.0621 19.6215 15.159C19.1621 16.2559 19.7528 18.0278 18.8903 18.8903C18.0278 19.7528 16.2184 19.1809 15.159 19.6215C14.0996 20.0621 13.1715 21.7496 11.9996 21.7496C10.8278 21.7496 9.93713 20.0809 8.84026 19.6215C7.74338 19.1621 5.97151 19.7528 5.10901 18.8903Z" fill="#00B0D7"/>
<path d="M16.1255 9.75043L10.6224 15.0004L7.87549 12.3754" stroke="white" stroke-width="2" stroke-linecap="round" stroke-linejoin="round"/>
</svg>
