<svg width="30" height="30" viewBox="0 0 30 30" fill="none" xmlns="http://www.w3.org/2000/svg">
<path d="M14.5625 29.125C22.6051 29.125 29.125 22.6051 29.125 14.5625C29.125 6.51985 22.6051 0 14.5625 0C6.51985 0 0 6.51985 0 14.5625C0 22.6051 6.51985 29.125 14.5625 29.125Z" fill="#D9D9D9"/>
<path fill-rule="evenodd" clip-rule="evenodd" d="M20.1238 10.4151C20.5143 10.0246 20.5143 9.39143 20.1238 9.0009C19.7333 8.61038 19.1001 8.61038 18.7096 9.0009L14.5625 13.148L10.4155 9.0009C10.0249 8.61038 9.39176 8.61038 9.00124 9.0009C8.61071 9.39143 8.61071 10.0246 9.00124 10.4151L13.1483 14.5622L9.00124 18.7092C8.61071 19.0998 8.61071 19.7329 9.00124 20.1234C9.39176 20.514 10.0249 20.514 10.4155 20.1234L14.5625 15.9764L18.7096 20.1234C19.1001 20.514 19.7333 20.514 20.1238 20.1234C20.5143 19.7329 20.5143 19.0998 20.1238 18.7092L15.9767 14.5622L20.1238 10.4151Z" fill="white"/>
</svg>
