<svg width="32" height="23" viewBox="0 0 32 23" fill="none" xmlns="http://www.w3.org/2000/svg">
<rect width="32" height="22.8571" rx="2" fill="#108EE9"/>
<path fill-rule="evenodd" clip-rule="evenodd" d="M6.90642 7.77148H6.79975C5.91335 7.79015 5.04029 8.14482 4.39655 8.75495C3.64189 9.45362 3.20882 10.4718 3.19922 11.4979V11.5934C3.21735 12.5982 3.63815 13.5928 4.37095 14.284C5.02002 14.9112 5.90962 15.2766 6.81255 15.2915H6.91709C8.13735 15.2776 9.31175 14.5944 9.94642 13.556C10.4894 12.6952 10.6563 11.6126 10.4152 10.6254C10.2131 9.77362 9.70322 8.99762 8.99709 8.47922C8.39709 8.03122 7.65469 7.78535 6.90642 7.77148ZM5.24935 10.827C5.59389 10.9278 5.96135 10.8664 6.29682 10.7582C6.48168 10.6972 6.66365 10.6275 6.84563 10.5579L6.84564 10.5579L6.84564 10.5579L6.84565 10.5579L6.84565 10.5579C7.13987 10.4452 7.4341 10.3326 7.74055 10.2568C8.15069 10.1608 8.61149 10.2382 8.94002 10.5102C9.00502 10.5726 9.00487 10.6628 9.00473 10.7483C9.0047 10.7695 9.00467 10.7903 9.00562 10.8104C9.00195 11.0857 9.00326 11.3612 9.00456 11.6366C9.00648 12.0424 9.0084 12.4482 8.99442 12.8536C8.94495 12.8326 8.89575 12.8102 8.84649 12.7879L8.84646 12.7879L8.84642 12.7878L8.84639 12.7878L8.84636 12.7878C8.64335 12.6956 8.43924 12.603 8.21095 12.5987C7.73487 12.5725 7.29479 12.7305 6.85386 12.8888L6.85386 12.8888C6.49508 13.0177 6.13575 13.1467 5.75602 13.1768C5.41149 13.2008 5.05149 13.1192 4.77202 12.9118C4.71477 12.8325 4.71762 12.7333 4.72042 12.6362C4.72155 12.5967 4.72268 12.5576 4.71975 12.5203C4.72506 12.2739 4.72271 12.027 4.72036 11.7801C4.71657 11.382 4.71278 10.9838 4.74109 10.5875C4.80395 10.6155 4.86444 10.6488 4.92491 10.6821C5.02912 10.7395 5.13326 10.7969 5.24935 10.827ZM12.4797 9.64441H12.4797C12.291 9.6456 12.1024 9.6468 11.9139 9.64455C11.9136 10.2776 11.9136 10.9108 11.9136 11.5441C11.9136 12.1774 11.9136 12.8107 11.9134 13.444C12.1235 13.4443 12.3335 13.4443 12.5435 13.4443C12.7535 13.4443 12.9635 13.4443 13.1736 13.4446C13.4792 13.4451 13.788 13.3864 14.0611 13.2451C14.7875 12.8888 15.2083 12.0323 15.0691 11.2382C14.9539 10.4115 14.2318 9.70908 13.3928 9.65308C13.0886 9.64057 12.7841 9.64249 12.4797 9.64441ZM12.7077 12.3158C12.7093 11.6977 12.7108 11.0797 12.7054 10.4616C12.7868 10.4641 12.8688 10.4627 12.9508 10.4613C13.1302 10.4581 13.3099 10.455 13.4856 10.4931C13.9235 10.5934 14.2611 11.0014 14.292 11.4472C14.3384 11.891 14.0808 12.3491 13.6712 12.5304C13.4492 12.6353 13.2052 12.6302 12.9637 12.6252C12.8774 12.6234 12.7915 12.6216 12.707 12.6248L12.7077 12.3158ZM16.4803 11.1811C16.5059 10.3571 17.2478 9.61682 18.0819 9.64508C18.8995 9.63655 19.6174 10.3608 19.6499 11.1688C19.6584 11.633 19.6571 12.0974 19.6558 12.5618V12.5618V12.5618V12.5618C19.6549 12.8556 19.6541 13.1493 19.6558 13.443L19.6552 13.443H19.6549H19.6549H19.6548C19.3901 13.4435 19.1258 13.444 18.8616 13.443C18.8603 13.3069 18.8604 13.1709 18.8606 13.035V13.0347V13.0347V13.0347C18.8607 12.8989 18.8608 12.7631 18.8595 12.6275C18.5476 12.6291 18.236 12.6288 17.9244 12.6285H17.9243H17.9243H17.9243C17.7062 12.6283 17.4882 12.6281 17.2702 12.6286C17.2694 12.73 17.2697 12.8314 17.2701 12.9329C17.2708 13.1042 17.2714 13.2756 17.2664 13.4467C17.0904 13.4424 16.9146 13.4429 16.7389 13.4434H16.7389H16.7389H16.7389C16.6511 13.4436 16.5633 13.4438 16.4755 13.4435C16.4765 13.1693 16.4757 12.8949 16.475 12.6207C16.4737 12.1406 16.4725 11.6606 16.4803 11.1811ZM17.4734 10.7342C17.2569 10.968 17.2632 11.2836 17.2693 11.586C17.2708 11.6629 17.2723 11.7389 17.2702 11.8126C17.482 11.8128 17.6939 11.8126 17.9058 11.8125H17.9062C18.224 11.8123 18.5418 11.8121 18.8595 11.8131C18.8575 11.7398 18.8592 11.6641 18.8609 11.5877L18.8609 11.5876C18.8676 11.292 18.8745 10.9841 18.6707 10.7507C18.3864 10.3774 17.7678 10.3688 17.4734 10.7342ZM21.0451 11.1896C21.0686 10.4643 21.6355 9.79122 22.3549 9.66908C22.8904 9.56615 23.4643 9.77682 23.8131 10.1939C24.083 10.491 24.2206 10.8931 24.2206 11.292C24.2216 11.7702 24.2213 12.2482 24.2209 12.7262C24.2207 12.9653 24.2206 13.2044 24.2206 13.4435C24.1306 13.444 24.0406 13.4437 23.9506 13.4434H23.9505H23.9505C23.7769 13.4428 23.6031 13.4421 23.4296 13.4478C23.4239 13.0414 23.4248 12.6349 23.4257 12.2283C23.4264 11.9157 23.4271 11.603 23.4248 11.2904C23.4291 11.0003 23.2739 10.7112 23.02 10.5672C22.7565 10.4094 22.3997 10.4328 22.1581 10.6227C21.9491 10.779 21.8323 11.0392 21.836 11.2984C21.8348 11.7066 21.835 12.1146 21.8351 12.5226V12.5243C21.8353 12.8307 21.8354 13.137 21.835 13.4435C21.7382 13.4431 21.6414 13.4433 21.5446 13.4434C21.3753 13.4438 21.2059 13.4441 21.0366 13.4414C21.0422 13.0795 21.0412 12.7176 21.0401 12.3557V12.3554C21.039 11.9668 21.0379 11.5781 21.0451 11.1896ZM25.8643 10.3811C26.171 9.90322 26.7374 9.59495 27.3096 9.64935C27.9566 9.68935 28.5304 10.1822 28.7096 10.7982C28.7758 11.0061 28.7789 11.2234 28.7821 11.4404V11.4405C28.7838 11.5646 28.7856 11.6887 28.7992 11.811V13.4392C28.596 13.4448 28.3928 13.4441 28.1896 13.4434L28.1892 13.4434C28.1216 13.4432 28.054 13.443 27.9864 13.443C27.9861 13.3557 27.9862 13.2684 27.9864 13.1811V13.18V13.1798C27.9867 12.9948 27.987 12.8097 27.9827 12.6248C27.661 12.6297 27.3391 12.629 27.0171 12.6284H27.0171C26.8101 12.6279 26.6031 12.6275 26.396 12.6286C26.3958 12.7643 26.3958 12.9 26.3958 13.0358C26.3958 13.1716 26.3958 13.3075 26.3955 13.4435H25.6008C25.6006 13.0934 25.6006 12.7434 25.6006 12.3934C25.6006 12.0435 25.6006 11.6936 25.6003 11.3438C25.5966 11.0067 25.6771 10.6643 25.8643 10.3811ZM26.595 10.7395C26.3827 10.9725 26.3891 11.2855 26.3951 11.5856C26.3967 11.6627 26.3982 11.7388 26.396 11.8126C26.7492 11.8129 27.1023 11.8128 27.4553 11.8127H27.4562L27.9859 11.8126C27.9835 11.7374 27.9852 11.6597 27.9869 11.5813V11.5812C27.9932 11.2869 27.9997 10.9811 27.7955 10.7491C27.5086 10.3752 26.8872 10.3704 26.595 10.7395Z" fill="white"/>
</svg>
