<svg width="24" height="24" viewBox="0 0 24 24" fill="none" xmlns="http://www.w3.org/2000/svg">
<path d="M7.3335 5.9375L11.271 2L15.2085 5.9375" stroke="black" stroke-width="1.5" stroke-linecap="round" stroke-linejoin="round"/>
<path d="M11.333 12.666V2.16602" stroke="black" stroke-width="1.5" stroke-linecap="round" stroke-linejoin="round"/>
<path d="M16.2667 8.66699H18.5667C18.77 8.66699 18.965 8.75596 19.1088 8.91432C19.2526 9.07269 19.3333 9.28748 19.3333 9.51144V20.4892C19.3333 20.7132 19.2526 20.928 19.1088 21.0863C18.965 21.2447 18.77 21.3337 18.5667 21.3337H4.76667C4.56333 21.3337 4.36833 21.2447 4.22455 21.0863C4.08077 20.928 4 20.7132 4 20.4892V9.51144C4 9.28748 4.08077 9.07269 4.22455 8.91432C4.36833 8.75596 4.56333 8.66699 4.76667 8.66699H7.06667" stroke="black" stroke-width="1.5" stroke-linecap="round" stroke-linejoin="round"/>
</svg>
