<svg width="60" height="63" viewBox="0 0 60 63" fill="none" xmlns="http://www.w3.org/2000/svg">
<path d="M13.5938 52.5674C15.0856 52.5674 16.5163 51.9605 17.5712 50.8803C18.6261 49.8 19.2188 48.3349 19.2188 46.8071C19.2188 45.2794 18.6261 43.8143 17.5712 42.734C16.5163 41.6538 15.0856 41.0469 13.5938 41.0469H10.3125V52.5674H13.5938Z" stroke="#2A348D" stroke-width="2" stroke-linecap="round" stroke-linejoin="round"/>
<path d="M30.4688 52.5674C33.3165 52.5674 35.625 49.9884 35.625 46.8071C35.625 43.6258 33.3165 41.0469 30.4688 41.0469C27.621 41.0469 25.3125 43.6258 25.3125 46.8071C25.3125 49.9884 27.621 52.5674 30.4688 52.5674Z" stroke="#2A348D" stroke-width="2" stroke-linecap="round" stroke-linejoin="round"/>
<path d="M49.6875 51.2473C48.7904 52.0871 47.6216 52.5574 46.4062 52.5674C43.5469 52.5674 41.25 49.9993 41.25 46.8071C41.25 43.615 43.5469 41.0469 46.4062 41.0469C47.6216 41.0569 48.7904 41.5271 49.6875 42.3669" stroke="#2A348D" stroke-width="2" stroke-linecap="round" stroke-linejoin="round"/>
<path d="M11.25 31.4463V10.3254C11.25 9.81612 11.4475 9.32774 11.7992 8.96765C12.1508 8.60757 12.6277 8.40527 13.125 8.40527H35.625L48.75 21.8459V31.4463" stroke="#2A348D" stroke-width="2" stroke-linecap="round" stroke-linejoin="round"/>
<path d="M35.625 8.40527V21.8459H48.75" stroke="#2A348D" stroke-width="2" stroke-linecap="round" stroke-linejoin="round"/>
</svg>
