<svg width="60" height="63" viewBox="0 0 60 63" fill="none" xmlns="http://www.w3.org/2000/svg">
<path d="M28.125 41.0469V52.5674H34.6875" stroke="#269A55" stroke-width="2" stroke-linecap="round" stroke-linejoin="round"/>
<path d="M12.1875 41.0469L20.625 52.5674" stroke="#269A55" stroke-width="2" stroke-linecap="round" stroke-linejoin="round"/>
<path d="M20.625 41.0469L12.1875 52.5674" stroke="#269A55" stroke-width="2" stroke-linecap="round" stroke-linejoin="round"/>
<path d="M41.25 51.6071C42.2658 52.383 43.4984 52.8037 44.7656 52.8072C46.875 52.8072 48.75 52.0871 48.75 49.687C48.75 45.8469 41.25 47.5269 41.25 43.9268C41.25 42.0067 42.6562 40.8066 44.7656 40.8066C46.0329 40.8101 47.2654 41.2308 48.2812 42.0067" stroke="#269A55" stroke-width="2" stroke-linecap="round" stroke-linejoin="round"/>
<path d="M11.25 31.4463V10.3254C11.25 9.81612 11.4475 9.32774 11.7992 8.96765C12.1508 8.60757 12.6277 8.40527 13.125 8.40527H35.625L48.75 21.8459V31.4463" stroke="#269A55" stroke-width="2" stroke-linecap="round" stroke-linejoin="round"/>
<path d="M35.625 8.40527V21.8459H48.75" stroke="#269A55" stroke-width="2" stroke-linecap="round" stroke-linejoin="round"/>
</svg>
