<svg width="60" height="63" viewBox="0 0 60 63" fill="none" xmlns="http://www.w3.org/2000/svg">
<path d="M11.25 48.7272H15C15.9946 48.7272 16.9484 48.3226 17.6516 47.6025C18.3549 46.8823 18.75 45.9055 18.75 44.887C18.75 43.8686 18.3549 42.8918 17.6516 42.1716C16.9484 41.4515 15.9946 41.0469 15 41.0469H11.25V52.5674" stroke="#FF6B00" stroke-width="2" stroke-linecap="round" stroke-linejoin="round"/>
<path d="M26.25 48.7272H30C30.9946 48.7272 31.9484 48.3226 32.6516 47.6025C33.3549 46.8823 33.75 45.9055 33.75 44.887C33.75 43.8686 33.3549 42.8918 32.6516 42.1716C31.9484 41.4515 30.9946 41.0469 30 41.0469H26.25V52.5674" stroke="#FF6B00" stroke-width="2" stroke-linecap="round" stroke-linejoin="round"/>
<path d="M48.75 41.0469H40.3125" stroke="#FF6B00" stroke-width="2" stroke-linecap="round" stroke-linejoin="round"/>
<path d="M44.5312 52.5674V41.0469" stroke="#FF6B00" stroke-width="2" stroke-linecap="round" stroke-linejoin="round"/>
<path d="M11.25 31.4463V10.3254C11.25 9.81612 11.4475 9.32774 11.7992 8.96765C12.1508 8.60757 12.6277 8.40527 13.125 8.40527H35.625L48.75 21.8459V31.4463" stroke="#FF6B00" stroke-width="2" stroke-linecap="round" stroke-linejoin="round"/>
<path d="M35.625 8.40527V21.8459H48.75" stroke="#FF6B00" stroke-width="2" stroke-linecap="round" stroke-linejoin="round"/>
</svg>
