<svg width="35" height="35" viewBox="0 0 35 35" fill="none" xmlns="http://www.w3.org/2000/svg">
<path d="M35 17.5C35 27.165 27.165 35 17.5 35C7.83502 35 0 27.165 0 17.5C0 7.83502 7.83502 0 17.5 0C27.165 0 35 7.83502 35 17.5Z" fill="#FF0000" fill-opacity="0.8"/>
<path d="M9.87545 23.8406V18.4226H15.4148V17.0356H9.87545V12.7359H15.9089V11.3316H8.31508V23.8406H9.87545Z" fill="white"/>
<path d="M19.2551 12.7186H22.2631C23.8755 12.7186 24.8464 13.6114 24.8464 15.1111C24.8464 16.6455 23.9362 17.5124 22.3325 17.5124H19.2551V12.7186ZM19.2551 18.8907H22.3325L25.0111 23.8406H26.8402L23.9449 18.648C25.5139 18.1539 26.4588 16.8015 26.4588 15.0591C26.4588 12.8052 24.8811 11.3316 22.4712 11.3316H17.6947V23.8406H19.2551V18.8907Z" fill="white"/>
</svg>
