<svg width="32" height="23" viewBox="0 0 32 23" fill="none" xmlns="http://www.w3.org/2000/svg">
<rect width="32" height="22.8571" rx="2" fill="white"/>
<path fill-rule="evenodd" clip-rule="evenodd" d="M5.15915 8.75297C5.46264 8.70352 5.774 8.70925 6.07891 8.73971C6.36161 8.79811 6.64682 8.86332 6.90623 8.9941C7.43114 9.24456 7.87794 9.65051 8.17569 10.1503C8.42256 10.6122 8.5924 11.1303 8.56696 11.6595C8.57412 12.7459 7.88583 13.781 6.91089 14.2429C6.27885 14.5435 5.54361 14.5847 4.86821 14.4199C4.41138 14.2794 3.97067 14.0522 3.63781 13.7033C3.32071 13.4091 3.08137 13.0343 2.92945 12.6309C2.73131 12.1346 2.71339 11.5828 2.79759 11.0601C2.95166 10.2836 3.43143 9.57169 4.11041 9.15892C4.42643 8.95075 4.78975 8.82714 5.15915 8.75297ZM4.75356 10.1471C4.52496 10.1704 4.27523 10.2507 4.14875 10.457C4.00901 10.6547 3.99443 10.902 3.98058 11.1369L3.97712 11.1944C3.97427 11.2537 3.96898 11.3129 3.96369 11.372L3.96369 11.372C3.95302 11.4914 3.94234 11.6109 3.95168 11.7312C3.95864 11.8124 3.96356 11.8939 3.96847 11.9753C3.98076 12.1789 3.99304 12.3826 4.03731 12.5825C4.09213 12.8344 4.31894 13.0296 4.56903 13.0755C5.03513 13.1595 5.50995 13.1522 5.98193 13.1448H5.98193L6.11152 13.1429C6.30464 13.1321 6.49777 13.1124 6.68874 13.082C6.97467 13.0447 7.22727 12.8118 7.27421 12.5252C7.35626 12.1737 7.37095 11.8111 7.34658 11.4524C7.30072 11.2224 7.13805 11.0149 6.91698 10.9307C6.81738 10.8826 6.7069 10.8829 6.59854 10.8832C6.57943 10.8832 6.56039 10.8833 6.54148 10.8831C6.32833 10.8833 6.11518 10.8832 5.90204 10.8831C5.52904 10.8829 5.1561 10.8827 4.7833 10.8845C4.74044 10.8853 4.70044 10.8706 4.6608 10.8561C4.64609 10.8507 4.63143 10.8453 4.61669 10.8408C4.61561 10.7605 4.61848 10.6405 4.72633 10.6383C5.00715 10.632 5.28824 10.6339 5.56931 10.6357C5.93948 10.6382 6.30962 10.6407 6.67907 10.6244C6.63894 10.4381 6.52536 10.2435 6.32972 10.1919C6.15308 10.1446 5.97035 10.1206 5.78869 10.1038C5.73688 10.1031 5.685 10.1021 5.63307 10.1011L5.63304 10.1011C5.33877 10.0955 5.04319 10.0899 4.75356 10.1471ZM6.75431 11.7122C6.66008 11.6867 6.54721 11.724 6.51425 11.8211C6.49356 11.9329 6.52671 12.0406 6.55964 12.1476C6.57347 12.1925 6.58727 12.2373 6.59702 12.2822L6.68301 12.332C6.71991 12.3105 6.75754 12.2912 6.79659 12.2744C6.80081 12.1798 6.8236 12.0888 6.84637 11.9979C6.85648 11.9576 6.86658 11.9173 6.87506 11.8766C6.8575 11.8096 6.81343 11.7484 6.75431 11.7122Z" fill="#01ACD7"/>
<path fill-rule="evenodd" clip-rule="evenodd" d="M12.2486 9.64573C11.9724 9.53752 11.6657 9.54971 11.3762 9.58554C10.7498 9.68228 10.2002 10.1603 10.0146 10.7661C9.93041 11.0062 9.9322 11.2653 9.95442 11.5157C10.0293 12.1563 10.5112 12.7189 11.1228 12.9149C11.5564 13.046 12.0566 13.0503 12.4568 12.8156C12.5091 12.7867 12.5565 12.751 12.604 12.7153C12.6483 12.6819 12.6927 12.6486 12.7409 12.6207L12.7417 12.654V12.654C12.7476 12.9181 12.7543 13.2167 12.5539 13.4161C12.4195 13.5802 12.2164 13.6666 12.0111 13.6981C11.5671 13.7795 11.0978 13.6279 10.7678 13.3241C10.6944 13.3988 10.6175 13.4702 10.5407 13.5415L10.5407 13.5415L10.5407 13.5415L10.5407 13.5415C10.4163 13.657 10.292 13.7725 10.1827 13.902C10.5281 14.2288 10.9655 14.4645 11.4399 14.5272C11.9036 14.5856 12.4023 14.5573 12.8154 14.3191C13.1659 14.1245 13.4418 13.7924 13.55 13.405C13.6171 13.212 13.6162 13.0058 13.6153 12.8041L13.6152 12.7701C13.6148 11.702 13.6148 10.6343 13.6152 9.56619C13.4473 9.56411 13.2794 9.5642 13.1115 9.5643C12.9902 9.56436 12.869 9.56443 12.7477 9.56368L12.7481 9.65169C12.7487 9.74704 12.7492 9.8424 12.747 9.93775C12.5976 9.81557 12.4324 9.70772 12.2486 9.64573ZM11.1483 10.5766C11.292 10.449 11.4826 10.4003 11.6685 10.3727C12.0387 10.3165 12.455 10.4859 12.6445 10.8174C12.721 10.9517 12.7178 11.1034 12.7146 11.2538V11.2538V11.2538V11.2538V11.2538C12.7135 11.3064 12.7124 11.3589 12.7148 11.4104C12.7459 11.7264 12.4998 12.0051 12.2178 12.1126C11.8771 12.2409 11.4568 12.2495 11.1594 12.0127C10.7137 11.6784 10.7047 10.9156 11.1483 10.5766ZM19.8611 9.5644C19.4906 9.56189 19.1044 9.6726 18.8374 9.9399L18.8306 9.83751L18.8306 9.83747L18.8306 9.83742L18.8306 9.83737L18.8306 9.83732C18.8268 9.77857 18.823 9.71996 18.8184 9.6615C18.5268 9.65791 18.2351 9.65684 17.9435 9.6615C17.9439 10.5458 17.9438 11.4301 17.9437 12.3144C17.9437 12.9776 17.9437 13.6408 17.9438 14.304C18.1488 14.3172 18.3542 14.3161 18.5596 14.3149H18.5596H18.5596H18.5596H18.5596C18.6551 14.3144 18.7506 14.3138 18.846 14.3148C18.8527 13.9051 18.8512 13.4952 18.8497 13.0853V13.0852V13.0852V13.0852V13.0851C18.8492 12.9451 18.8487 12.8051 18.8485 12.6651C19.492 13.1764 20.5164 13.1202 21.0951 12.5336C21.725 11.902 21.7612 10.7762 21.1546 10.1169C20.8353 9.75 20.3451 9.5472 19.8611 9.5644ZM18.8908 10.8944C18.985 10.611 19.2731 10.4419 19.5529 10.3863C19.8414 10.3279 20.1638 10.4007 20.3867 10.597C20.7644 10.9403 20.7672 11.5999 20.4111 11.9593C20.0539 12.305 19.4218 12.2986 19.0667 11.9528C18.9155 11.8192 18.8363 11.6099 18.8496 11.41C18.8526 11.3573 18.8512 11.3038 18.8497 11.2503C18.8465 11.1291 18.8433 11.0077 18.8908 10.8944ZM15.3271 9.60847C15.8363 9.50599 16.3934 9.56762 16.8367 9.85104C17.1738 10.0546 17.4304 10.3845 17.545 10.7611C17.7023 11.2559 17.6317 11.8221 17.3372 12.2527C17.0445 12.6866 16.5446 12.9525 16.0287 13.0023C15.7109 13.0238 15.3823 13.013 15.0817 12.8973C14.5837 12.73 14.1659 12.319 14.019 11.8113C13.8613 11.3355 13.9344 10.7909 14.2046 10.3695C14.4547 9.97537 14.8739 9.70628 15.3271 9.60847ZM15.5403 10.391C15.4135 10.4272 15.2949 10.4902 15.191 10.5709C14.8313 10.8543 14.7435 11.4147 14.9997 11.7941C15.2924 12.2767 16.0477 12.372 16.444 11.9679C16.6378 11.7898 16.7299 11.5239 16.7041 11.2635C16.7259 10.6859 16.0853 10.2204 15.5403 10.391ZM23.8576 9.5859C23.3362 9.51746 22.7716 9.5902 22.3391 9.90872C22.0894 10.1072 21.8758 10.3802 21.8335 10.7049C21.958 10.7262 22.0815 10.7531 22.205 10.7801C22.3658 10.8151 22.5267 10.8502 22.6899 10.8729C22.7605 10.5895 23.0063 10.3641 23.2947 10.3175C23.4814 10.2853 23.6756 10.295 23.8572 10.3502C24.0159 10.4017 24.1367 10.5755 24.0672 10.7411C23.9377 10.8591 23.7616 10.8948 23.5938 10.9288C23.5721 10.9332 23.5506 10.9376 23.5294 10.9421L23.442 10.9545C23.0161 11.0146 22.5733 11.0772 22.2108 11.3233C21.7626 11.6368 21.7608 12.3746 22.1754 12.7171C22.5175 13.0113 22.9994 13.0449 23.4287 12.988C23.7257 12.9324 24.0249 12.8038 24.2144 12.5591C24.2155 12.6195 24.2155 12.6798 24.2155 12.7402C24.2155 12.8007 24.2155 12.8611 24.2166 12.9217L24.4129 12.9212H24.4129H24.4129C24.6203 12.9205 24.8279 12.9198 25.0357 12.9231C25.0365 12.5183 25.0364 12.1137 25.0363 11.709V11.709V11.709C25.0362 11.4056 25.0361 11.1022 25.0364 10.7987C25.0396 10.5526 24.9497 10.3129 24.8142 10.1101C24.5942 9.80123 24.2209 9.64537 23.8576 9.5859ZM22.7296 12.0381C22.6823 11.926 22.7737 11.8152 22.8651 11.7601C23.0493 11.6585 23.2568 11.6206 23.4638 11.5828C23.7132 11.5372 23.9621 11.4918 24.1693 11.3351C24.1673 11.3843 24.1689 11.4358 24.1705 11.488V11.488V11.4881C24.1759 11.6644 24.1815 11.8488 24.0521 11.9804C23.802 12.2298 23.4212 12.2757 23.0847 12.2542C22.945 12.2459 22.7612 12.1976 22.7296 12.0381ZM25.3963 9.659C25.3 9.65917 25.2037 9.65935 25.1073 9.65935C25.3615 10.1904 25.6213 10.7188 25.8811 11.2473C26.1249 11.7431 26.3687 12.239 26.6079 12.7372C26.4903 12.9956 26.3625 13.2494 26.2347 13.5031C26.0996 13.7713 25.9645 14.0395 25.8415 14.3133C25.945 14.3129 26.0486 14.3137 26.1522 14.3145C26.3825 14.3162 26.6129 14.318 26.8429 14.3062C27.5979 12.759 28.3521 11.2119 29.1056 9.66401C28.767 9.65541 28.4288 9.65684 28.0905 9.66257C27.7659 10.3752 27.4374 11.0865 27.107 11.7963C27.0096 11.5859 26.9112 11.3761 26.8127 11.1662C26.6519 10.8234 26.4911 10.4806 26.3349 10.1359C26.3098 10.0798 26.2823 10.0248 26.2547 9.96976C26.2041 9.86887 26.1536 9.76802 26.1188 9.66042C25.878 9.65812 25.6372 9.65856 25.3963 9.659Z" fill="#010101"/>
</svg>
