<svg width="35" height="35" viewBox="0 0 35 35" fill="none" xmlns="http://www.w3.org/2000/svg">
<path d="M35 17.5C35 27.165 27.165 35 17.5 35C7.83502 35 0 27.165 0 17.5C0 7.83502 7.83502 0 17.5 0C27.165 0 35 7.83502 35 17.5Z" fill="#D9D9D9"/>
<path d="M9.36821 23.8406V19.4715L10.7205 17.9805L15.4103 23.8406H17.4041L11.8041 16.8709L16.9447 11.3316H14.9769L9.45489 17.4344H9.36821V11.3316H7.80783V23.8406H9.36821Z" fill="black"/>
<path d="M23.611 23.8406C26.2723 23.8406 27.85 22.5316 27.85 20.3297C27.85 18.6653 26.7577 17.469 25.0587 17.2523V17.183C26.2636 16.9663 27.2172 15.7526 27.2172 14.4523C27.2172 12.5799 25.7695 11.3316 23.6283 11.3316H18.7305V23.8406H23.611ZM20.2908 12.7099H23.2729C24.7899 12.7099 25.6395 13.3947 25.6395 14.6344C25.6395 15.9867 24.6339 16.7235 22.7874 16.7235H20.2908V12.7099ZM20.2908 22.4622V18.0672H23.2296C25.2234 18.0672 26.2463 18.804 26.2463 20.2517C26.2463 21.6994 25.258 22.4622 23.3769 22.4622H20.2908Z" fill="black"/>
</svg>
