<svg width="16" height="21" viewBox="0 0 16 21" fill="none" xmlns="http://www.w3.org/2000/svg">
<path d="M9 1.5C9 0.947715 8.55228 0.5 8 0.5C7.44772 0.5 7 0.947715 7 1.5L9 1.5ZM7.29289 20.2071C7.68342 20.5976 8.31658 20.5976 8.70711 20.2071L15.0711 13.8431C15.4616 13.4526 15.4616 12.8195 15.0711 12.4289C14.6805 12.0384 14.0474 12.0384 13.6569 12.4289L8 18.0858L2.34315 12.4289C1.95262 12.0384 1.31946 12.0384 0.928933 12.4289C0.538408 12.8195 0.538408 13.4526 0.928933 13.8431L7.29289 20.2071ZM7 1.5L7 19.5L9 19.5L9 1.5L7 1.5Z" fill="white"/>
</svg>
