<svg width="32" height="32" viewBox="0 0 32 32" fill="none" xmlns="http://www.w3.org/2000/svg">
<path d="M14 17.5205C14.5034 18.2304 15.1456 18.8179 15.8832 19.243C16.6207 19.6681 17.4363 19.9209 18.2745 19.9842C19.1128 20.0475 19.9542 19.9199 20.7416 19.6101C21.529 19.3002 22.2441 18.8153 22.8382 18.1882L26.3548 14.4784C27.4224 13.3123 28.0131 11.7505 27.9998 10.1293C27.9864 8.50812 27.37 6.95735 26.2834 5.81096C25.1967 4.66458 23.7267 4.01432 22.19 4.00023C20.6533 3.98615 19.1728 4.60936 18.0675 5.73565L16.0513 7.85024" stroke="black" stroke-width="2" stroke-linecap="round" stroke-linejoin="round"/>
<path d="M18 14.4795C17.4966 13.7696 16.8544 13.1821 16.1168 12.757C15.3793 12.3319 14.5637 12.0791 13.7255 12.0158C12.8872 11.9525 12.0458 12.0801 11.2584 12.3899C10.471 12.6998 9.75593 13.1847 9.16176 13.8118L5.64522 17.5216C4.57761 18.6877 3.98687 20.2495 4.00022 21.8707C4.01358 23.4919 4.62996 25.0427 5.71662 26.189C6.80328 27.3354 8.27326 27.9857 9.80997 27.9998C11.3467 28.0139 12.8272 27.3906 13.9325 26.2644L15.937 24.1498" stroke="black" stroke-width="2" stroke-linecap="round" stroke-linejoin="round"/>
</svg>
