<svg width="32" height="23" viewBox="0 0 32 23" fill="none" xmlns="http://www.w3.org/2000/svg">
<rect width="32" height="22.8571" rx="2" fill="#E82529"/>
<path fill-rule="evenodd" clip-rule="evenodd" d="M14.172 3.6744C14.3329 3.64133 14.5105 3.65188 14.6515 3.74267C14.8392 3.85668 14.9412 4.08353 14.9229 4.29982C14.8898 4.69041 14.5757 5.04276 14.188 5.11056C14.0085 5.14363 13.8126 5.10375 13.6707 4.98576C13.5304 4.87315 13.4521 4.69041 13.4638 4.51118C13.4947 4.12341 13.7798 3.74877 14.172 3.6744ZM20.1078 3.88671C20.2465 3.87477 20.3865 3.87656 20.5264 3.87835C20.612 3.87945 20.6977 3.88054 20.783 3.8785C20.8572 3.87898 20.9314 3.8787 21.0056 3.87843C21.1111 3.87804 21.2166 3.87764 21.322 3.87943C21.3701 3.87451 21.4124 3.92213 21.4002 3.96952C21.2633 4.96391 21.1255 5.95822 20.9876 6.95251L20.9871 6.95611C20.88 7.72853 20.773 8.50094 20.6664 9.27334L20.666 9.27574C20.6605 9.31165 20.6538 9.35487 20.6157 9.37116C20.5815 9.3801 20.5463 9.37974 20.5112 9.37938C20.4994 9.37926 20.4876 9.37913 20.4759 9.37937C20.2997 9.37855 20.1235 9.37873 19.9474 9.3789H19.9474H19.9474H19.9474H19.9473H19.9473H19.9473H19.9473H19.9473H19.9473H19.9473H19.9472C19.7711 9.37908 19.5951 9.37925 19.4191 9.37843C19.3613 9.38711 19.3123 9.32987 19.3287 9.27427C19.4751 8.2108 19.6226 7.14749 19.77 6.0842L19.77 6.08382L19.7701 6.08344L19.7701 6.08306L19.7702 6.0828L19.7702 6.08253L19.7703 6.08227L19.7703 6.082L19.7703 6.08174C19.868 5.37736 19.9656 4.67299 20.063 3.96858C20.067 3.93738 20.075 3.89984 20.1078 3.88671ZM10.0233 4.08948C9.84967 4.08769 9.67607 4.0859 9.50345 4.09784C9.44715 4.11496 9.41009 4.17032 9.40657 4.2278C9.30743 4.97059 9.20865 5.71345 9.10987 6.45635C9.03289 7.03532 8.95591 7.6143 8.87874 8.19329C8.85622 8.3514 8.87382 8.51608 8.93481 8.66411C9.12295 9.12296 9.62122 9.40705 10.1075 9.40494L10.3309 9.40509C10.9999 9.40553 11.669 9.40597 12.338 9.40471C12.399 9.40822 12.4534 9.35708 12.4562 9.29656L12.4936 9.04513C12.5324 8.78517 12.5712 8.52507 12.6075 8.26484C12.6209 8.20267 12.5599 8.14989 12.5001 8.15904C12.2461 8.15877 11.9921 8.15892 11.7381 8.15907C11.336 8.1593 10.9338 8.15954 10.5317 8.1581C10.3918 8.16443 10.271 8.02603 10.2982 7.88832C10.3846 7.28238 10.4724 6.67661 10.5603 6.07084C10.6481 5.46508 10.736 4.85931 10.8223 4.25337C10.8376 4.17619 10.7754 4.09573 10.697 4.09221C10.624 4.088 10.5507 4.08873 10.4775 4.08945C10.4322 4.0899 10.3869 4.09034 10.3416 4.08963C10.2357 4.09167 10.1295 4.09058 10.0233 4.08948H10.0233ZM16.1799 5.3747C16.5934 5.32849 17.0103 5.32521 17.4262 5.32239C17.8128 5.32474 18.2194 5.41271 18.5211 5.66794C18.7969 5.8969 18.9471 6.24878 18.9776 6.6009C18.9993 6.79684 18.9727 6.99179 18.9463 7.18607C18.9387 7.24161 18.9312 7.29709 18.9248 7.35252C18.8547 7.88006 18.7759 8.40629 18.6971 8.93244L18.6494 9.25129C18.647 9.3233 18.5792 9.37749 18.5086 9.36788C18.3688 9.36741 18.2289 9.36765 18.0891 9.36788C17.8756 9.36824 17.6622 9.36859 17.4487 9.36647C17.368 9.36694 17.3103 9.28037 17.3312 9.20484L17.3651 8.96676C17.424 8.55244 17.4829 8.13794 17.5463 7.72411C17.5558 7.65834 17.5662 7.59263 17.5767 7.52689L17.5767 7.52687L17.5767 7.52685L17.5767 7.52683L17.5767 7.52682L17.5767 7.5268L17.5767 7.52678L17.5767 7.52677L17.5767 7.52675L17.5767 7.52673C17.6095 7.32006 17.6424 7.11314 17.6449 6.90352L17.6446 6.89205C17.6422 6.77191 17.6395 6.63668 17.551 6.54507C17.4511 6.44302 17.3056 6.40338 17.1679 6.38625C16.9897 6.3649 16.8097 6.38273 16.6335 6.41159L16.4888 7.43163C16.3981 8.0707 16.3074 8.70974 16.2169 9.34887C16.0084 9.17059 15.7346 9.05564 15.4569 9.08613C15.2523 9.09294 15.0679 9.19029 14.8981 9.29562L14.9748 8.76749L14.9749 8.76701C15.0787 8.05227 15.1825 7.33762 15.2905 6.62342C15.3009 6.56097 15.3105 6.49835 15.3202 6.43571C15.3473 6.25927 15.3745 6.08269 15.4186 5.90957C15.4543 5.77538 15.5106 5.63604 15.6262 5.55088C15.7837 5.43102 15.9868 5.40215 16.1776 5.37503L16.1799 5.3747ZM13.5233 5.42157C13.4887 5.42142 13.4539 5.42126 13.4206 5.43101C13.3648 5.45048 13.3319 5.50678 13.328 5.56355C13.2597 6.05402 13.191 6.54446 13.1223 7.0349L13.1223 7.03497C13.0189 7.77344 12.9154 8.51192 12.8135 9.25058C12.7973 9.31486 12.8574 9.37632 12.9216 9.36741C13.2822 9.36811 13.6428 9.36834 14.0033 9.36741C14.092 9.37257 14.1636 9.29281 14.1654 9.20718C14.2386 8.6852 14.3121 8.16327 14.3857 7.64133L14.3857 7.6413L14.3858 7.641L14.3858 7.64077L14.3858 7.64054L14.3859 7.64032L14.3859 7.64009L14.3859 7.63986L14.386 7.63963L14.386 7.6394C14.4822 6.95651 14.5785 6.27359 14.6738 5.59053C14.6919 5.50983 14.6266 5.42279 14.5429 5.4235C14.3619 5.42117 14.1809 5.42155 13.9999 5.42193C13.8522 5.42224 13.7046 5.42255 13.5569 5.42139C13.5458 5.42167 13.5346 5.42162 13.5233 5.42157ZM22.3979 5.54079C22.4431 5.48426 22.5135 5.45071 22.5862 5.45376C22.7099 5.45383 22.8335 5.45363 22.9572 5.45342C23.2252 5.45297 23.4932 5.45253 23.7611 5.45493C23.8481 5.45235 23.8859 5.57293 23.8206 5.62642C23.4694 6.01603 23.1175 6.40494 22.7656 6.7939L22.4539 7.13834L22.806 7.89264L22.8069 7.89468C23.1068 8.53702 23.4067 9.17941 23.7057 9.82227C23.7636 9.91681 23.6848 10.0517 23.5736 10.0442C23.221 10.0456 22.8682 10.0454 22.5156 10.0444C22.4474 10.0496 22.3906 10.0006 22.3676 9.93957C22.133 9.42944 21.898 8.91945 21.663 8.40945L21.6629 8.4091L21.6627 8.40874L21.6626 8.40839L21.6624 8.40804L21.6622 8.40768L21.6621 8.40733L21.6619 8.40698C21.4613 7.9717 21.2608 7.53642 21.0605 7.10104C21.3005 6.82141 21.5402 6.54157 21.78 6.26175L21.7802 6.26151L21.7804 6.26126L21.7806 6.26102L21.7808 6.26078L21.7813 6.26016L21.7825 6.25878L21.7843 6.25663C21.9888 6.01796 22.1933 5.7793 22.3979 5.54079ZM15.8479 9.63273C15.7133 9.55179 15.5481 9.54171 15.3966 9.57033C14.9931 9.63953 14.6973 10.0264 14.6731 10.4245C14.6675 10.5821 14.7294 10.7414 14.8434 10.8507C14.9781 10.9833 15.1765 11.0405 15.3623 11.0142C15.7686 10.9633 16.1041 10.5955 16.1334 10.1896C16.1496 9.97077 16.041 9.74251 15.8479 9.63273ZM11.5569 9.99003C11.4596 9.98934 11.3614 9.98864 11.2673 10.017C11.0862 10.0688 10.9361 10.2075 10.8631 10.3806L10.088 12.0979C9.62917 13.1143 9.17034 14.1307 8.71219 15.1472C8.66761 15.2192 8.7333 15.3168 8.81634 15.3044C9.18488 15.3037 9.55342 15.3011 9.92196 15.298C9.99891 15.3006 10.0744 15.2549 10.1042 15.1833C10.1675 15.0385 10.2292 14.893 10.291 14.7475C10.3527 14.602 10.4145 14.4565 10.4777 14.3116C10.4899 14.2666 10.5389 14.2621 10.5781 14.2642C10.7658 14.2647 10.9536 14.2646 11.1413 14.2644C11.3916 14.2642 11.642 14.264 11.8923 14.2654C11.93 14.2609 11.9659 14.2895 11.9664 14.3283C11.9822 14.4723 11.9959 14.6165 12.0097 14.7607L12.0097 14.7609L12.0097 14.7609C12.0222 14.8912 12.0346 15.0215 12.0485 15.1517C12.0548 15.2488 12.1452 15.3278 12.242 15.3229C12.3473 15.3229 12.4525 15.3231 12.5578 15.3232C12.8209 15.3236 13.0841 15.324 13.3472 15.322C13.4384 15.3229 13.5086 15.2258 13.4847 15.1388C13.3137 14.1144 13.1418 13.09 12.9699 12.0657L12.6835 10.3581C12.6535 10.1566 12.4689 9.99352 12.2646 9.99118C12.1334 9.98949 12.002 9.98983 11.8707 9.99016H11.8705C11.783 9.99039 11.6954 9.99061 11.608 9.99024C11.5911 9.99027 11.5741 9.99015 11.5571 9.99003H11.5571H11.557H11.5569ZM11.26 12.4119L11.26 12.4118L11.26 12.4118L11.26 12.4118L11.26 12.4117L11.26 12.4117L11.26 12.4117C11.3785 12.1101 11.4969 11.8085 11.6206 11.5092C11.6457 11.4862 11.68 11.5155 11.6729 11.5458L11.6888 11.7182C11.7305 12.1703 11.7722 12.6226 11.8111 13.0748C11.8212 13.1232 11.7759 13.1635 11.7295 13.1584C11.6516 13.1581 11.5737 13.1585 11.4957 13.1589H11.4957H11.4957H11.4956H11.4956H11.4956L11.4951 13.1589H11.4951C11.3323 13.1596 11.1694 13.1604 11.0069 13.1558C10.9712 13.1403 10.9856 13.1048 10.9973 13.0757C11 13.069 11.0026 13.0627 11.0044 13.057C11.0908 12.8425 11.1754 12.6272 11.26 12.4119ZM21.3328 10.6343C21.2767 10.6336 21.2203 10.6329 21.1658 10.6466C21.0966 10.6633 21.0434 10.7254 21.0419 10.7975C20.9758 11.4754 20.9107 12.1536 20.8456 12.8317L20.7478 13.8497C20.7302 13.9271 20.7926 14.0109 20.874 14.0071C21.0622 14.0087 21.2506 14.0083 21.4389 14.0079H21.439H21.439H21.439H21.439L21.6275 14.0076C21.6948 14.0137 21.7579 13.9618 21.7659 13.8947C21.9647 12.9157 22.1626 11.9362 22.3604 10.9569L22.3608 10.9551L22.361 10.9542L22.3882 10.8193C22.4068 10.7512 22.3927 10.6473 22.3066 10.6382C22.1233 10.633 21.9397 10.6338 21.7561 10.6346H21.7561H21.756H21.756H21.756C21.6344 10.6351 21.5128 10.6356 21.3912 10.6344C21.3719 10.6348 21.3524 10.6345 21.3328 10.6343ZM19.7982 11.4222C19.3036 11.2873 18.7887 11.2242 18.2764 11.2514C17.8217 11.2683 17.3502 11.3663 16.9793 11.6441C16.6148 11.9092 16.3835 12.3206 16.2631 12.7485C16.1503 13.1539 16.105 13.5785 16.121 13.9989C16.1386 14.3667 16.2369 14.7597 16.516 15.0187C16.8102 15.2934 17.2249 15.3731 17.6127 15.4071C18.2489 15.467 18.8985 15.3755 19.492 15.139C19.5718 15.1104 19.6508 15.0651 19.6924 14.9879C19.7294 14.9199 19.737 14.843 19.7446 14.7665V14.7665C19.748 14.733 19.7513 14.6996 19.7571 14.667C19.8201 14.1703 19.8829 13.6735 19.9457 13.1768L19.9468 13.1681C20.0093 12.6744 20.0717 12.1807 20.1343 11.687C20.1425 11.6274 20.1442 11.5533 20.0883 11.5158C20.029 11.478 19.9606 11.4622 19.8924 11.4464C19.8606 11.4391 19.8289 11.4317 19.7982 11.4222ZM17.5665 13.1642C17.6083 12.9662 17.6721 12.765 17.8074 12.6097C17.9426 12.4483 18.1556 12.35 18.3672 12.3701C18.4884 12.3809 18.6083 12.4049 18.7273 12.4318L18.5037 14.173C18.3078 14.229 18.0995 14.2703 17.8963 14.2335C17.7242 14.2053 17.5918 14.0608 17.5445 13.8978C17.4734 13.658 17.5151 13.4035 17.5665 13.1642ZM15.2485 11.3211C15.0548 11.32 14.8612 11.3189 14.6682 11.3265C14.5924 11.3429 14.5391 11.414 14.5333 11.4895C14.4938 11.774 14.4549 12.0585 14.416 12.343C14.3173 13.0649 14.2186 13.7867 14.1108 14.5072C14.1048 14.5441 14.0992 14.5811 14.0935 14.6182C14.0606 14.8345 14.0272 15.054 13.9229 15.2488C13.8302 15.428 13.6784 15.572 13.5027 15.6694C13.3831 15.7408 13.2543 15.793 13.1256 15.8451C13.0902 15.8595 13.0549 15.8738 13.0197 15.8885C12.9615 15.9066 12.9254 15.9697 12.9533 16.0276C13.0378 16.2922 13.1241 16.5561 13.2107 16.8201L13.216 16.8342C13.2387 16.8945 13.2687 16.9745 13.3456 16.9667C13.5757 16.9273 13.7985 16.851 14.0148 16.7642C14.3609 16.6176 14.6984 16.4126 14.9192 16.1008C15.1172 15.8118 15.2345 15.4763 15.3196 15.139C15.4166 14.7536 15.4662 14.3597 15.5157 13.966C15.5336 13.8238 15.5515 13.6817 15.5716 13.54C15.6423 13.0382 15.7079 12.5357 15.7735 12.0331C15.7964 11.8574 15.8194 11.6816 15.8425 11.5059C15.8505 11.4555 15.8533 11.3966 15.8123 11.3588C15.7776 11.32 15.7254 11.3204 15.6765 11.3208H15.6765C15.6658 11.3209 15.6552 11.3209 15.645 11.3206C15.5129 11.3226 15.3807 11.3218 15.2485 11.3211H15.2485ZM21.0265 14.4254C21.2036 14.3841 21.3992 14.3876 21.5613 14.4775C21.7661 14.5849 21.8991 14.8143 21.8862 15.0459C21.8686 15.3795 21.6268 15.679 21.3169 15.7926C21.0959 15.8772 20.8325 15.8662 20.6331 15.7327C20.4735 15.6298 20.364 15.4482 20.363 15.2563C20.368 14.8744 20.649 14.5075 21.0265 14.4254ZM22.7969 17.3073C20.8714 17.27 18.9442 17.3514 17.0265 17.5238C14.9297 17.7192 12.8388 17.9836 10.7648 18.35C9.76127 18.5307 8.75934 18.7268 7.77148 18.9811C7.93662 19.0714 8.10149 19.1623 8.26635 19.2533C8.44317 19.3508 8.61998 19.4483 8.79711 19.545C8.99862 19.6555 9.24095 19.6851 9.46381 19.6307C9.61164 19.5947 9.75937 19.5582 9.90709 19.5217C10.1923 19.4512 10.4775 19.3808 10.7634 19.3137C12.6207 18.8715 14.503 18.5443 16.3915 18.2689C18.0974 18.0207 19.8113 17.8283 21.5297 17.6923C22.9191 17.5834 24.3116 17.5083 25.7053 17.49C25.5532 17.4652 25.3998 17.4512 25.2464 17.4372C25.1971 17.4328 25.1479 17.4283 25.0987 17.4234C24.3332 17.357 23.5652 17.323 22.7969 17.3073Z" fill="#FEFEFE"/>
</svg>
