<svg width="32" height="34" viewBox="0 0 32 34" fill="none" xmlns="http://www.w3.org/2000/svg">
<path d="M16 20.8068C17.3807 20.8068 18.5 19.6606 18.5 18.2466C18.5 16.8327 17.3807 15.6865 16 15.6865C14.6193 15.6865 13.5 16.8327 13.5 18.2466C13.5 19.6606 14.6193 20.8068 16 20.8068Z" stroke="#414141" stroke-width="2" stroke-linecap="round" stroke-linejoin="round"/>
<path d="M16 20.8066V23.8788" stroke="#414141" stroke-width="2" stroke-linecap="round" stroke-linejoin="round"/>
<path d="M26 11.5908H6C5.44772 11.5908 5 12.0493 5 12.6149V26.9515C5 27.5171 5.44772 27.9756 6 27.9756H26C26.5523 27.9756 27 27.5171 27 26.9515V12.6149C27 12.0493 26.5523 11.5908 26 11.5908Z" stroke="#414141" stroke-width="2" stroke-linecap="round" stroke-linejoin="round"/>
<path d="M11.5 11.5904V6.98223C11.5 5.76006 11.9741 4.58794 12.818 3.72374C13.6619 2.85953 14.8065 2.37402 16 2.37402C17.1935 2.37402 18.3381 2.85953 19.182 3.72374C20.0259 4.58794 20.5 5.76006 20.5 6.98223V11.5904" stroke="#414141" stroke-width="2" stroke-linecap="round" stroke-linejoin="round"/>
</svg>
