<svg width="160" height="36" viewBox="0 0 160 36" fill="none" xmlns="http://www.w3.org/2000/svg">
<path fill-rule="evenodd" clip-rule="evenodd" d="M6.88768 8.11669C7.09029 8.21593 7.2191 8.46285 6.65956 9.45834C6.53336 9.68274 5.70016 10.6781 5.50207 10.8811C2.77901 13.6719 1.22797 15.5965 0.360475 19.491C-0.470533 23.2214 -0.0101726 28.278 3.2867 30.5098C3.81715 30.869 4.52223 30.9193 5.18561 30.8422C6.56916 30.6811 9.11883 29.3325 10.3479 30.1645C13.9364 32.5934 15.267 36.014 20.0496 36C24.7185 35.9862 26.4789 32.4227 28.9147 28.968C29.1693 28.6069 29.4044 28.3248 29.6534 27.9661C29.8304 27.7111 29.8459 27.8233 30.0302 27.5074C30.4011 26.8717 32.5866 24.8962 33.1519 24.5027C33.8901 23.9886 36.4111 22.5132 36.8349 21.6387C37.164 20.9596 37.3821 20.2704 37.2024 19.4651C37.0262 18.6746 35.8285 17.5924 35.8253 16.4692C35.8155 12.9871 36.8053 12.9605 35.5577 8.95739C31.9677 -2.56173 6.51841 -0.447913 4.53979 5.68197C3.80494 7.95877 6.36491 7.86062 6.88796 8.11683L6.88768 8.11669Z" fill="#BCBCBC"/>
<path fill-rule="evenodd" clip-rule="evenodd" d="M7.12022 7.4226C7.32296 7.52184 7.45163 7.76876 6.89209 8.76425C6.76589 8.98865 5.93269 9.984 5.73461 10.187C3.01141 12.9778 1.46051 14.9025 0.592874 18.7969C-0.238133 22.5273 0.222364 27.5839 3.51909 29.8158C4.04955 30.1749 4.75463 30.2252 5.41801 30.1481C6.80156 29.9871 9.35123 28.6384 10.5802 29.4704C14.1687 31.8993 15.4994 35.3199 20.2819 35.3059C24.9508 35.2921 26.7112 31.7286 29.147 28.2739C29.4016 27.9128 29.6366 27.6307 29.8855 27.272C30.0625 27.017 30.078 27.1292 30.2624 26.8133C30.6333 26.1776 32.8187 24.2021 33.384 23.8086C34.1223 23.2945 36.6432 21.8191 37.0671 20.9446C37.3961 20.2655 37.6143 19.5763 37.4346 18.771C37.2583 17.9805 36.0606 16.8983 36.0575 15.7751C36.0476 12.293 37.0374 12.2664 35.7898 8.2633C32.1998 -3.25582 6.75053 -1.14201 4.77191 4.98788C4.03707 7.26467 6.59703 7.16653 7.12008 7.42274L7.12022 7.4226Z" fill="#F3EEEE"/>
<path fill-rule="evenodd" clip-rule="evenodd" d="M11.4414 15.9032C11.4214 16.1997 11.7163 17.323 11.9177 17.6797C12.6809 19.0327 16.6846 18.167 17.7026 18.0152C18.7888 17.8532 29.6536 12.6055 30.9478 10.9883C32.3654 9.2168 30.6588 6.46035 29.3152 5.25411C27.115 3.27884 21.6947 3.99887 19.0628 5.06724C14.3458 6.98205 11.7559 11.2665 11.4414 15.9031V15.9032Z" fill="#FFB919"/>
<path fill-rule="evenodd" clip-rule="evenodd" d="M11.9102 17.6651C12.1781 18.3194 12.7867 19.796 14.0711 20.207C16.4644 20.9729 30.3789 14.2581 32.3442 12.5874C33.6216 11.5014 34.2788 9.65865 33.0141 7.50647C31.0992 4.726 29.9464 5.06328 27.2502 4.34448C29.3156 5.25397 30.3872 5.58348 31.182 8.70466C31.6724 11.6465 29.5782 11.7832 27.1857 13.4085C27.0742 13.4577 26.7658 13.6336 26.6042 13.7303C20.8837 16.895 15.3165 19.0416 11.9102 17.6651Z" fill="#FFAC00"/>
<path fill-rule="evenodd" clip-rule="evenodd" d="M11.4891 16.48C11.4924 16.482 11.4962 16.4803 11.5005 16.4751C11.5047 16.47 11.5095 16.4614 11.5148 16.4501C11.4895 16.3311 11.4696 16.2201 11.4569 16.1261C11.4441 16.032 11.4386 15.9547 11.4421 15.9032C11.5993 13.5849 12.2725 11.7278 13.4958 9.92205C16.3535 5.70438 22.6131 3.2833 27.5184 4.40341C28.5457 4.63792 29.551 4.97725 30.3656 5.39385C30.6935 5.5616 31.0924 5.82136 31.4807 6.09313C31.8689 6.3649 32.2469 6.64868 32.5326 6.86448C31.2017 5.02612 28.8057 3.79094 26.2249 3.16482C23.6441 2.53857 20.8783 2.5211 18.8082 3.11773C15.74 4.00211 13.5949 5.8705 12.3746 8.25377C11.1541 10.6372 10.8584 13.5356 11.4891 16.4801V16.48Z" fill="#FDCB02"/>
<path fill-rule="evenodd" clip-rule="evenodd" d="M17.8518 12.9173C17.9872 13.4656 17.6504 14.0198 17.0994 14.1545C16.5484 14.2894 15.9914 13.9541 15.856 13.4058C15.695 12.7591 15.8183 12.129 16.1254 11.5977C16.311 11.2767 16.5652 10.994 16.8632 10.7704L16.8617 10.7685C17.1591 10.5456 17.5053 10.3783 17.8759 10.2871C18.4901 10.1357 19.1643 10.1949 19.7921 10.5546C20.2834 10.8354 20.4526 11.4593 20.1705 11.948C19.8883 12.4368 19.2613 12.6052 18.7702 12.3245C18.6423 12.2513 18.4997 12.2404 18.3669 12.2731C18.2737 12.2961 18.1828 12.341 18.101 12.4023L18.0995 12.4003L18.0969 12.4023C18.0168 12.4623 17.9501 12.5351 17.9041 12.6148C17.8496 12.7088 17.8264 12.8152 17.8519 12.9174L17.8518 12.9173Z" fill="#373435"/>
<path fill-rule="evenodd" clip-rule="evenodd" d="M25.4674 8.4028C25.6028 8.95111 25.2661 9.5053 24.715 9.64002C24.164 9.77488 23.6071 9.43964 23.4717 8.89132C23.3253 8.30302 23.4373 7.73013 23.7161 7.24788C23.8842 6.95728 24.1142 6.70148 24.3836 6.49973C24.6529 6.29812 24.9639 6.14716 25.2942 6.06594C25.85 5.92903 26.4605 5.98281 27.0293 6.30863C27.5205 6.58941 27.6898 7.21335 27.4076 7.70201C27.1255 8.19081 26.4985 8.35925 26.0074 8.07848C25.9384 8.03916 25.8596 8.0337 25.7851 8.052C25.724 8.06701 25.6657 8.09554 25.6149 8.13348C25.5644 8.17129 25.5229 8.21648 25.4947 8.26493C25.4685 8.31025 25.4567 8.35912 25.4676 8.40293L25.4674 8.4028Z" fill="#373435"/>
<path fill-rule="evenodd" clip-rule="evenodd" d="M14.3986 16.7653C14.5867 17.091 14.4738 17.507 14.1465 17.6942C13.8192 17.8813 13.4011 17.769 13.213 17.4433C12.8462 16.8106 12.52 15.5939 12.4322 14.3181C12.3608 13.2773 12.4411 12.1702 12.7764 11.2648C12.9067 10.911 13.3007 10.7293 13.6562 10.859C14.0118 10.9887 14.1944 11.3807 14.0641 11.7345C13.8008 12.4455 13.7403 13.3547 13.8003 14.2271C13.8746 15.3074 14.1239 16.2914 14.3986 16.7652V16.7653Z" fill="#FEFEFE"/>
<path fill-rule="evenodd" clip-rule="evenodd" d="M14.1341 8.62891C14.6185 8.62891 15.0792 9.02052 14.8902 9.66725C14.7012 10.314 14.1194 10.5099 13.7106 10.3594C13.3018 10.209 13.0906 9.90012 13.2191 9.41145C13.3477 8.92265 13.6496 8.62891 14.1341 8.62891Z" fill="#FEFEFE"/>
<path fill-rule="evenodd" clip-rule="evenodd" d="M98.347 12.5244C98.4298 12.3802 98.4674 12.2307 98.4674 12.089L98.4676 12.0891C98.4676 11.9526 98.4309 11.8213 98.365 11.705C98.2971 11.5855 98.1992 11.4865 98.0788 11.4181C97.9622 11.3519 97.8275 11.314 97.682 11.314H93.846C93.5526 11.314 93.29 11.3778 93.0593 11.4991C92.8275 11.6208 92.6361 11.7972 92.4844 12.0214L89.4368 16.451H87.9424V1.69395C87.9424 1.40225 87.8159 1.13062 87.6187 0.934197C87.4213 0.737776 87.1481 0.612061 86.8553 0.612061H83.9155C83.6225 0.612061 83.3494 0.737776 83.1521 0.934197C82.9547 1.13062 82.8284 1.40225 82.8284 1.69395V25.4521C82.8284 25.7438 82.9547 26.0154 83.1521 26.2117C83.3494 26.4081 83.6225 26.5338 83.9155 26.5338H86.8553C87.1483 26.5338 87.4213 26.4081 87.6187 26.2117C87.8161 26.0154 87.9424 25.7438 87.9424 25.4521V21.397H89.4368L92.4847 25.8264C92.636 26.051 92.8273 26.2274 93.0592 26.349C93.29 26.4701 93.5524 26.534 93.8459 26.534H97.6818C97.8274 26.534 97.9621 26.496 98.0787 26.43H98.0805C98.1999 26.362 98.2971 26.2636 98.3648 26.1448V26.1429C98.4309 26.0265 98.4674 25.8953 98.4674 25.7588C98.4674 25.6171 98.4298 25.4676 98.347 25.3234L98.3171 25.2787L93.6475 18.9239L98.3171 12.5691L98.347 12.5244ZM127.939 22.0873C127.208 22.0873 126.384 21.8489 125.81 21.2227V21.2225C125.355 20.7266 125.047 19.9756 125.047 18.888C125.047 17.8368 125.364 17.1066 125.832 16.6221C126.432 16.0009 127.291 15.7604 128.046 15.7604C128.763 15.7604 129.573 16.0415 130.151 16.6654C130.62 17.1711 130.939 17.9114 130.939 18.9239C130.939 19.9246 130.607 20.6589 130.124 21.1636C129.516 21.8006 128.665 22.0873 127.939 22.0873ZM128.871 10.8859C128.322 10.8859 127.544 10.9243 126.712 11.1586H126.712C126.159 11.3147 125.586 11.5565 125.047 11.929V3.04106C125.047 2.7495 124.92 2.47787 124.723 2.28144C124.526 2.08502 124.253 1.95931 123.96 1.95931H121.02C120.727 1.95931 120.454 2.08516 120.257 2.28144C120.059 2.47787 119.933 2.7495 119.933 3.04106V18.9239C119.933 21.4026 120.757 23.3617 122.119 24.7297C123.572 26.19 125.627 26.9619 127.939 26.9619C130.234 26.9619 132.296 26.1336 133.765 24.6513C135.163 23.2405 136.017 21.2452 136.017 18.8169C136.017 16.6595 135.362 14.6406 134.052 13.1759C132.861 11.8444 131.14 10.978 128.89 10.8878L128.871 10.8859ZM144.109 3.5472C144.648 4.08378 144.979 4.82688 144.979 5.65351C144.979 6.48028 144.648 7.22325 144.109 7.75982C143.57 8.2964 142.823 8.62604 141.992 8.62604C141.161 8.62604 140.415 8.29654 139.875 7.75982C139.336 7.22325 139.005 6.48028 139.005 5.65351C139.005 4.82674 139.336 4.08391 139.875 3.5472C140.414 3.01049 141.161 2.68112 141.992 2.68112C142.823 2.68112 143.57 3.01063 144.109 3.5472ZM144.549 12.3957C144.549 12.1042 144.423 11.8324 144.225 11.6361C144.028 11.4397 143.755 11.3138 143.462 11.3138H140.522C140.229 11.3138 139.956 11.4397 139.759 11.6361C139.562 11.8324 139.435 12.1042 139.435 12.3957V25.452C139.435 25.7437 139.562 26.0153 139.759 26.2116C139.956 26.408 140.229 26.5337 140.522 26.5337H143.462C143.755 26.5337 144.028 26.408 144.225 26.2116C144.423 26.0153 144.549 25.7437 144.549 25.452V12.3957ZM148.529 21.3102C148.346 21.494 148.208 21.7021 148.114 21.9281L148.114 21.9284C148.016 22.1632 147.968 22.4124 147.968 22.6697V25.4522C147.968 25.7439 148.094 26.0156 148.291 26.2118C148.489 26.4083 148.762 26.534 149.055 26.534H158.913C159.206 26.534 159.479 26.4083 159.677 26.2118C159.874 26.0156 160 25.7439 160 25.4522V22.6697C160 22.3781 159.874 22.1065 159.677 21.9101L159.676 21.911C159.478 21.7141 159.205 21.588 158.913 21.588H154.674L159.43 16.5482L159.43 16.5487C159.616 16.3642 159.757 16.1523 159.854 15.9196C159.952 15.6848 160 15.4357 160 15.1784V12.3959C160 12.1043 159.874 11.8325 159.677 11.6362C159.479 11.4398 159.206 11.314 158.913 11.314H149.055C148.762 11.314 148.489 11.4398 148.291 11.6362C148.094 11.8325 147.968 12.1043 147.968 12.3959V15.1784C147.968 15.4683 148.094 15.7397 148.292 15.9369L148.291 15.9379C148.489 16.1342 148.762 16.26 149.055 16.26H153.325L148.529 21.3102ZM105.88 21.3343C106.446 21.9379 107.281 22.1585 108.114 22.1585C108.852 22.1585 109.725 21.836 110.359 21.1857C110.868 20.6636 111.221 19.9232 111.221 18.9595C111.221 17.9194 110.894 17.1755 110.417 16.6717C109.81 16.03 108.954 15.7604 108.222 15.7604C107.472 15.7604 106.587 16.0497 105.953 16.6924C105.457 17.1962 105.114 17.9279 105.114 18.9238C105.114 20.0676 105.415 20.8383 105.88 21.3342V21.3343ZM102.389 13.1669C103.858 11.6978 105.923 10.8859 108.222 10.8859C110.545 10.8859 112.61 11.626 114.065 13.0743C115.413 14.4155 116.228 16.351 116.228 18.8524V25.4518C116.228 25.7435 116.101 26.0152 115.904 26.2114C115.707 26.4079 115.434 26.5336 115.141 26.5336H112.595C112.302 26.5336 112.029 26.4079 111.832 26.2114C111.635 26.0152 111.508 25.7435 111.508 25.4518V25.2757C111.127 25.6559 110.692 25.9778 110.218 26.2364C109.309 26.732 108.255 26.9973 107.146 26.9973C104.986 26.9973 103.25 26.1832 102.04 24.7809C100.813 23.3579 100.144 21.3368 100.144 18.9594C100.144 16.5353 100.995 14.5601 102.389 13.1667V13.1669ZM77.0859 24.8781C75.7058 26.2654 73.7464 26.9618 71.5472 26.9618C69.3481 26.9618 67.3889 26.2654 66.0086 24.8781C64.7392 23.6021 63.9713 21.7575 63.9713 19.352V12.3957C63.9713 12.1042 64.0978 11.8324 64.295 11.6361C64.4924 11.4397 64.7653 11.3138 65.0584 11.3138H67.9981C68.2911 11.3138 68.5641 11.4397 68.7614 11.6361C68.9588 11.8324 69.0852 12.1042 69.0852 12.3957V19.352C69.0852 20.1981 69.2765 20.9184 69.7166 21.3936C70.0992 21.8068 70.6942 22.0515 71.5471 22.0515C72.3755 22.0515 72.9718 21.8016 73.362 21.3799C73.8036 20.9033 74.0092 20.189 74.0092 19.3518V12.3956C74.0092 12.104 74.1356 11.8323 74.333 11.636C74.5302 11.4396 74.8033 11.3137 75.0962 11.3137H78.036C78.329 11.3137 78.6021 11.4396 78.7994 11.636C78.9968 11.8323 79.1231 12.104 79.1231 12.3956V19.3518C79.1231 21.7574 78.3552 23.602 77.0858 24.878L77.0859 24.8781ZM52.9052 22.0873C52.1744 22.0873 51.3502 21.8489 50.7759 21.2227L50.7757 21.2225C50.321 20.7266 50.013 19.9756 50.013 18.888C50.013 17.8368 50.3306 17.1066 50.7982 16.6221C51.3978 16.0009 52.2571 15.7604 53.0128 15.7604C53.7297 15.7604 54.5397 16.0415 55.1175 16.6654C55.5859 17.1711 55.9051 17.9114 55.9051 18.9239C55.9051 19.9246 55.573 20.6589 55.0907 21.1636C54.4818 21.8006 53.6313 22.0873 52.9052 22.0873ZM53.8375 10.8859C53.2886 10.8859 52.5106 10.9243 51.6786 11.1586L51.6787 11.1585C51.1255 11.3145 50.5528 11.5564 50.0133 11.9289V2.97362C50.0133 2.68193 49.8868 2.41029 49.6896 2.21401C49.4923 2.01759 49.2192 1.89187 48.9262 1.89187H45.9865C45.6934 1.89187 45.4204 2.01759 45.2231 2.21401C45.0258 2.41029 44.8994 2.68193 44.8994 2.97362V18.9239C44.8994 21.4026 45.7233 23.3617 47.0852 24.7297C48.5387 26.19 50.594 26.9619 52.9055 26.9619C55.2007 26.9619 57.2622 26.1336 58.7312 24.6512C60.1292 23.2405 60.9833 21.2452 60.9833 18.8169C60.9833 16.6595 60.3283 14.6406 59.0183 13.1759C57.8275 11.8444 56.1059 10.978 53.8563 10.8878L53.8375 10.8859Z" fill="black"/>
</svg>
