<svg width="128" height="48" viewBox="0 0 128 48" fill="none" xmlns="http://www.w3.org/2000/svg">
<path fill-rule="evenodd" clip-rule="evenodd" d="M9.16576 20.0875C9.31772 20.1619 9.41432 20.3471 8.99467 21.0937C8.90002 21.262 8.27512 22.0085 8.12656 22.1607C6.08426 24.2539 4.92098 25.6973 4.27036 28.6182C3.6471 31.416 3.99237 35.2084 6.46502 36.8823C6.86286 37.1517 7.39167 37.1894 7.88921 37.1316C8.92687 37.0108 10.8391 35.9993 11.7609 36.6233C14.4523 38.445 15.4503 41.0104 19.0372 40.9999C22.5389 40.9896 23.8592 38.317 25.686 35.7259C25.877 35.4551 26.0533 35.2435 26.2401 34.9745C26.3728 34.7832 26.3844 34.8674 26.5227 34.6305C26.8009 34.1537 28.44 32.6721 28.8639 32.3769C29.4175 31.9914 31.3083 30.8848 31.6262 30.2289C31.873 29.7196 32.0366 29.2027 31.9018 28.5987C31.7696 28.0059 30.8714 27.1943 30.869 26.3518C30.8616 23.7403 31.604 23.7203 30.6683 20.718C27.9758 12.0786 8.8888 13.664 7.40484 18.2614C6.85371 19.969 8.77368 19.8954 9.16597 20.0876L9.16576 20.0875Z" fill="#BCBCBC"/>
<path fill-rule="evenodd" clip-rule="evenodd" d="M9.34016 19.567C9.49222 19.6414 9.58872 19.8266 9.16907 20.5732C9.07442 20.7415 8.44952 21.488 8.30096 21.6402C6.25856 23.7334 5.09538 25.1768 4.44466 28.0977C3.8214 30.8954 4.16677 34.6879 6.63932 36.3618C7.03716 36.6312 7.56597 36.6689 8.06351 36.6111C9.10117 36.4903 11.0134 35.4788 11.9351 36.1028C14.6265 37.9244 15.6246 40.4899 19.2114 40.4794C22.7131 40.4691 24.0334 37.7965 25.8602 35.2054C26.0512 34.9346 26.2274 34.723 26.4141 34.454C26.5469 34.2627 26.5585 34.3469 26.6968 34.11C26.975 33.6332 28.6141 32.1516 29.038 31.8564C29.5917 31.4709 31.4824 30.3643 31.8003 29.7084C32.0471 29.1991 32.2107 28.6822 32.0759 28.0782C31.9437 27.4854 31.0455 26.6738 31.0431 25.8313C31.0357 23.2198 31.7781 23.1998 30.8424 20.1975C28.1499 11.5581 9.0629 13.1435 7.57894 17.7409C7.0278 19.4485 8.94777 19.3749 9.34006 19.5671L9.34016 19.567Z" fill="#F3EEEE"/>
<path fill-rule="evenodd" clip-rule="evenodd" d="M12.5812 25.9274C12.5662 26.1497 12.7873 26.9923 12.9384 27.2598C13.5108 28.2745 16.5136 27.6253 17.2771 27.5114C18.0917 27.3899 26.2403 23.4541 27.211 22.2412C28.2742 20.9126 26.9942 18.8453 25.9865 17.9406C24.3364 16.4591 20.2711 16.9992 18.2973 17.8004C14.7595 19.2365 12.8171 22.4499 12.5812 25.9273V25.9274Z" fill="#FFB919"/>
<path fill-rule="evenodd" clip-rule="evenodd" d="M12.9325 27.2488C13.1334 27.7395 13.5899 28.8469 14.5532 29.1552C16.3482 29.7296 26.784 24.6935 28.258 23.4405C29.216 22.626 29.7089 21.2439 28.7605 19.6298C27.3243 17.5444 26.4596 17.7974 24.4375 17.2583C25.9866 17.9404 26.7903 18.1875 27.3864 20.5284C27.7542 22.7348 26.1835 22.8374 24.3892 24.0563C24.3055 24.0932 24.0742 24.2252 23.953 24.2976C19.6627 26.6712 15.4872 28.2811 12.9325 27.2488Z" fill="#FFAC00"/>
<path fill-rule="evenodd" clip-rule="evenodd" d="M12.6165 26.3599C12.6189 26.3615 12.6218 26.3601 12.625 26.3562C12.6282 26.3525 12.6318 26.346 12.6357 26.3375C12.6168 26.2482 12.6019 26.165 12.5923 26.0945C12.5827 26.0239 12.5786 25.966 12.5812 25.9273C12.6991 24.1886 13.204 22.7958 14.1215 21.4415C16.2647 18.2782 20.9594 16.4624 24.6385 17.3025C25.4089 17.4784 26.1629 17.7329 26.7739 18.0453C27.0198 18.1711 27.3189 18.366 27.6102 18.5698C27.9013 18.7736 28.1848 18.9864 28.3991 19.1483C27.4009 17.7695 25.6039 16.8431 23.6683 16.3736C21.7327 15.9039 19.6584 15.8908 18.1058 16.3382C15.8047 17.0015 14.1958 18.4028 13.2806 20.1903C12.3652 21.9778 12.1434 24.1516 12.6165 26.36V26.3599Z" fill="#FDCB02"/>
<path fill-rule="evenodd" clip-rule="evenodd" d="M17.3892 23.688C17.4908 24.0992 17.2382 24.5149 16.8249 24.6159C16.4116 24.7171 15.9939 24.4656 15.8924 24.0544C15.7716 23.5694 15.8641 23.0968 16.0944 22.6984C16.2336 22.4576 16.4243 22.2456 16.6477 22.0779L16.6466 22.0764C16.8697 21.9093 17.1293 21.7838 17.4073 21.7154C17.8679 21.6018 18.3736 21.6463 18.8445 21.916C19.2129 22.1266 19.3398 22.5946 19.1282 22.9611C18.9166 23.3277 18.4463 23.454 18.078 23.2434C17.9821 23.1885 17.8751 23.1803 17.7755 23.2049C17.7057 23.2221 17.6375 23.2558 17.5761 23.3018L17.575 23.3003L17.5731 23.3018C17.513 23.3468 17.463 23.4014 17.4284 23.4612C17.3876 23.5317 17.3702 23.6114 17.3893 23.6881L17.3892 23.688Z" fill="#373435"/>
<path fill-rule="evenodd" clip-rule="evenodd" d="M23.1009 20.3022C23.2025 20.7135 22.9499 21.1291 22.5366 21.2301C22.1234 21.3313 21.7057 21.0799 21.6041 20.6686C21.4944 20.2274 21.5783 19.7977 21.7875 19.436C21.9135 19.2181 22.086 19.0262 22.2881 18.8749C22.49 18.7237 22.7233 18.6105 22.971 18.5496C23.3879 18.4469 23.8457 18.4872 24.2724 18.7316C24.6408 18.9422 24.7677 19.4101 24.5561 19.7766C24.3445 20.1432 23.8742 20.2696 23.5059 20.059C23.4541 20.0295 23.3951 20.0254 23.3392 20.0391C23.2933 20.0504 23.2496 20.0718 23.2115 20.1002C23.1737 20.1286 23.1425 20.1625 23.1214 20.1988C23.1018 20.2328 23.0929 20.2695 23.1011 20.3023L23.1009 20.3022Z" fill="#373435"/>
<path fill-rule="evenodd" clip-rule="evenodd" d="M14.7987 26.5742C14.9398 26.8184 14.8551 27.1305 14.6096 27.2708C14.3642 27.4112 14.0506 27.3269 13.9095 27.0826C13.6344 26.6081 13.3898 25.6956 13.3239 24.7388C13.2703 23.9582 13.3306 23.1278 13.5821 22.4488C13.6798 22.1834 13.9753 22.0472 14.2419 22.1444C14.5086 22.2417 14.6455 22.5357 14.5478 22.8011C14.3504 23.3343 14.305 24.0162 14.35 24.6705C14.4057 25.4807 14.5927 26.2187 14.7987 26.5741V26.5742Z" fill="#FEFEFE"/>
<path fill-rule="evenodd" clip-rule="evenodd" d="M14.6007 20.4717C14.964 20.4717 15.3095 20.7654 15.1678 21.2504C15.026 21.7355 14.5897 21.8824 14.2831 21.7696C13.9765 21.6568 13.8181 21.4251 13.9145 21.0586C14.0109 20.692 14.2373 20.4717 14.6007 20.4717Z" fill="#FEFEFE"/>
<path fill-rule="evenodd" clip-rule="evenodd" d="M77.76 23.3933C77.8221 23.2851 77.8503 23.173 77.8503 23.0667L77.8504 23.0668C77.8504 22.9644 77.823 22.8659 77.7735 22.7787C77.7225 22.689 77.6492 22.6148 77.5589 22.5635C77.4714 22.5139 77.3704 22.4854 77.2612 22.4854H74.3843C74.1642 22.4854 73.9673 22.5333 73.7942 22.6242C73.6204 22.7155 73.4768 22.8478 73.3631 23.016L71.0773 26.3382H69.9566V15.2704C69.9566 15.0516 69.8617 14.8479 69.7138 14.7006C69.5657 14.5533 69.3609 14.459 69.1412 14.459H66.9364C66.7166 14.459 66.5118 14.5533 66.3638 14.7006C66.2158 14.8479 66.121 15.0516 66.121 15.2704V33.089C66.121 33.3078 66.2158 33.5115 66.3638 33.6587C66.5118 33.806 66.7166 33.9003 66.9364 33.9003H69.1412C69.361 33.9003 69.5657 33.806 69.7138 33.6587C69.8618 33.5115 69.9566 33.3078 69.9566 33.089V30.0477H71.0773L73.3633 33.3697C73.4767 33.5382 73.6203 33.6705 73.7941 33.7617C73.9673 33.8525 74.1641 33.9004 74.3842 33.9004H77.2611C77.3703 33.9004 77.4713 33.872 77.5588 33.8224H77.5601C77.6497 33.7714 77.7226 33.6976 77.7734 33.6086V33.6071C77.823 33.5198 77.8503 33.4214 77.8503 33.319C77.8503 33.2128 77.8221 33.1007 77.76 32.9925L77.7376 32.959L74.2354 28.1929L77.7376 23.4267L77.76 23.3933ZM99.954 30.5654C99.4058 30.5654 98.7877 30.3866 98.3569 29.9169V29.9168C98.0158 29.5449 97.7848 28.9817 97.7848 28.1659C97.7848 27.3776 98.023 26.8299 98.3737 26.4665C98.8234 26.0006 99.4678 25.8202 100.035 25.8202C100.572 25.8202 101.18 26.031 101.613 26.499C101.964 26.8783 102.204 27.4335 102.204 28.1929C102.204 28.9434 101.955 29.4941 101.593 29.8726C101.136 30.3504 100.499 30.5654 99.954 30.5654ZM100.653 22.1644C100.242 22.1644 99.658 22.1931 99.034 22.3689H99.0341C98.6191 22.4859 98.1894 22.6673 97.7849 22.9467V16.2807C97.7849 16.0621 97.6901 15.8583 97.5421 15.711C97.3941 15.5637 97.1893 15.4694 96.9695 15.4694H94.7647C94.5449 15.4694 94.3401 15.5638 94.1922 15.711C94.0442 15.8583 93.9494 16.0621 93.9494 16.2807V28.1929C93.9494 30.0519 94.5673 31.5212 95.5887 32.5472C96.6788 33.6424 98.2203 34.2214 99.954 34.2214C101.675 34.2214 103.221 33.6002 104.323 32.4884C105.372 31.4303 106.012 29.9338 106.012 28.1126C106.012 26.4946 105.521 24.9804 104.539 23.8819C103.646 22.8832 102.354 22.2335 100.667 22.1658L100.653 22.1644ZM112.081 16.6603C112.486 17.0628 112.734 17.6201 112.734 18.2401C112.734 18.8602 112.486 19.4174 112.081 19.8198C111.677 20.2222 111.117 20.4695 110.494 20.4695C109.871 20.4695 109.311 20.2223 108.906 19.8198C108.502 19.4174 108.253 18.8602 108.253 18.2401C108.253 17.62 108.502 17.0629 108.906 16.6603C109.311 16.2578 109.871 16.0108 110.494 16.0108C111.117 16.0108 111.677 16.2579 112.081 16.6603ZM112.412 23.2967C112.412 23.0781 112.317 22.8742 112.169 22.727C112.021 22.5797 111.816 22.4853 111.596 22.4853H109.391C109.172 22.4853 108.967 22.5797 108.819 22.727C108.671 22.8742 108.576 23.0781 108.576 23.2967V33.0889C108.576 33.3077 108.671 33.5114 108.819 33.6586C108.967 33.8059 109.172 33.9002 109.391 33.9002H111.596C111.816 33.9002 112.021 33.8059 112.169 33.6586C112.317 33.5114 112.412 33.3077 112.412 33.0889V23.2967ZM115.396 29.9826C115.259 30.1205 115.156 30.2765 115.085 30.446L115.085 30.4462C115.012 30.6223 114.975 30.8092 114.975 31.0022V33.0891C114.975 33.3079 115.07 33.5116 115.218 33.6588C115.366 33.8061 115.571 33.9004 115.791 33.9004H123.185C123.405 33.9004 123.609 33.8061 123.757 33.6588C123.905 33.5116 124 33.3079 124 33.0891V31.0022C124 30.7835 123.905 30.5798 123.757 30.4325L123.756 30.4332C123.608 30.2855 123.403 30.1909 123.185 30.1909H120.005L123.572 26.4111L123.572 26.4115C123.712 26.2731 123.817 26.1142 123.89 25.9396C123.963 25.7635 124 25.5767 124 25.3837V23.2968C124 23.0782 123.905 22.8743 123.757 22.7271C123.609 22.5798 123.405 22.4854 123.185 22.4854H115.791C115.571 22.4854 115.366 22.5798 115.218 22.7271C115.07 22.8743 114.975 23.0782 114.975 23.2968V25.3837C114.975 25.6012 115.071 25.8047 115.219 25.9526L115.218 25.9533C115.366 26.1006 115.571 26.1949 115.791 26.1949H118.994L115.396 29.9826ZM83.41 30.0007C83.8343 30.4534 84.4604 30.6188 85.0853 30.6188C85.6388 30.6188 86.2932 30.3769 86.7689 29.8892C87.151 29.4976 87.4158 28.9424 87.4158 28.2196C87.4158 27.4395 87.1703 26.8816 86.8128 26.5037C86.3574 26.0224 85.715 25.8203 85.166 25.8203C84.6034 25.8203 83.9397 26.0372 83.4646 26.5193C83.0923 26.8971 82.8354 27.4458 82.8354 28.1928C82.8354 29.0507 83.0614 29.6287 83.41 30.0006V30.0007ZM80.7912 23.8751C81.8933 22.7733 83.4418 22.1644 85.166 22.1644C86.9085 22.1644 88.4572 22.7194 89.5488 23.8056C90.5598 24.8116 91.1706 26.2632 91.1706 28.1392V33.0888C91.1706 33.3076 91.0758 33.5113 90.9278 33.6585C90.7798 33.8058 90.5751 33.9001 90.3553 33.9001H88.4464C88.2266 33.9001 88.0218 33.8058 87.8738 33.6585C87.7258 33.5113 87.6309 33.3076 87.6309 33.0888V32.9567C87.3447 33.2419 87.0189 33.4833 86.663 33.6772C85.9815 34.049 85.1913 34.2479 84.3594 34.2479C82.7395 34.2479 81.4374 33.6373 80.5301 32.5856C79.6094 31.5184 79.1076 30.0025 79.1076 28.2195C79.1076 26.4014 79.746 24.92 80.7912 23.8749V23.8751ZM61.8142 32.6585C60.7791 33.699 59.3096 34.2213 57.6602 34.2213C56.0109 34.2213 54.5414 33.699 53.5062 32.6585C52.5542 31.7015 51.9782 30.3181 51.9782 28.5139V23.2967C51.9782 23.0781 52.0731 22.8742 52.221 22.727C52.3691 22.5797 52.5737 22.4853 52.7936 22.4853H54.9983C55.2181 22.4853 55.4228 22.5797 55.5708 22.727C55.7189 22.8742 55.8136 23.0781 55.8136 23.2967V28.5139C55.8136 29.1485 55.9572 29.6888 56.2872 30.0451C56.5741 30.355 57.0204 30.5386 57.6601 30.5386C58.2814 30.5386 58.7286 30.3511 59.0213 30.0349C59.3525 29.6774 59.5067 29.1417 59.5067 28.5138V23.2966C59.5067 23.078 59.6014 22.8741 59.7495 22.7269C59.8974 22.5796 60.1023 22.4852 60.3219 22.4852H62.5268C62.7465 22.4852 62.9513 22.5796 63.0993 22.7269C63.2473 22.8741 63.3421 23.078 63.3421 23.2966V28.5138C63.3421 30.318 62.7662 31.7014 61.8141 32.6584L61.8142 32.6585ZM43.6787 30.5654C43.1305 30.5654 42.5124 30.3866 42.0817 29.9169L42.0815 29.9168C41.7405 29.5449 41.5095 28.9817 41.5095 28.1659C41.5095 27.3776 41.7477 26.8299 42.0984 26.4665C42.5481 26.0006 43.1926 25.8202 43.7593 25.8202C44.297 25.8202 44.9045 26.031 45.3378 26.499C45.6892 26.8783 45.9286 27.4335 45.9286 28.1929C45.9286 28.9434 45.6795 29.4941 45.3178 29.8726C44.8611 30.3504 44.2232 30.5654 43.6787 30.5654ZM44.3779 22.1644C43.9662 22.1644 43.3827 22.1931 42.7587 22.3689L42.7588 22.3688C42.3439 22.4858 41.9144 22.6672 41.5097 22.9466V16.2302C41.5097 16.0114 41.4149 15.8077 41.2669 15.6604C41.119 15.5131 40.9142 15.4188 40.6944 15.4188H38.4897C38.2698 15.4188 38.0651 15.5131 37.9171 15.6604C37.7691 15.8077 37.6743 16.0114 37.6743 16.2302V28.1929C37.6743 30.0519 38.2922 31.5212 39.3136 32.5472C40.4038 33.6424 41.9452 34.2214 43.6789 34.2214C45.4003 34.2214 46.9464 33.6002 48.0482 32.4884C49.0966 31.4303 49.7373 29.9338 49.7373 28.1126C49.7373 26.4946 49.246 24.9804 48.2635 23.8819C47.3704 22.8832 46.0792 22.2335 44.392 22.1658L44.3779 22.1644Z" fill="black"/>
</svg>
