<svg width="35" height="36" viewBox="0 0 35 36" fill="none" xmlns="http://www.w3.org/2000/svg">
<path d="M35 18C35 27.9411 27.165 36 17.5 36C7.83502 36 0 27.9411 0 18C0 8.05888 7.83502 0 17.5 0C27.165 0 35 8.05888 35 18Z" fill="#FEB700"/>
<path d="M15.9089 23.0773H9.87545V11.6553H8.31508V24.5217H15.9089V23.0773Z" fill="black"/>
<path d="M17.0272 20.9819C17.1745 23.2556 19.0123 24.7357 21.665 24.7357C24.543 24.7357 26.3461 23.2645 26.3461 20.9106C26.3461 19.0649 25.2972 18.0395 22.7052 17.3708L21.3962 17.0141C19.6972 16.5594 19.0037 15.9798 19.0037 15.0079C19.0037 13.7507 20.1306 12.8858 21.7517 12.8858C23.3814 12.8858 24.465 13.7328 24.6037 15.1149H26.1641C26.0947 12.9571 24.2916 11.4413 21.8037 11.4413C19.203 11.4413 17.3826 12.9393 17.3826 15.0792C17.3826 16.8269 18.4055 17.8701 20.7114 18.4764L22.3151 18.9044C23.9969 19.3502 24.7337 20.0189 24.7337 21.1067C24.7337 22.3729 23.5027 23.2913 21.8123 23.2913C20.0266 23.2913 18.7436 22.3729 18.5962 20.9819H17.0272Z" fill="black"/>
</svg>
