<svg width="32" height="23" viewBox="0 0 32 23" fill="none" xmlns="http://www.w3.org/2000/svg">
<rect width="32" height="22.8571" rx="2" fill="#262626"/>
<g opacity="0.01">
<rect x="6.85742" y="5.48584" width="18.2012" height="11.8721" fill="white"/>
</g>
<rect x="13.5586" y="7.5542" width="4.80139" height="7.73391" fill="#FF5F00"/>
<path fill-rule="evenodd" clip-rule="evenodd" d="M14.0524 11.422C14.0512 9.91308 14.7536 8.48739 15.9572 7.55574C13.9125 5.97099 10.9762 6.20182 9.21191 8.08602C7.44759 9.97022 7.44759 12.8752 9.21191 14.7594C10.9762 16.6436 13.9125 16.8744 15.9572 15.2897C14.7532 14.3577 14.0508 12.9314 14.0524 11.422Z" fill="#EB001B"/>
<path fill-rule="evenodd" clip-rule="evenodd" d="M23.5602 14.3448V14.6662H23.5267V14.3448H23.4551V14.2783H23.6364V14.3448H23.5602ZM23.9122 14.2783V14.6662H23.8741V14.3725L23.8147 14.6246H23.7736L23.7141 14.3725V14.6662H23.6745V14.2783H23.7294L23.7934 14.5554L23.8574 14.2783H23.9122Z" fill="#F79E1B"/>
<path fill-rule="evenodd" clip-rule="evenodd" d="M24.0263 11.422C24.0263 13.305 22.936 15.0227 21.2186 15.8456C19.5011 16.6685 17.4581 16.4521 15.957 15.2882C17.1601 14.3558 17.8625 12.9303 17.8625 11.4213C17.8625 9.91226 17.1601 8.48676 15.957 7.55432C17.4581 6.39049 19.5011 6.17406 21.2186 6.99694C22.936 7.81982 24.0263 9.53754 24.0263 11.4206V11.422Z" fill="#F79E1B"/>
</svg>
