<svg width="254" height="255" viewBox="0 0 254 255" fill="none" xmlns="http://www.w3.org/2000/svg">
<path d="M119.792 252.369C185.706 252.369 239.14 248.952 239.14 244.737C239.14 240.521 185.706 237.104 119.792 237.104C53.879 237.104 0.445496 240.521 0.445496 244.737C0.445496 248.952 53.879 252.369 119.792 252.369Z" fill="#D1D3D4"/>
<path d="M138.951 124.563C141.319 123.15 143.6 121.598 145.783 119.915C150.463 116.3 151.854 113.189 153.211 107.577C154.12 103.79 151.257 100.221 148.439 97.5237C145.621 94.8266 142.413 91.8427 142.367 87.952C142.367 84.9566 144.242 82.3399 145.38 79.5625C151.395 64.941 134.674 58.4911 131.327 46.2798C127.98 34.0685 124.036 24.0263 109.052 27.9169C105.418 28.8465 101.818 30.086 98.0805 30.2123C94.6305 30.3844 91.2495 29.6614 87.8225 29.6155C83.0312 29.6176 78.329 30.9085 74.2107 33.3523C70.0924 35.796 66.7102 39.3024 64.42 43.5024C62.5915 46.9454 63.6725 51.5361 61.959 54.2561C57.4625 61.3947 46.733 59.6502 49.01 71.3221C49.8265 75.4767 51.609 79.8494 50.022 83.7859C47.998 88.8013 41.7535 90.3048 37.372 93.5183C30.2305 98.7746 28.3675 109.356 31.783 117.539C35.1985 125.722 42.9035 131.541 51.2755 134.513C59.6475 137.486 68.675 137.956 77.5645 137.956C98.7705 138.037 121 135.317 138.951 124.563Z" fill="white"/>
<path d="M77.898 138.53H77.5875C68.8705 138.53 59.6475 138.094 51.1375 135.087C41.7305 131.747 34.5085 125.458 31.3345 117.872C27.62 108.966 30.0925 98.3615 37.0845 93.2199C38.5534 92.1952 40.0903 91.2711 41.6845 90.454C45.031 88.6521 48.205 87.0109 49.5045 83.7171C50.6545 80.802 49.884 77.5081 49.102 74.3291C48.8835 73.3994 48.6535 72.4698 48.481 71.5517C46.9745 63.8622 50.8845 61.6816 55.0245 59.3633C57.4165 58.032 59.8775 56.6548 61.499 54.0955C62.216 52.5892 62.5892 50.9428 62.5915 49.2752C62.6412 47.2439 63.0946 45.2426 63.9255 43.3876C66.2377 39.1493 69.6394 35.6021 73.7808 33.111C77.9223 30.6199 82.6539 29.2747 87.489 29.2138H87.7995C89.306 29.2138 90.8125 29.3744 92.273 29.5236C94.1806 29.7527 96.1022 29.8448 98.023 29.7991C100.886 29.5514 103.713 28.9895 106.453 28.1235L108.902 27.4578C124.208 23.5328 128.325 33.6438 131.81 46.2453C133.052 50.7557 136.249 54.5431 139.342 58.2042C144.425 64.2295 149.693 70.4614 145.84 79.8265C145.518 80.6184 145.116 81.4217 144.69 82.1907C143.619 83.9526 142.98 85.9426 142.827 87.9979C142.827 91.6017 145.909 94.5053 148.577 97.0761L148.727 97.2023C152.809 101.104 154.408 104.547 153.637 107.761C152.257 113.499 150.831 116.667 146.024 120.385C143.819 122.081 141.515 123.645 139.124 125.068C124.024 134.112 103.969 138.53 77.898 138.53ZM87.512 30.2008C82.8693 30.2574 78.3254 31.5472 74.3477 33.9374C70.3701 36.3277 67.1021 39.7322 64.88 43.8008C64.1163 45.5398 63.7022 47.4114 63.661 49.3096C63.6548 51.1421 63.2259 52.9486 62.4075 54.589C60.648 57.3664 58.0605 58.8124 55.5075 60.2126C51.54 62.4276 48.113 64.3442 49.47 71.2762C49.654 72.1829 49.8725 73.0896 50.091 74.0077C50.9075 77.3475 51.747 80.8135 50.4475 84.0384C48.9985 87.6307 45.514 89.5014 42.1445 91.3147C40.5869 92.1037 39.0846 92.9971 37.648 93.9888C31.024 98.8665 28.701 108.909 32.2315 117.401C35.302 124.758 42.294 130.841 51.4135 134.077C59.7855 137.05 68.9165 137.52 77.53 137.52H77.8405C103.715 137.52 123.599 133.148 138.63 124.15C140.975 122.753 143.237 121.22 145.403 119.559C150.003 116.036 151.325 112.994 152.636 107.508C153.315 104.697 151.808 101.575 148.036 97.9598L147.887 97.8336C145.058 95.125 141.838 92.0951 141.803 88.0094C141.951 85.7873 142.625 83.6319 143.77 81.7201C144.15 80.9627 144.529 80.1937 144.851 79.4248C148.451 70.6565 143.62 64.941 138.514 58.8813C135.352 55.1399 132.075 51.2607 130.775 46.5208C127.325 34.034 123.542 24.7837 109.144 28.4793C108.327 28.6858 107.522 28.9039 106.717 29.1334C103.902 30.019 100.998 30.5962 98.0575 30.855C96.0829 30.8982 94.1076 30.8023 92.1465 30.568C90.709 30.4188 89.2255 30.2811 87.765 30.2582L87.512 30.2008Z" fill="#231F20"/>
<path d="M35.371 159.12C35.371 159.12 44.755 108.622 54.139 100.072C63.523 91.5213 88.4205 91.5213 101.473 91.1082C114.525 90.695 133.673 95.1824 142.286 103.733C150.9 112.283 159.824 166.43 159.824 166.43L141.872 164.388L153.303 194.526C153.303 194.526 113.72 215.781 95.355 214.507C76.9895 213.233 48.021 188.443 48.021 188.443L49.654 155.045L35.371 159.12Z" fill="#FEC600"/>
<path d="M136.974 155.975C136.905 155.972 136.837 155.955 136.774 155.926C136.712 155.897 136.656 155.855 136.61 155.804C136.564 155.752 136.528 155.692 136.506 155.627C136.484 155.562 136.474 155.493 136.479 155.424C137.284 139.793 131.649 109.425 131.592 109.127C131.579 109.06 131.579 108.991 131.593 108.924C131.607 108.857 131.634 108.793 131.672 108.737C131.711 108.681 131.76 108.632 131.817 108.595C131.874 108.557 131.938 108.531 132.006 108.518C132.073 108.506 132.142 108.506 132.209 108.52C132.276 108.534 132.339 108.561 132.396 108.599C132.453 108.637 132.501 108.687 132.539 108.744C132.576 108.801 132.602 108.865 132.615 108.932C132.615 109.241 138.365 139.724 137.526 155.482C137.523 155.55 137.506 155.618 137.476 155.68C137.447 155.743 137.405 155.798 137.354 155.844C137.302 155.89 137.242 155.926 137.177 155.948C137.112 155.971 137.042 155.98 136.974 155.975Z" fill="#231F20"/>
<path d="M67.203 145.393C67.0647 145.393 66.9318 145.339 66.8329 145.243C66.7341 145.146 66.677 145.015 66.674 144.877C66.674 144.647 66.3175 122.233 70.3655 107.669C70.4056 107.538 70.4947 107.426 70.6144 107.358C70.7341 107.29 70.8755 107.27 71.0095 107.302C71.0764 107.319 71.1392 107.35 71.1942 107.392C71.2492 107.433 71.2951 107.486 71.3294 107.546C71.3637 107.606 71.3857 107.672 71.3939 107.74C71.4022 107.809 71.3966 107.878 71.3775 107.945C67.364 122.371 67.7205 144.67 67.7205 144.854C67.7236 144.992 67.6724 145.126 67.5778 145.227C67.4832 145.328 67.3528 145.387 67.2145 145.393H67.203Z" fill="#231F20"/>
<path d="M108.867 97.5696L110.788 116.644C110.788 116.644 109.856 127.501 97.908 125.343C94.3814 124.674 91.0486 123.229 88.1521 121.113C85.2557 118.996 82.8684 116.262 81.164 113.109C80.6005 111.962 80.9685 109.46 80.8995 108.197L80.29 97.0073C79.991 91.3951 79.1975 85.5305 79.37 79.9413C79.5425 74.3521 79.37 68.3956 79.5885 62.5654C79.5588 62.2247 79.6572 61.8851 79.8645 61.6128C80.0699 61.4242 80.3335 61.3109 80.612 61.2915C82.2289 61.0005 83.8884 61.0434 85.488 61.4177C85.5687 57.4581 85.0965 53.5066 84.085 49.6769C87.4587 52.1885 90.073 55.5798 91.6405 59.4781C95.6062 59.2823 99.5815 59.4784 103.508 60.0634C104.015 57.339 103.636 54.5243 102.427 52.0297C104.105 54.0898 105.642 56.26 107.027 58.5256C107.027 58.8584 112.352 59.6044 112.72 59.2715C113.64 58.4567 113.341 52.9593 113.456 51.651C116.179 55.0617 118.026 59.084 118.838 63.3688C119.758 67.2823 119.654 83.4761 119.677 87.5619C119.666 93.5872 115.388 98.4189 108.867 97.5696Z" fill="white"/>
<path d="M100.898 126.112C99.8638 126.105 98.8323 126.005 97.816 125.814C94.2124 125.134 90.808 123.655 87.8541 121.485C84.9003 119.316 82.4725 116.513 80.75 113.281C80.3719 112.08 80.2543 110.813 80.405 109.563C80.405 109.035 80.405 108.553 80.405 108.174L79.807 96.9957C79.7035 95.1365 79.5425 93.2199 79.393 91.3606C79.008 87.5475 78.8353 83.716 78.8755 79.8838C78.956 77.1524 78.9675 74.3405 78.979 71.632C78.979 68.6481 78.979 65.5608 79.094 62.4506C79.0666 61.9786 79.2139 61.5129 79.508 61.1422C79.7994 60.8807 80.1651 60.7162 80.5545 60.6717C82.0262 60.4077 83.5333 60.4077 85.005 60.6717C85.0257 56.9693 84.5579 53.2803 83.6135 49.6999C83.5875 49.5944 83.5946 49.4836 83.634 49.3824C83.6734 49.2812 83.7432 49.1945 83.8337 49.1343C83.9242 49.0741 84.0311 49.0432 84.1399 49.0458C84.2487 49.0484 84.354 49.0845 84.4415 49.149C87.7908 51.6427 90.408 54.9879 92.02 58.8354C95.7275 58.6781 99.4417 58.8548 103.117 59.3633C103.454 56.9003 103.053 54.393 101.967 52.1559C101.913 52.0397 101.902 51.9074 101.938 51.784C101.974 51.6605 102.053 51.5544 102.162 51.4854C102.271 51.4164 102.401 51.3893 102.528 51.4092C102.655 51.4291 102.771 51.4947 102.853 51.5935C104.507 53.6475 106.021 55.81 107.384 58.0664C109.022 58.4692 110.7 58.6886 112.386 58.7206C112.835 58.0664 112.858 54.6119 112.858 53.2806C112.858 52.4887 112.858 51.8575 112.858 51.4902C112.867 51.3889 112.905 51.2923 112.968 51.2127C113.032 51.1331 113.117 51.0739 113.214 51.0426C113.313 51.0139 113.418 51.0126 113.517 51.0389C113.616 51.0652 113.707 51.1181 113.778 51.1918C116.285 54.061 118.021 57.8599 119.263 63.1507C120.091 66.5937 120.103 79.3559 120.114 85.473V87.4585C120.174 89.0184 119.896 90.5727 119.301 92.0162C118.706 93.4598 117.807 94.7587 116.664 95.8251C115.682 96.673 114.534 97.3085 113.293 97.6917C112.052 98.0749 110.745 98.1974 109.454 98.0516L111.305 116.495C111.012 119.452 109.566 122.176 107.28 124.081C105.44 125.451 103.193 126.166 100.898 126.112ZM82.7395 61.5783C82.0567 61.5758 81.3752 61.6373 80.704 61.762C80.5394 61.7754 80.381 61.8307 80.244 61.9227C80.1379 62.111 80.0937 62.3277 80.1175 62.5424C80.0025 65.5723 80.0025 68.6595 79.991 71.632C79.991 74.352 79.991 77.1638 79.8875 79.9068C79.8535 83.7045 80.0263 87.5013 80.405 91.2803C80.5545 93.1395 80.7155 95.0676 80.819 96.9384L81.417 108.117C81.417 108.518 81.417 109.035 81.417 109.597C81.2868 110.681 81.3649 111.779 81.647 112.834C83.3025 115.92 85.6315 118.596 88.4618 120.664C91.2922 122.731 94.5518 124.139 98 124.781C101.599 125.435 104.497 124.93 106.636 123.301C108.655 121.593 109.949 119.186 110.259 116.564L108.35 97.5696C108.341 97.4911 108.351 97.4116 108.379 97.3377C108.407 97.2638 108.452 97.1977 108.511 97.1449C108.569 97.09 108.638 97.0483 108.713 97.0225C108.789 96.9968 108.869 96.9876 108.948 96.9957C110.187 97.2142 111.458 97.1578 112.673 96.8305C113.887 96.5033 115.014 95.9131 115.974 95.1021C117.008 94.1335 117.822 92.9554 118.361 91.6469C118.901 90.3385 119.154 88.9299 119.102 87.5159V85.5304C119.102 79.9297 119.102 66.8232 118.274 63.4491C117.545 59.718 116.058 56.1755 113.904 53.0396V53.338C113.904 56.4712 113.812 58.9157 113.03 59.6158C112.248 60.3159 107.637 59.3518 106.97 59.0879C106.869 59.0591 106.774 59.0095 106.693 58.9423C106.612 58.8752 106.546 58.7918 106.498 58.6977C105.705 57.3893 104.854 56.1039 103.957 54.8644C104.325 56.5913 104.348 58.3734 104.026 60.1093C104.003 60.2426 103.929 60.3618 103.82 60.4412C103.71 60.5206 103.573 60.5539 103.439 60.534C99.5424 59.9585 95.5982 59.7663 91.6635 59.9601C91.5538 59.9706 91.4437 59.9433 91.3517 59.8828C91.2596 59.8222 91.1911 59.7321 91.1575 59.6273C89.8211 56.2955 87.6987 53.3348 84.9705 50.9967C85.7274 54.3864 86.0787 57.8536 86.017 61.3259C86.0136 61.4038 85.9934 61.48 85.9576 61.5494C85.9219 61.6187 85.8715 61.6795 85.81 61.7275C85.7483 61.7781 85.6757 61.8138 85.5979 61.8317C85.5201 61.8496 85.4392 61.8493 85.3615 61.8308C84.5006 61.6433 83.6204 61.5585 82.7395 61.5783Z" fill="#231F20"/>
<path d="M109.65 106.912C109.65 106.912 101.91 107.979 96.436 103.285C90.962 98.591 91.2035 93.3117 91.2035 93.3117C91.2035 93.3117 100.127 98.1434 108.867 97.5237L109.65 106.912Z" fill="#231F20"/>
<path d="M107.626 107.52C103.458 107.615 99.3896 106.251 96.1255 103.664C90.525 98.8665 90.709 93.5183 90.7205 93.3347C90.7237 93.2488 90.7489 93.1651 90.7936 93.0917C90.8382 93.0182 90.901 92.9573 90.9758 92.9148C91.0507 92.8722 91.1352 92.8495 91.2213 92.8487C91.3074 92.8478 91.3924 92.869 91.468 92.9101C91.56 92.9101 100.369 97.6729 108.856 97.0646C108.988 97.0551 109.119 97.0979 109.22 97.1838C109.322 97.2696 109.385 97.3917 109.397 97.5237L110.179 106.912C110.186 107.04 110.145 107.166 110.064 107.266C109.983 107.365 109.868 107.431 109.742 107.451C109.038 107.517 108.332 107.54 107.626 107.52ZM91.7555 94.1266C92.2532 97.5655 94.0413 100.687 96.758 102.86C101.232 106.694 107.361 106.544 109.098 106.418L108.408 98.0172C101.209 98.4189 94.1015 95.2743 91.7555 94.1266Z" fill="#231F20"/>
<path d="M102.658 82.6498C102.019 82.6468 101.381 82.6008 100.749 82.512C100.615 82.4895 100.496 82.4155 100.416 82.3061C100.336 82.1967 100.303 82.0605 100.323 81.9267C100.333 81.86 100.356 81.796 100.391 81.7383C100.426 81.6807 100.472 81.6306 100.527 81.591C100.581 81.5514 100.643 81.5232 100.709 81.5079C100.775 81.4926 100.843 81.4906 100.91 81.5021C101.991 81.6742 105.003 81.8579 105.935 80.6413C106.567 79.792 103.508 74.9029 100.185 70.9319C100.143 70.8799 100.113 70.8203 100.094 70.7564C100.076 70.6925 100.07 70.6256 100.078 70.5595C100.085 70.4934 100.105 70.4295 100.138 70.3713C100.17 70.3131 100.213 70.2618 100.266 70.2204C100.318 70.1789 100.377 70.1481 100.441 70.1297C100.505 70.1114 100.572 70.1057 100.639 70.1132C100.705 70.1206 100.769 70.141 100.827 70.1732C100.886 70.2054 100.937 70.2487 100.979 70.3007C102.681 72.3895 108.143 79.3559 106.728 81.2496C105.878 82.3973 104.061 82.6498 102.658 82.6498Z" fill="#231F20"/>
<path d="M84.8325 69.4859C83.8811 67.1733 82.4597 65.0826 80.658 63.3458C78.7375 61.7505 75.8395 61.0504 73.758 62.3473C71.458 63.7819 70.883 66.938 71.1475 69.7154C71.5156 72.828 72.3693 75.8639 73.6775 78.7132C74.2958 80.4582 75.3531 82.0153 76.748 83.2351C77.4582 83.8263 78.3424 84.1698 79.2662 84.2133C80.19 84.2568 81.1027 83.9979 81.8655 83.4761" fill="white"/>
<path d="M79.6 84.75C78.4248 84.7181 77.2898 84.3164 76.357 83.6023C74.89 82.3254 73.7771 80.693 73.1255 78.8624C71.7865 75.9568 70.9171 72.858 70.5495 69.6809C70.3885 67.9365 70.331 63.6901 73.413 61.8079C75.9085 60.2815 79.0825 61.2799 80.9685 62.8523C82.8299 64.6344 84.2986 66.7842 85.281 69.1645C85.3224 69.2272 85.3499 69.2979 85.3618 69.3721C85.3736 69.4462 85.3694 69.522 85.3496 69.5944C85.3297 69.6668 85.2946 69.7341 85.2467 69.7919C85.1987 69.8497 85.1389 69.8966 85.0713 69.9295C85.0037 69.9625 84.9298 69.9806 84.8546 69.9828C84.7794 69.9849 84.7047 69.9711 84.6353 69.9421C84.5659 69.9132 84.5035 69.8698 84.4522 69.8148C84.4009 69.7599 84.362 69.6947 84.338 69.6236C83.4122 67.3787 82.0345 65.3474 80.29 63.6556C78.68 62.3128 76.012 61.4406 73.965 62.7031C71.3085 64.3213 71.481 68.3726 71.596 69.5891C71.9512 72.6486 72.7937 75.6319 74.0915 78.4263C74.6766 80.0888 75.6782 81.5743 77.001 82.7416C77.6182 83.2578 78.386 83.5612 79.19 83.6067C79.994 83.6522 80.7913 83.4373 81.463 82.994C81.5156 82.9497 81.5765 82.9162 81.6421 82.8956C81.7078 82.875 81.777 82.8677 81.8455 82.8742C81.914 82.8806 81.9806 82.9006 82.0413 82.933C82.102 82.9654 82.1556 83.0096 82.199 83.0629C82.2872 83.1687 82.3306 83.3046 82.3199 83.4418C82.3091 83.579 82.2451 83.7066 82.1415 83.7974C81.435 84.4068 80.5338 84.7446 79.6 84.75Z" fill="#231F20"/>
<path d="M93.423 72.883C94.0454 72.883 94.55 71.6087 94.55 70.0367C94.55 68.4648 94.0454 67.1905 93.423 67.1905C92.8006 67.1905 92.296 68.4648 92.296 70.0367C92.296 71.6087 92.8006 72.883 93.423 72.883Z" fill="#231F20"/>
<path d="M110.454 72.2748C111.077 72.2748 111.581 71.0005 111.581 69.4285C111.581 67.8566 111.077 66.5823 110.454 66.5823C109.832 66.5823 109.327 67.8566 109.327 69.4285C109.327 71.0005 109.832 72.2748 110.454 72.2748Z" fill="#231F20"/>
<path d="M97.563 116.105C97.563 116.105 102.497 102.241 100.128 98.4074C97.7585 94.5741 91.169 90.936 89.8925 87.47C88.616 84.004 90.801 75.6145 88.064 74.6963C85.327 73.7782 83.3145 81.5824 85.327 87.8258C85.327 87.8258 82.2105 84.004 82.2105 80.3544C82.2105 76.7048 84.591 72.1485 82.0265 71.0467C79.462 69.9449 75.4485 78.3459 76.3685 85.0943C77.2885 91.8427 85.8675 101.322 85.327 103.147C84.7865 104.972 37.809 150.443 33.577 157.892C29.644 164.778 32.0935 180.306 45.6175 178.665C59.1415 177.023 88.432 139.632 97.563 116.105Z" fill="white"/>
<path d="M43.6165 179.307C41.6885 179.377 39.7754 178.946 38.0641 178.057C36.3529 177.167 34.9019 175.851 33.853 174.235C32.3422 171.754 31.4799 168.935 31.3452 166.035C31.2106 163.135 31.808 160.248 33.0825 157.639C35.7275 153.048 53.909 134.686 68.514 119.892C76.679 111.629 84.3955 103.824 84.8325 102.964C84.959 102.459 83.349 99.9682 82.0495 97.9598C79.531 94.0806 76.3915 89.2374 75.851 85.1632C75.1035 79.6658 77.5645 72.9174 80.0945 71.0008C80.3742 70.7353 80.7231 70.5536 81.1013 70.4765C81.4795 70.3993 81.8718 70.4299 82.2335 70.5647C84.315 71.4599 83.786 74.0077 83.2685 76.5785C82.9683 77.8168 82.7911 79.0815 82.7395 80.3544C82.8314 82.0249 83.3202 83.6496 84.1655 85.0943C83.5675 80.7676 84.522 76.372 86.109 74.7652C86.3648 74.4704 86.7015 74.2568 87.0775 74.1507C87.4535 74.0447 87.8524 74.0508 88.225 74.1684C90.203 74.8226 90.111 78.0705 90.019 81.4906C89.8327 83.4107 89.9569 85.3483 90.387 87.229C91.0195 88.9505 93.239 90.8786 95.3895 92.7379C97.3611 94.2646 99.1072 96.0612 100.576 98.0746C103.049 102.069 98.276 115.646 98.0575 116.219C93.653 127.547 84.2575 142.731 73.62 155.849C62.2235 169.862 52.023 178.343 45.6405 179.112C44.9707 179.221 44.2947 179.286 43.6165 179.307ZM81.5665 71.4828C81.2612 71.5081 80.9715 71.6285 80.7385 71.8271C78.68 73.388 76.1385 79.6199 76.8975 85.0255C77.415 88.8587 80.612 93.7937 82.9465 97.3974C85.097 100.714 86.1205 102.355 85.833 103.297C85.5455 104.238 81.1065 108.656 69.273 120.626C55.473 134.559 36.5785 153.657 34.0025 158.156C32.8202 160.597 32.2691 163.295 32.3997 166.003C32.5303 168.711 33.3383 171.344 34.75 173.661C36.383 176.105 39.58 178.871 45.537 178.148C58.8655 176.53 88.087 139.127 97.0915 115.921C98.4485 112.122 101.542 101.644 99.702 98.7058C98.2865 96.7854 96.6107 95.0705 94.7225 93.6101C92.4225 91.5787 90.1225 89.6506 89.421 87.6651C88.9385 85.6563 88.7908 83.5818 88.984 81.525C89.0645 78.7591 89.1565 75.626 87.9145 75.2243C87.788 75.2243 87.397 75.0406 86.8795 75.5686C85.1775 77.2442 84.338 83.0285 85.8445 87.6881C85.8787 87.8039 85.8721 87.9279 85.8258 88.0394C85.7795 88.151 85.6962 88.2433 85.59 88.301C85.4837 88.3588 85.3608 88.3784 85.2418 88.3567C85.1228 88.3349 85.0149 88.2731 84.936 88.1816C84.8095 88.0209 81.716 84.1647 81.716 80.3774C81.7657 79.0348 81.9506 77.7006 82.268 76.3949C82.8085 73.7323 83.05 72.0682 81.854 71.5517C81.76 71.509 81.6583 71.4855 81.555 71.4828H81.5665Z" fill="#231F20"/>
<path d="M108.557 115.29C108.557 115.29 103.624 101.426 106.05 97.5696C108.224 94.1266 112.099 92.0607 114.744 88.9735C117.539 85.7026 117.148 80.0101 118.735 75.9703C119.057 75.1439 119.758 74.1569 120.598 74.4668C120.946 74.6377 121.224 74.9264 121.38 75.2817C122.614 77.7771 123.437 80.455 123.818 83.2121C124.349 85.5795 124.642 87.994 124.692 90.4196C124.657 92.6073 124.22 94.7702 123.404 96.8007C122.898 98.0861 120.425 100.886 120.851 102.31C121.403 104.134 124.508 113.442 129.625 119.823C134.743 126.204 160.894 151.258 164.562 167.142C166.506 175.509 165.241 185.574 151.717 183.933C138.193 182.291 117.7 138.817 108.557 115.29Z" fill="white"/>
<path d="M154.442 184.656C153.493 184.652 152.544 184.595 151.602 184.483C137.71 182.796 117.101 138.576 108.074 115.473C107.867 114.9 103.083 101.334 105.567 97.3286C106.957 95.3318 108.658 93.569 110.604 92.1066C111.933 91.0647 113.172 89.913 114.307 88.6636C115.928 86.7699 116.446 83.8778 116.929 81.0889C117.184 79.2962 117.612 77.5322 118.206 75.8211C118.643 74.6734 119.562 73.5257 120.747 74.0077C121.215 74.2219 121.59 74.5966 121.805 75.0636C123.068 77.5876 123.908 80.3017 124.289 83.0973C124.84 85.5005 125.136 87.9546 125.175 90.4195C125.146 92.6697 124.702 94.8952 123.864 96.9843C123.572 97.5876 123.234 98.1671 122.852 98.7173C122.15 99.7961 121.104 101.426 121.322 102.16C121.448 102.585 124.508 112.65 129.993 119.49C131.074 120.833 133.086 123.002 135.639 125.757C145.541 136.464 162.09 154.368 165.045 167.016C165.885 170.642 166.736 177.345 163.067 181.419C161.124 183.577 158.237 184.656 154.442 184.656ZM109.052 115.106C119.402 141.755 139.308 181.936 151.728 183.439C156.581 184.024 160.123 183.118 162.274 180.73C165.632 177.012 164.803 170.711 164.01 167.28C161.146 154.954 144 136.419 134.8 126.503C132.236 123.725 130.2 121.533 129.119 120.167C123.507 113.167 120.379 102.952 120.253 102.482C119.896 101.334 120.965 99.6354 121.908 98.1779C122.256 97.6904 122.563 97.1762 122.828 96.64C123.616 94.6626 124.037 92.5587 124.07 90.431C124.019 88.0404 123.73 85.6607 123.208 83.3269C122.842 80.6303 122.042 78.0104 120.839 75.5686C120.69 75.3161 120.517 75.0521 120.322 74.9833C119.862 74.8111 119.344 75.626 119.172 76.1883C118.603 77.8363 118.195 79.535 117.953 81.2611C117.435 84.1876 116.906 87.2175 115.089 89.2948C113.919 90.5894 112.642 91.7834 111.271 92.8641C109.403 94.242 107.775 95.917 106.453 97.8221C104.613 100.829 107.706 111.342 109.052 115.106Z" fill="#231F20"/>
<path d="M90.0535 199.438C90.0535 199.438 39.856 152.199 18.6385 161.564C-2.579 170.929 -2.165 197.808 9.2545 213.279C20.674 228.749 63.1205 241.374 98.2185 238.126C133.316 234.878 181.858 221.829 191.253 209.618C200.649 197.406 193.691 177.035 176.971 171.744C160.249 166.453 117.389 200.654 90.0535 199.438Z" fill="#231F20"/>
<path d="M86.9715 239.124C55.1625 239.124 19.4205 227.9 8.852 213.577C1.8715 204.132 -0.76201 191.014 2.12449 180.168C3.17978 175.945 5.20294 172.024 8.03465 168.715C10.8664 165.405 14.4293 162.796 18.443 161.094C39.373 151.912 86.753 195.662 90.2605 198.967C104.06 199.507 122.15 190.853 138.146 183.221C153.867 175.727 168.702 168.622 177.12 171.297C181.273 172.632 185.043 174.944 188.113 178.038C191.183 181.132 193.463 184.917 194.761 189.074C197.153 196.66 196.014 204.269 191.656 209.962C182.318 222.104 133.788 235.36 98.2645 238.654C94.55 238.964 90.8125 239.124 86.9715 239.124ZM25.0325 160.841C22.9126 160.79 20.8052 161.181 18.8455 161.989C14.9784 163.628 11.5444 166.139 8.8129 169.325C6.0814 172.511 4.12666 176.285 3.102 180.352C0.295997 190.922 2.872 203.707 9.6685 212.911C21.3295 228.715 64.3395 240.685 98.161 237.552C133.489 234.27 181.662 221.186 190.851 209.239C195.014 203.822 196.083 196.546 193.795 189.281C192.548 185.276 190.354 181.629 187.398 178.649C184.441 175.668 180.81 173.442 176.809 172.157C168.759 169.621 154.12 176.622 138.583 184.036C122.403 191.748 104.083 200.494 90.0305 199.874C89.9104 199.867 89.7965 199.818 89.7085 199.736C89.2485 199.369 48.0095 160.841 25.0325 160.841Z" fill="#231F20"/>
<path d="M58.969 232.663L91.4335 248.294L105.969 211.649C105.969 211.649 59.452 179.055 48.021 188.443C36.59 197.831 55.289 229.817 58.969 232.663Z" fill="#231F20"/>
<path d="M91.4335 248.799C91.3617 248.816 91.2868 248.816 91.215 248.799L58.7505 233.168L58.6585 233.111C55.726 230.815 44.042 211.511 43.8695 198.164C43.8005 193.573 45.1 190.233 47.699 188.099C59.291 178.596 104.348 209.904 106.257 211.282C106.349 211.348 106.416 211.441 106.45 211.549C106.483 211.657 106.48 211.773 106.441 211.879L91.905 248.489C91.8649 248.581 91.799 248.659 91.7153 248.714C91.6316 248.769 91.5337 248.799 91.4335 248.799ZM59.2335 232.238L91.1575 247.606L105.348 211.844C101.174 208.963 58.854 180.214 48.343 188.89C46.043 190.819 44.824 193.94 44.893 198.164C45.1 210.834 56.4045 229.943 59.2335 232.238Z" fill="#231F20"/>
<path d="M104.336 245.046C104.336 245.046 126.52 252.392 147.174 249.316C170.438 245.873 177.373 235.475 165.574 226.11C153.775 216.745 105.59 224.687 105.59 224.687L104.336 245.046Z" fill="#FEC600"/>
<path d="M136.536 250.59C125.562 250.432 114.664 248.732 104.164 245.54C104.055 245.503 103.961 245.431 103.897 245.336C103.833 245.24 103.801 245.127 103.808 245.012L105.038 224.652C105.044 224.534 105.091 224.422 105.171 224.334C105.251 224.246 105.358 224.188 105.475 224.17C107.442 223.837 153.994 216.297 165.873 225.697C170.554 229.404 172.497 233.375 171.485 237.173C169.875 243.164 161.043 247.789 147.255 249.798C143.706 250.323 140.124 250.588 136.536 250.59ZM104.9 244.668C107.936 245.609 128.291 251.554 147.128 248.799C160.48 246.814 168.978 242.476 170.485 236.898C171.393 233.535 169.576 229.954 165.241 226.569C154.293 217.904 110.811 224.434 106.085 225.18L104.9 244.668Z" fill="#231F20"/>
<path d="M93.331 243.497C93.331 243.497 112.49 249.522 116.17 238.528C119.85 227.533 111.881 226.511 101.887 224.273L93.331 243.497Z" fill="white"/>
<path d="M104.095 245.62H103.359C99.9107 245.487 96.4922 244.928 93.1815 243.956C93.1099 243.935 93.044 243.898 92.9883 243.849C92.9326 243.799 92.8886 243.738 92.8595 243.669C92.8252 243.604 92.8073 243.531 92.8073 243.457C92.8073 243.383 92.8252 243.31 92.8595 243.245L101.45 224.067C101.498 223.955 101.585 223.863 101.694 223.808C101.804 223.754 101.929 223.74 102.048 223.768L103.773 224.147C109.661 225.444 114.755 226.557 116.756 230.069C117.906 232.181 117.906 235.004 116.756 238.688C115.135 243.325 110.799 245.62 104.095 245.62ZM94.0555 243.118C97.218 243.979 112.547 247.709 115.664 238.321C116.814 234.878 116.814 232.376 115.802 230.54C114.031 227.441 109.143 226.362 103.497 225.123L102.186 224.836L94.0555 243.118Z" fill="#231F20"/>
<path d="M54.3 230.609C54.203 230.603 54.1086 230.576 54.024 230.528C53.7825 230.368 29.1035 215.195 14.924 208.872C14.8609 208.844 14.8039 208.805 14.7563 208.755C14.7087 208.705 14.6715 208.647 14.6469 208.583C14.6222 208.519 14.6107 208.45 14.6128 208.382C14.615 208.313 14.6309 208.245 14.6595 208.183C14.6869 208.12 14.7266 208.063 14.7763 208.016C14.826 207.968 14.8847 207.931 14.949 207.906C15.0132 207.882 15.0817 207.87 15.1505 207.872C15.2193 207.875 15.2869 207.89 15.3495 207.919C29.6095 214.266 54.3345 229.484 54.5875 229.633C54.6473 229.668 54.6994 229.715 54.7407 229.771C54.7819 229.827 54.8115 229.891 54.8276 229.958C54.8437 230.026 54.846 230.096 54.8344 230.164C54.8228 230.232 54.7975 230.298 54.76 230.356C54.7111 230.434 54.6433 230.498 54.5628 230.542C54.4823 230.586 54.3919 230.609 54.3 230.609Z" fill="white"/>
<path d="M41.2935 221.829C41.2935 221.829 30.9435 219.797 28.2295 227.567C25.5155 235.337 28.2295 250.521 35.1295 253.218C42.0295 255.915 52.6785 244.874 56.761 243.853C60.8435 242.831 71.3315 238.677 71.3315 238.677L41.2935 221.829Z" fill="#FEC600"/>
<path d="M37.5215 254.125C36.654 254.132 35.7926 253.98 34.98 253.677C27.5625 250.842 25.044 235.199 27.735 227.361C30.5065 219.327 41.282 221.301 41.3855 221.312L41.5465 221.37L71.619 238.183C71.7091 238.228 71.7829 238.299 71.8304 238.388C71.8778 238.476 71.8963 238.577 71.8835 238.677C71.8776 238.774 71.8443 238.868 71.7873 238.947C71.7303 239.026 71.652 239.088 71.5615 239.124C71.1245 239.297 60.993 243.313 56.922 244.335C55.6685 244.645 53.6445 246.045 51.287 247.675C47.055 250.601 41.949 254.125 37.5215 254.125ZM38.3725 222.127C35.233 222.127 30.3225 222.942 28.724 227.705C27.4705 231.389 27.4245 237.059 28.6205 242.154C29.92 247.721 32.381 251.565 35.3595 252.701C39.7525 254.377 45.813 250.177 50.689 246.802C53.127 245.127 55.2315 243.669 56.669 243.359C59.9235 242.545 67.3985 239.675 70.1355 238.596L41.1095 222.38C40.2051 222.225 39.29 222.141 38.3725 222.127Z" fill="#231F20"/>
<path d="M101.887 224.801H101.714C101.649 224.779 101.589 224.745 101.537 224.699C101.485 224.654 101.443 224.598 101.413 224.536C101.383 224.474 101.366 224.407 101.362 224.338C101.359 224.269 101.369 224.2 101.392 224.136L104.704 214.518C102.312 212.062 81.4745 190.704 67.3295 180.34C67.2182 180.258 67.1441 180.135 67.1236 179.998C67.1031 179.862 67.1379 179.723 67.2202 179.611C67.3026 179.5 67.4258 179.426 67.5627 179.406C67.6997 179.386 67.8392 179.42 67.9505 179.502C82.9695 190.497 105.452 213.784 105.682 214.025C105.749 214.093 105.796 214.178 105.816 214.272C105.837 214.365 105.83 214.463 105.797 214.553L102.347 224.48C102.309 224.572 102.246 224.651 102.164 224.708C102.083 224.765 101.987 224.798 101.887 224.801Z" fill="white"/>
<path d="M102.807 84.7025C100.165 84.7134 97.5726 85.4137 95.286 86.7339C95.2288 86.7688 95.1793 86.8151 95.1405 86.8697C95.1018 86.9244 95.0746 86.9864 95.0606 87.0519C95.0466 87.1173 95.0461 87.185 95.0592 87.2507C95.0722 87.3164 95.0985 87.3787 95.1365 87.4339C95.1726 87.4898 95.2195 87.538 95.2743 87.5758C95.3292 87.6136 95.391 87.6401 95.4562 87.654C95.5214 87.6679 95.5886 87.6687 95.6542 87.6566C95.7197 87.6444 95.7822 87.6195 95.838 87.5831C97.8607 86.4118 100.151 85.7797 102.49 85.7475C104.828 85.7154 107.135 86.2843 109.189 87.3995C109.248 87.4319 109.312 87.4526 109.378 87.4603C109.444 87.468 109.511 87.4627 109.575 87.4446C109.639 87.4265 109.699 87.3959 109.751 87.3547C109.803 87.3135 109.847 87.2624 109.879 87.2044C109.912 87.1464 109.933 87.0825 109.94 87.0165C109.948 86.9505 109.943 86.8836 109.925 86.8197C109.906 86.7558 109.876 86.696 109.835 86.6439C109.793 86.5917 109.742 86.5482 109.684 86.5158C107.587 85.3294 105.218 84.7047 102.807 84.7025Z" fill="#231F20"/>
<path d="M157.903 15.2351C155.495 16.2504 153.385 17.862 151.774 19.9176C144.253 29.4778 149.106 40.3119 155.075 49.2982C161.492 58.9617 176.556 58.078 186.826 54.2677C191.656 60.5914 201.466 63.1851 209.999 61.1537C213.91 60.1729 217.561 58.3566 220.7 55.8302C223.839 53.3038 226.391 50.1276 228.18 46.5208C230.158 49.9639 235.609 51.2607 239.968 50.1245C255.182 46.1765 257.436 27.0332 245.971 18.7355C242.82 16.4401 237.61 15.8089 234.678 18.2994C233.942 14.1218 229.939 9.55406 225.213 7.97026C223.844 7.52267 211.298 7.09803 212.368 8.59001C208.803 3.60908 201.822 0.774314 194.934 0.659546C188.136 0.70254 181.493 2.6944 175.797 6.39794C172.601 8.25383 169.853 10.7889 167.747 13.8234C164.4 13.5001 161.024 13.9842 157.903 15.2351Z" fill="white"/>
<path d="M204.133 62.3932C197.176 62.3932 190.425 59.6388 186.63 54.9562C175.476 58.9617 160.813 58.9961 154.591 49.6195C149.313 41.6546 143.218 29.8565 151.325 19.5274C152.99 17.393 155.176 15.7213 157.673 14.6727C160.784 13.4283 164.144 12.929 167.483 13.2151C169.624 10.2399 172.366 7.74552 175.533 5.89294C181.34 2.18084 188.084 0.19084 194.979 0.154541C202.144 0.280786 208.722 3.12703 212.356 7.64889C212.977 7.3505 214.53 7.02914 218.658 7.04062C220.924 6.99698 223.191 7.14673 225.431 7.48821C227.694 8.27211 229.743 9.56956 231.417 11.2783C233.091 12.9871 234.345 15.0606 235.08 17.3353C238.381 15.2465 243.337 16.1073 246.35 18.2879C249.155 20.3654 251.314 23.1913 252.579 26.4401C253.845 29.6888 254.165 33.2283 253.503 36.6508C252.883 40.0369 251.29 43.1701 248.917 45.6684C246.545 48.1667 243.495 49.9223 240.14 50.7213C236.103 51.7657 230.813 50.8705 228.284 47.68C226.412 51.1509 223.834 54.1927 220.715 56.61C217.596 59.0273 214.004 60.7666 210.171 61.7161C208.193 62.183 206.166 62.4103 204.133 62.3932ZM186.826 53.6938C186.915 53.6947 187.003 53.7158 187.083 53.7556C187.162 53.7953 187.232 53.8527 187.286 53.9233C191.817 59.8454 201.304 62.6457 209.86 60.5684C213.69 59.6178 217.267 57.8462 220.341 55.3767C223.415 52.9071 225.914 49.799 227.662 46.2683C227.709 46.1735 227.781 46.0933 227.87 46.0366C227.959 45.9799 228.063 45.9489 228.168 45.947C228.272 45.9447 228.375 45.9701 228.466 46.0205C228.557 46.0709 228.633 46.1445 228.686 46.2339C230.595 49.5851 235.954 50.5721 239.818 49.5736C242.962 48.8302 245.82 47.1878 248.042 44.8476C250.265 42.5074 251.755 39.571 252.33 36.3983C252.955 33.1909 252.659 29.8724 251.474 26.8262C250.29 23.7799 248.266 21.1302 245.637 19.1831C242.739 17.0828 237.794 16.3942 235.057 18.724C234.979 18.7899 234.884 18.8341 234.783 18.8522C234.682 18.8703 234.579 18.8617 234.482 18.8273C234.388 18.7929 234.304 18.7346 234.24 18.6581C234.175 18.5816 234.132 18.4896 234.114 18.3912C233.389 14.294 229.399 9.9672 225.04 8.55556C223.695 8.10796 214.495 7.92433 212.943 8.55556C212.951 8.68107 212.919 8.80605 212.85 8.91126C212.781 9.01647 212.679 9.09608 212.56 9.13782C212.441 9.17956 212.311 9.18113 212.191 9.14228C212.072 9.10343 211.968 9.02632 211.896 8.92281C208.641 4.33209 201.983 1.34813 194.922 1.23336C188.238 1.29854 181.711 3.26535 176.108 6.9029C172.995 8.72051 170.318 11.1962 168.265 14.1562C168.207 14.2414 168.127 14.3104 168.035 14.3565C167.942 14.4027 167.839 14.4246 167.736 14.4202C164.47 14.0838 161.17 14.5446 158.122 15.763C155.802 16.734 153.774 18.2878 152.234 20.2734C144.667 29.8909 150.037 40.6676 155.557 48.9654C161.503 57.9287 175.832 57.7107 186.607 53.7053C186.679 53.6893 186.753 53.6854 186.826 53.6938Z" fill="#D1D3D4"/>
<path d="M179.834 65.6871C181.178 65.2241 182.617 65.1018 184.02 65.3313C184.861 65.3564 185.687 65.5621 186.441 65.9344C187.195 66.3068 187.86 66.837 188.39 67.4889C189.287 68.9006 188.528 71.2992 186.849 71.3222C189.149 70.1745 192.288 71.896 192.944 74.4209C194.312 79.6888 187.505 82.9711 183.066 82.6383C180.846 82.4776 178.696 81.4218 176.488 81.7316C172.451 82.294 169.588 82.7186 166.552 79.1034C164.367 76.4867 165.125 72.8601 166.919 70.2434C167.471 69.3611 168.205 68.606 169.071 68.0282C169.937 67.4505 170.917 67.0632 171.945 66.8921C172.589 66.8003 177.522 67.4315 177.166 68.6136C177.359 67.9556 177.699 67.3499 178.161 66.8428C178.624 66.3357 179.196 65.9404 179.834 65.6871Z" fill="white"/>
<path d="M183.664 83.2351C183.449 83.2468 183.234 83.2468 183.019 83.2351C182.107 83.1416 181.203 82.9766 180.317 82.7416C179.105 82.3676 177.833 82.2235 176.568 82.3169C172.486 82.8908 169.311 83.3384 166.114 79.4937C163.596 76.4753 164.723 72.4699 166.448 69.945C167.041 68.9938 167.832 68.1801 168.766 67.5586C169.7 66.9371 170.756 66.522 171.864 66.3412C173.651 66.3547 175.415 66.7459 177.039 67.4889C177.606 66.4491 178.516 65.6377 179.616 65.1936C181.051 64.6924 182.59 64.5621 184.089 64.8148C186.389 65.1018 188.033 65.9625 188.873 67.225C189.16 67.7141 189.322 68.2665 189.344 68.8331C189.367 69.3997 189.248 69.963 189 70.4729C189.528 70.5336 190.045 70.6769 190.529 70.8975C191.246 71.2197 191.883 71.695 192.396 72.29C192.909 72.8849 193.284 73.5849 193.496 74.3406C193.739 75.2529 193.753 76.2109 193.536 77.1298C193.32 78.0487 192.879 78.9 192.254 79.6084C191.14 80.7585 189.805 81.6725 188.329 82.2956C186.853 82.9188 185.266 83.2383 183.664 83.2351ZM177.35 81.1004C178.455 81.1376 179.552 81.3071 180.616 81.6054C181.442 81.8263 182.284 81.9799 183.134 82.0645C184.667 82.1532 186.201 81.9075 187.629 81.3446C189.057 80.7817 190.345 79.9151 191.403 78.8051C191.917 78.24 192.279 77.5543 192.456 76.8118C192.633 76.0693 192.619 75.2942 192.415 74.5586C192.245 73.9763 191.952 73.4373 191.555 72.9779C191.158 72.5185 190.667 72.1496 190.115 71.896C189.478 71.5934 188.768 71.4779 188.068 71.5632C187.725 71.7817 187.325 71.8972 186.918 71.896C186.788 71.9016 186.659 71.8608 186.556 71.781C186.453 71.7011 186.382 71.5874 186.354 71.4599C186.327 71.332 186.343 71.1987 186.399 71.0805C186.455 70.9623 186.549 70.8657 186.665 70.8057C186.964 70.6578 187.281 70.5498 187.608 70.4844C187.764 70.3489 187.892 70.1854 187.988 70.0024C188.173 69.6645 188.27 69.2856 188.27 68.9006C188.27 68.5155 188.173 68.1366 187.988 67.7988C187.332 66.7774 186.009 66.1461 184.031 65.9051C182.723 65.6768 181.378 65.7834 180.122 66.215C179.571 66.447 179.08 66.798 178.682 67.2425C178.284 67.6871 177.99 68.2142 177.822 68.7858C177.765 68.9147 177.663 69.0184 177.535 69.0772C177.407 69.136 177.262 69.1458 177.127 69.1047C176.992 69.0636 176.877 68.9745 176.804 68.8544C176.73 68.7342 176.704 68.5914 176.729 68.453C176.384 67.971 172.796 67.3856 172.129 67.4545C171.186 67.6196 170.288 67.9821 169.495 68.5181C168.703 69.0542 168.032 69.7517 167.529 70.5647C166.034 72.7568 165.022 76.2113 167.127 78.7362C169.921 82.0874 172.532 81.7202 176.476 81.1693C176.766 81.1284 177.058 81.1054 177.35 81.1004Z" fill="#D1D3D4"/>
<path d="M158.019 82.9482C156.928 82.4783 155.707 82.4052 154.569 82.7416C154.011 82.9163 153.519 83.2554 153.158 83.7142C152.796 84.173 152.583 84.7301 152.544 85.3124C152.546 85.6018 152.608 85.8876 152.728 86.1512C152.848 86.4148 153.022 86.6502 153.239 86.842C153.456 87.0338 153.711 87.1777 153.988 87.2641C154.265 87.3506 154.557 87.3777 154.844 87.3438C152.153 89.0997 157.927 93.679 160.48 88.7899C160.77 88.2551 160.936 87.6621 160.966 87.0546C160.996 86.4471 160.889 85.8407 160.653 85.28C160.417 84.7193 160.057 84.2187 159.601 83.8151C159.145 83.4115 158.604 83.1153 158.019 82.9482Z" fill="white"/>
<path d="M157.363 91.5557C157.198 91.5671 157.033 91.5671 156.869 91.5557C156.142 91.4788 155.453 91.1973 154.881 90.7441C154.308 90.291 153.877 89.6849 153.637 88.9964C153.55 88.6134 153.582 88.213 153.729 87.8487C153.479 87.7532 153.246 87.6175 153.039 87.447C152.724 87.1984 152.467 86.8832 152.288 86.524C152.11 86.1649 152.012 85.7707 152.004 85.3697C152.04 84.6672 152.291 83.9925 152.722 83.4364C153.154 82.8804 153.746 82.4697 154.419 82.2595C155.674 81.8888 157.018 81.9618 158.225 82.4661C158.898 82.7029 159.513 83.076 160.034 83.5619C160.554 84.0478 160.968 84.636 161.25 85.2894C161.476 85.901 161.567 86.5544 161.515 87.2044C161.464 87.8544 161.271 88.4854 160.951 89.0538C160.648 89.7645 160.151 90.376 159.517 90.8184C158.882 91.2607 158.136 91.5163 157.363 91.5557ZM154.856 86.7699C154.969 86.768 155.079 86.7998 155.173 86.8612C155.268 86.9225 155.341 87.0107 155.385 87.1142C155.436 87.238 155.442 87.3758 155.402 87.5036C155.363 87.6315 155.279 87.7414 155.167 87.8143C155.009 87.8943 154.882 88.0248 154.807 88.185C154.732 88.3451 154.713 88.5257 154.753 88.698C154.943 89.1632 155.259 89.5668 155.665 89.8645C156.07 90.1621 156.551 90.3423 157.053 90.3851C157.68 90.4344 158.307 90.2801 158.839 89.9451C159.372 89.61 159.782 89.1122 160.008 88.5259C160.253 88.1017 160.402 87.6289 160.444 87.141C160.485 86.6531 160.419 86.1621 160.25 85.7026C160.032 85.1835 159.706 84.7165 159.293 84.3327C158.881 83.9488 158.392 83.6568 157.858 83.4761C156.895 83.0763 155.827 83.0077 154.822 83.281C154.375 83.4146 153.98 83.6804 153.688 84.0432C153.397 84.4059 153.222 84.8485 153.189 85.3124C153.201 85.5363 153.262 85.7549 153.367 85.953C153.472 86.1512 153.619 86.3242 153.798 86.46C153.927 86.5779 154.08 86.665 154.248 86.7147C154.415 86.7644 154.592 86.7755 154.764 86.747L154.856 86.7699Z" fill="#D1D3D4"/>
<path d="M222.51 160.003C222.698 157.397 222.144 154.791 220.912 152.486C219.9 150.81 218.359 149.491 217.531 147.723C216.105 144.67 217.105 141.078 216.772 137.727C216.469 134.917 215.23 132.29 213.253 130.267C211.494 128.5 209.228 127.283 207.503 125.435C204.755 122.405 203.961 118.136 202.397 114.36C200.179 109.01 196.333 104.49 191.403 101.437C194.405 107.463 187.573 115.118 190.667 121.097C191.644 122.991 193.519 124.368 194.244 126.376C195.98 131.22 190.184 136.476 192.047 141.296C192.967 143.695 195.497 145.084 196.739 147.367C198.36 150.432 197.084 154.15 197.222 157.616C197.406 162.391 200.316 166.671 203.777 169.977C205.928 172.043 208.377 173.821 210.677 175.715C213.46 178.01 214.633 180.306 217.094 176.714C220.488 171.787 222.37 165.98 222.51 160.003Z" fill="#D1D3D4"/>
<path d="M225.65 162.735C224.753 159.039 224.109 155.022 225.65 151.534C227.352 147.585 231.607 144.797 232.113 140.527C232.435 137.738 230.963 134.904 231.572 132.138C232.182 129.372 234.39 127.49 236.253 125.458C240.544 120.751 243.096 114.722 243.487 108.369C246.178 111.916 248.903 115.542 250.387 119.743C251.87 123.943 251.882 128.924 249.386 132.562C248.667 133.421 248.079 134.38 247.638 135.409C246.798 138.129 249.133 140.676 250.341 143.259C251.055 144.734 251.353 146.376 251.203 148.008C251.053 149.639 250.461 151.199 249.49 152.521C247.04 155.573 242.314 156.755 241.118 160.474C240.813 161.857 240.671 163.27 240.692 164.686C240.436 167.139 239.451 169.46 237.863 171.35C236.274 173.24 234.156 174.612 231.779 175.29C228.881 175.991 228.939 174.843 228.422 172.421C227.663 169.15 226.409 165.994 225.65 162.735Z" fill="#D1D3D4"/>
<path d="M216.45 136.143C214.392 129.039 213.575 121.613 211.401 114.544C209.55 109.032 207.297 103.661 204.663 98.4763L213.494 102.195C216.323 103.342 219.394 104.788 220.728 107.554C223.028 112.363 218.877 118.515 221.315 123.266C222.177 124.93 223.73 126.124 224.765 127.65C227.364 131.3 226.972 136.304 225.535 140.539C224.925 142.364 222.258 151.786 219.866 149.169C218.9 148.125 218.819 144.211 218.416 142.788C217.807 140.527 217.048 138.358 216.45 136.143Z" fill="#D1D3D4"/>
<path d="M221.222 230.505C219.474 218.902 213.955 177.976 213.897 177.563L215.415 177.368C215.415 177.781 220.981 218.684 222.741 230.287L221.222 230.505Z" fill="#D1D3D4"/>
<path d="M223.35 241.477H221.82C221.924 227.705 227.685 175.004 231.02 171.388L232.17 172.41C229.882 174.797 223.442 222.598 223.35 241.477Z" fill="#D1D3D4"/>
<path d="M226.294 238.849L224.765 238.78C226.087 209.055 219.773 146.633 219.704 146.013L221.222 145.852C221.291 146.484 227.616 209.009 226.294 238.849Z" fill="#D1D3D4"/>
<path d="M206.1 202.525H238.967L236.667 235.727C236.478 238.496 235.242 241.09 233.209 242.984C231.177 244.878 228.5 245.931 225.719 245.93H219.359C216.578 245.931 213.899 244.878 211.865 242.984C209.831 241.091 208.592 238.497 208.4 235.727L206.1 202.525Z" fill="white"/>
<path d="M225.719 246.504H219.359C216.442 246.486 213.638 245.371 211.507 243.383C209.376 241.394 208.073 238.677 207.86 235.773L205.56 202.571C205.553 202.41 205.611 202.253 205.721 202.135C205.828 202.049 205.962 202.004 206.1 202.008H238.967C239.047 202.008 239.125 202.024 239.198 202.056C239.271 202.088 239.337 202.134 239.391 202.192C239.445 202.251 239.486 202.319 239.512 202.394C239.538 202.469 239.548 202.549 239.542 202.628L237.242 235.831C237.017 238.729 235.706 241.437 233.571 243.415C231.435 245.392 228.632 246.495 225.719 246.504ZM206.721 203.156L209.021 235.75C209.212 238.365 210.383 240.812 212.302 242.603C214.22 244.394 216.744 245.398 219.371 245.414H225.731C228.358 245.4 230.884 244.397 232.803 242.606C234.722 240.814 235.892 238.366 236.081 235.75L238.381 203.156H206.721Z" fill="#D1D3D4"/>
</svg>
