<svg width="32" height="23" viewBox="0 0 32 23" fill="none" xmlns="http://www.w3.org/2000/svg">
<rect width="32" height="22.8571" rx="2" fill="#4C3494"/>
<path fill-rule="evenodd" clip-rule="evenodd" d="M26.1426 8.66754C25.3909 8.00364 24.3571 7.69338 23.3628 7.78822C23.1144 7.81088 22.8679 7.85509 22.6287 7.92587C21.7525 8.17794 20.9839 8.77832 20.5251 9.56559C19.9082 10.6038 19.8344 11.9364 20.3105 13.0434C20.6642 13.8774 21.3401 14.5695 22.1688 14.9366C23.1099 15.3535 24.2237 15.366 25.1732 14.9685C25.6572 14.7648 26.0962 14.4537 26.4481 14.064C27.0907 13.3621 27.4326 12.4041 27.4108 11.4557C27.4052 10.4038 26.9436 9.35521 26.1426 8.66754ZM21.8375 9.98441C22.1909 9.4576 22.7736 9.09027 23.4045 9.01193C23.9047 8.94395 24.4293 9.04355 24.8627 9.30569C25.279 9.55273 25.6043 9.94021 25.7988 10.382C26.1829 11.2632 26.0967 12.3555 25.5168 13.1327C25.2418 13.5008 24.8557 13.7879 24.4173 13.9294C23.8667 14.1088 23.2467 14.0702 22.7252 13.8175C22.314 13.6197 21.9701 13.2918 21.7421 12.8974C21.2324 12.0116 21.2618 10.8327 21.8375 9.98441ZM9.98622 8.17626C9.30778 7.82459 8.51827 7.70709 7.76345 7.80725C7.03577 7.90097 6.33635 8.21655 5.7936 8.71174C5.23686 9.20973 4.84602 9.88537 4.67704 10.6119C4.47309 11.4745 4.56709 12.4086 4.95737 13.2062C5.31575 13.9513 5.93852 14.5659 6.68914 14.9131C7.43248 15.2589 8.28942 15.3417 9.08956 15.1736C9.85836 15.0135 10.5684 14.5916 11.0801 13.9963C11.568 13.434 11.8719 12.7197 11.9572 11.9814C12.0397 11.2929 11.9376 10.582 11.657 9.9472C11.3244 9.18931 10.7254 8.55003 9.98622 8.17626ZM6.96835 9.40948C7.2677 9.19322 7.62273 9.05725 7.98839 9.01025C8.42622 8.95374 8.88197 9.02312 9.27784 9.22092C9.74394 9.44837 10.118 9.84648 10.3382 10.3143C10.5883 10.8357 10.6563 11.437 10.562 12.0055C10.475 12.5242 10.238 13.0247 9.8592 13.394C9.53355 13.7227 9.10047 13.9417 8.64361 14.0125C8.08407 14.1007 7.49012 13.9795 7.02122 13.6583C6.53694 13.3352 6.19702 12.8196 6.05015 12.2598C5.90522 11.7069 5.92341 11.1094 6.11281 10.5694C6.27396 10.1095 6.56996 9.69317 6.96835 9.40948ZM12.2949 7.97427L12.2946 7.97427C12.2944 8.24134 12.2945 8.50854 12.2945 8.77579C12.2946 8.90942 12.2946 9.04307 12.2946 9.17672C12.4759 9.17713 12.657 9.17708 12.8382 9.17703C12.8986 9.17701 12.959 9.177 13.0195 9.177C13.4677 10.2081 13.9154 11.2395 14.363 12.2709C14.6882 13.0201 15.0134 13.7693 15.3388 14.5183C15.4901 14.8658 15.8082 15.1369 16.1783 15.2228C16.313 15.258 16.4519 15.2566 16.5903 15.2552C16.6334 15.2548 16.6763 15.2543 16.7191 15.255C17.1439 14.2545 17.57 13.2546 17.9962 12.2547C18.5042 11.0628 19.0121 9.87093 19.5177 8.67817C19.5306 8.53304 19.5286 8.3865 19.5266 8.23997C19.5254 8.1512 19.5242 8.06244 19.5263 7.97399H17.1768V7.97427C17.1766 8.37536 17.1763 8.77618 17.1768 9.177C17.2791 9.17712 17.3814 9.17708 17.4837 9.17705C17.62 9.177 17.7564 9.17696 17.8928 9.17727C17.7057 9.6355 17.5192 10.0939 17.3326 10.5523C16.9707 11.4413 16.6089 12.3302 16.2438 13.2177L14.5378 9.17727C14.6581 9.17686 14.7784 9.17693 14.8988 9.177C15.0193 9.17707 15.1397 9.17714 15.2601 9.17672V7.97427C14.2718 7.97371 13.2835 7.97399 12.2949 7.97427Z" fill="white"/>
</svg>
