<svg width="12" height="12" viewBox="0 0 12 12" fill="none" xmlns="http://www.w3.org/2000/svg">
<path d="M8.34519 1.8107C8.46629 1.68959 8.61007 1.59353 8.7683 1.52799C8.92653 1.46244 9.09612 1.42871 9.26739 1.42871C9.43865 1.42871 9.60824 1.46244 9.76647 1.52799C9.92471 1.59353 10.0685 1.68959 10.1896 1.8107C10.3107 1.9318 10.4068 2.07557 10.4723 2.23381C10.5378 2.39204 10.5716 2.56163 10.5716 2.73289C10.5716 2.90416 10.5378 3.07375 10.4723 3.23198C10.4068 3.39021 10.3107 3.53399 10.1896 3.65509L3.96475 9.87992L1.42871 10.5716L2.12036 8.03553L8.34519 1.8107Z" fill="black" stroke="black" stroke-linecap="round" stroke-linejoin="round"/>
</svg>
