<svg width="36" height="24" viewBox="0 0 36 24" fill="none" xmlns="http://www.w3.org/2000/svg">
<path d="M15.5613 16.1538C15.5613 14.3846 15.0194 12.8077 13.9355 11.4231C12.8516 10.0385 11.4194 9.11538 9.63871 8.65384C9.79355 7.57692 10.2194 6.42307 10.9161 5.1923C11.6903 3.96154 12.5419 2.96154 13.471 2.19231L10.9161 0C7.66452 2.07692 5.03226 4.5 3.01936 7.26923C1.00645 9.96154 0 12.9231 0 16.1538C0 18.3077 0.735484 20.1538 2.20645 21.6923C3.67742 23.2308 5.49677 24 7.66452 24C9.83226 24 11.6903 23.2308 13.2387 21.6923C14.7871 20.1538 15.5613 18.3077 15.5613 16.1538ZM36 16.1538C36 14.3846 35.4581 12.8077 34.3742 11.4231C33.2903 10.0385 31.8581 9.11538 30.0774 8.65384C30.3097 7.5 30.7742 6.34615 31.471 5.1923C32.2452 3.96154 33.0581 2.96154 33.9097 2.19231L31.3548 0C28.1032 2.07692 25.471 4.46154 23.4581 7.15384C21.4452 9.84615 20.4387 12.8462 20.4387 16.1538C20.4387 18.3077 21.1742 20.1538 22.6452 21.6923C24.1935 23.2308 26.0516 24 28.2194 24C30.3871 24 32.2065 23.2308 33.6774 21.6923C35.2258 20.1538 36 18.3077 36 16.1538Z" fill="#CFCFCF"/>
</svg>
