<svg width="32" height="32" viewBox="0 0 32 32" fill="none" xmlns="http://www.w3.org/2000/svg">
<path d="M8 19.9999C10.2091 19.9999 12 18.209 12 15.9999C12 13.7907 10.2091 11.9999 8 11.9999C5.79086 11.9999 4 13.7907 4 15.9999C4 18.209 5.79086 19.9999 8 19.9999Z" stroke="black" stroke-width="2" stroke-linecap="round" stroke-linejoin="round"/>
<path d="M22 29C24.2091 29 26 27.2091 26 25C26 22.7909 24.2091 21 22 21C19.7909 21 18 22.7909 18 25C18 27.2091 19.7909 29 22 29Z" stroke="black" stroke-width="2" stroke-linecap="round" stroke-linejoin="round"/>
<path d="M22 11C24.2091 11 26 9.20911 26 6.99994C26 4.79077 24.2091 2.99988 22 2.99988C19.7909 2.99988 18 4.79077 18 6.99994C18 9.20911 19.7909 11 22 11Z" stroke="black" stroke-width="2" stroke-linecap="round" stroke-linejoin="round"/>
<path d="M18.6357 9.16284L11.3643 13.8372" stroke="black" stroke-width="2" stroke-linecap="round" stroke-linejoin="round"/>
<path d="M11.3643 18.1626L18.6356 22.8371" stroke="black" stroke-width="2" stroke-linecap="round" stroke-linejoin="round"/>
</svg>
