<svg width="55" height="50" viewBox="0 0 55 50" fill="none" xmlns="http://www.w3.org/2000/svg">
<path d="M27.9741 43.2793C38.1914 43.2793 46.4741 34.9966 46.4741 24.7793C46.4741 14.562 38.1914 6.2793 27.9741 6.2793C17.7569 6.2793 9.47412 14.562 9.47412 24.7793C9.47412 34.9966 17.7569 43.2793 27.9741 43.2793Z" stroke="#FEC600" stroke-width="4.13586" stroke-linecap="round" stroke-linejoin="round"/>
<path d="M20.2645 24.1908C22.1204 24.1908 23.6249 22.7933 23.6249 21.0695C23.6249 19.3457 22.1204 17.9482 20.2645 17.9482C18.4086 17.9482 16.9042 19.3457 16.9042 21.0695C16.9042 22.7933 18.4086 24.1908 20.2645 24.1908Z" fill="#FEC600"/>
<path d="M35.3866 24.1908C37.2425 24.1908 38.747 22.7933 38.747 21.0695C38.747 19.3457 37.2425 17.9482 35.3866 17.9482C33.5307 17.9482 32.0262 19.3457 32.0262 21.0695C32.0262 22.7933 33.5307 24.1908 35.3866 24.1908Z" fill="#FEC600"/>
<path d="M35.6593 33.1245C34.7142 32.0407 33.5203 31.1667 32.165 30.5663C30.8096 29.9659 29.327 29.6543 27.8254 29.6543C26.3238 29.6543 24.8411 29.9659 23.4858 30.5663C22.1304 31.1667 20.9366 32.0407 19.9915 33.1245" stroke="#FEC600" stroke-width="4.13586" stroke-linecap="round" stroke-linejoin="round"/>
</svg>
