<svg width="53" height="48" viewBox="0 0 53 48" fill="none" xmlns="http://www.w3.org/2000/svg">
<path d="M27.0968 40.9832C36.9965 40.9832 45.0217 33.1596 45.0217 23.5087C45.0217 13.8578 36.9965 6.03418 27.0968 6.03418C17.1971 6.03418 9.17188 13.8578 9.17188 23.5087C9.17188 33.1596 17.1971 40.9832 27.0968 40.9832Z" stroke="#FEC600" stroke-width="4.13586" stroke-linecap="round" stroke-linejoin="round"/>
<path d="M19.627 22.9531C21.4252 22.9531 22.883 21.6332 22.883 20.0049C22.883 18.3766 21.4252 17.0566 19.627 17.0566C17.8288 17.0566 16.3711 18.3766 16.3711 20.0049C16.3711 21.6332 17.8288 22.9531 19.627 22.9531Z" fill="#FEC600"/>
<path d="M34.2784 22.9531C36.0766 22.9531 37.5343 21.6332 37.5343 20.0049C37.5343 18.3766 36.0766 17.0566 34.2784 17.0566C32.4802 17.0566 31.0225 18.3766 31.0225 20.0049C31.0225 21.6332 32.4802 22.9531 34.2784 22.9531Z" fill="#FEC600"/>
<path d="M34.5431 28.1147C33.6274 29.1385 32.4706 29.964 31.1574 30.5312C29.8442 31.0983 28.4076 31.3926 26.9527 31.3926C25.4978 31.3926 24.0612 31.0983 22.748 30.5312C21.4348 29.964 20.278 29.1385 19.3623 28.1147" stroke="#FEC600" stroke-width="4.13586" stroke-linecap="round" stroke-linejoin="round"/>
</svg>
