<svg width="27" height="26" viewBox="0 0 27 26" fill="none" xmlns="http://www.w3.org/2000/svg">
<path d="M8.96994 15.6843C11.8973 15.6843 14.2704 13.4021 14.2704 10.5869C14.2704 7.77168 11.8973 5.4895 8.96994 5.4895C6.04255 5.4895 3.66943 7.77168 3.66943 10.5869C3.66943 13.4021 6.04255 15.6843 8.96994 15.6843Z" stroke="black" stroke-width="2" stroke-miterlimit="10"/>
<path d="M15.8398 5.67575C16.3084 5.55354 16.7916 5.49092 17.2771 5.4895C18.6829 5.4895 20.0311 6.02655 21.0251 6.98249C22.0192 7.93843 22.5776 9.23497 22.5776 10.5869C22.5776 11.9388 22.0192 13.2353 21.0251 14.1913C20.0311 15.1472 18.6829 15.6843 17.2771 15.6843" stroke="black" stroke-width="2" stroke-linecap="round" stroke-linejoin="round"/>
<path d="M1.63086 19.3504C2.4585 18.2178 3.55743 17.2933 4.83482 16.6552C6.11221 16.017 7.53054 15.6838 8.97002 15.6838C10.4095 15.6838 11.8278 16.017 13.1052 16.6552C14.3826 17.2933 15.4815 18.2178 16.3092 19.3504" stroke="black" stroke-width="2" stroke-linecap="round" stroke-linejoin="round"/>
<path d="M17.2778 15.6843C18.7174 15.6835 20.136 16.0162 21.4136 16.6544C22.6911 17.2926 23.7899 18.2174 24.617 19.3505" stroke="black" stroke-width="2" stroke-linecap="round" stroke-linejoin="round"/>
</svg>
