<svg width="30" height="28" viewBox="0 0 30 28" fill="none" xmlns="http://www.w3.org/2000/svg">
<path d="M15 17.5C17.4162 17.5 19.375 15.5412 19.375 13.125C19.375 10.7088 17.4162 8.75 15 8.75C12.5838 8.75 10.625 10.7088 10.625 13.125C10.625 15.5412 12.5838 17.5 15 17.5Z" stroke="#A1A1A1" stroke-width="2" stroke-linecap="round" stroke-linejoin="round"/>
<path d="M7.97754 21.8096C8.63588 20.5128 9.64043 19.4237 10.8799 18.663C12.1193 17.9022 13.5451 17.4995 14.9994 17.4995C16.4537 17.4995 17.8796 17.9022 19.119 18.663C20.3584 19.4237 21.3629 20.5128 22.0213 21.8096" stroke="#A1A1A1" stroke-width="2" stroke-linecap="round" stroke-linejoin="round"/>
<path d="M22.875 14L25.5 16.625L28.125 14" stroke="#A1A1A1" stroke-width="2" stroke-linecap="round" stroke-linejoin="round"/>
<path d="M1.875 14L4.5 11.375L7.125 14" stroke="#A1A1A1" stroke-width="2" stroke-linecap="round" stroke-linejoin="round"/>
<path d="M25.4994 16.6247V13.9997C25.5019 11.7312 24.7696 9.52279 23.4121 7.70519C22.0546 5.88759 20.1449 4.55853 17.969 3.91694C15.793 3.27536 13.4677 3.35576 11.3413 4.14612C9.21484 4.93648 7.40155 6.39428 6.17285 8.30131" stroke="#A1A1A1" stroke-width="2" stroke-linecap="round" stroke-linejoin="round"/>
<path d="M4.50001 11.375V14C4.49753 16.2686 5.22985 18.477 6.58734 20.2946C7.94484 22.1122 9.8545 23.4412 12.0305 24.0828C14.2064 24.7244 16.5317 24.644 18.6581 23.8536C20.7846 23.0633 22.5979 21.6055 23.8266 19.6984" stroke="#A1A1A1" stroke-width="2" stroke-linecap="round" stroke-linejoin="round"/>
</svg>
