<svg width="28" height="22" viewBox="0 0 28 22" fill="none" xmlns="http://www.w3.org/2000/svg">
<path d="M18 10.9502L12 6.9502V14.9502L18 10.9502Z" stroke="white" stroke-width="2" stroke-linecap="round" stroke-linejoin="round"/>
<path d="M1 10.9501C1 14.6751 1.3875 16.8501 1.675 17.9751C1.75427 18.2803 1.90418 18.5627 2.11262 18.7993C2.32106 19.036 2.58221 19.2204 2.875 19.3376C7.0625 20.9376 14 20.9001 14 20.9001C14 20.9001 20.9375 20.9376 25.125 19.3376C25.4178 19.2204 25.6789 19.036 25.8874 18.7993C26.0958 18.5627 26.2457 18.2803 26.325 17.9751C26.6125 16.8501 27 14.6751 27 10.9501C27 7.22508 26.6125 5.05008 26.325 3.92508C26.2457 3.61983 26.0958 3.33748 25.8874 3.10081C25.6789 2.86414 25.4178 2.67977 25.125 2.56258C20.9375 0.962575 14 1.00008 14 1.00008C14 1.00008 7.0625 0.962575 2.875 2.56258C2.58221 2.67977 2.32106 2.86414 2.11262 3.10081C1.90418 3.33748 1.75427 3.61983 1.675 3.92508C1.3875 5.05008 1 7.22508 1 10.9501Z" stroke="white" stroke-width="2" stroke-linecap="round" stroke-linejoin="round"/>
</svg>
