<svg width="32" height="23" viewBox="0 0 32 23" fill="none" xmlns="http://www.w3.org/2000/svg">
<rect width="32" height="22.8571" rx="2" fill="#0742A6"/>
<path fill-rule="evenodd" clip-rule="evenodd" d="M14.6377 14.5112H13.0195L14.0316 8.4165H15.6497L14.6377 14.5112Z" fill="white"/>
<path fill-rule="evenodd" clip-rule="evenodd" d="M20.5044 8.56563C20.1852 8.44231 19.679 8.30615 19.053 8.30615C17.4551 8.30615 16.3298 9.13602 16.3229 10.3225C16.3096 11.1979 17.1286 11.6841 17.7411 11.9759C18.3671 12.2742 18.5799 12.4689 18.5799 12.7347C18.5735 13.143 18.074 13.3312 17.6081 13.3312C16.9621 13.3312 16.616 13.2342 16.0899 13.007L15.8768 12.9097L15.6504 14.2778C16.0299 14.4462 16.7291 14.5956 17.4551 14.6021C19.1529 14.6021 20.2583 13.7851 20.2714 12.5207C20.2779 11.8269 19.8454 11.2953 18.9131 10.8609C18.3472 10.582 18.0006 10.394 18.0006 10.1087C18.0072 9.8493 18.2937 9.58362 18.9326 9.58362C19.4587 9.57061 19.8452 9.69375 20.138 9.81698L20.2843 9.8817L20.5044 8.56563Z" fill="white"/>
<path fill-rule="evenodd" clip-rule="evenodd" d="M23.4016 8.4165H24.6533L25.9587 14.5111H24.4605C24.4605 14.5111 24.3138 13.8108 24.2674 13.5969H22.1898L21.8502 14.5111H20.1523L22.5559 8.92218C22.7224 8.52664 23.0157 8.4165 23.4016 8.4165ZM23.3019 10.6468C23.3019 10.6468 22.7891 12.0019 22.6559 12.3521H24.0009C23.9343 12.0473 23.6279 10.5885 23.6279 10.5885L23.5148 10.0633C23.4672 10.1985 23.3983 10.3845 23.3519 10.5099C23.3204 10.5949 23.2992 10.6521 23.3019 10.6468Z" fill="white"/>
<path fill-rule="evenodd" clip-rule="evenodd" d="M11.6689 8.4165L10.0842 12.5725L9.91102 11.7296C9.61805 10.757 8.69921 9.70035 7.67383 9.17494L9.12535 14.5047H10.8365L13.3799 8.4165H11.6689V8.4165Z" fill="white"/>
<path fill-rule="evenodd" clip-rule="evenodd" d="M8.6125 8.4165H6.00906L5.98242 8.53965C8.01327 9.04541 9.35826 10.2645 9.91085 11.7299L9.3449 8.92882C9.25172 8.53956 8.96538 8.42934 8.6125 8.4165Z" fill="white"/>
</svg>
