<svg width="28" height="28" viewBox="0 0 28 28" fill="none" xmlns="http://www.w3.org/2000/svg">
<g clip-path="url(#clip0_3905_7407)">
<path d="M20.2958 16.3963L18.3056 14.8736C17.9763 14.6227 17.5672 14.4995 17.1541 14.5268C16.7409 14.5541 16.3516 14.73 16.0581 15.0221L15.2804 15.7999C14.6864 15.6525 14.134 15.3714 13.6651 14.978L13.5973 14.9207C13.4083 14.7619 13.2335 14.5869 13.0749 14.3978L13.0197 14.3319C12.626 13.8628 12.3447 13.3099 12.1974 12.7155L12.9746 11.9381C13.2664 11.6448 13.4424 11.2559 13.4699 10.843C13.4975 10.4302 13.3748 10.0213 13.1245 9.69179L11.602 7.70337C11.3589 7.38447 11.0156 7.15664 10.6273 7.05655C10.239 6.95646 9.82837 6.98991 9.4614 7.15154L9.23543 7.25289C8.58409 7.5399 8.02805 8.00666 7.63249 8.59847C7.23693 9.19028 7.01825 9.8826 7.00208 10.5943C6.9528 13.0008 7.77903 15.3434 9.32714 17.1863L9.42847 17.3044C9.81339 17.7624 10.2372 18.1863 10.6951 18.5712L10.8132 18.6726C12.6031 20.1747 14.8646 20.9986 17.2011 21C17.2687 21 17.3377 21 17.4083 21C18.1202 20.9833 18.8125 20.7639 19.4041 20.3675C19.9956 19.9712 20.4619 19.4143 20.7482 18.7623L20.8496 18.5363C21.0105 18.1691 21.0434 17.7585 20.943 17.3705C20.8425 16.9824 20.6146 16.6393 20.2958 16.3963ZM19.6407 18.0083L19.5393 18.2343C19.3538 18.6557 19.0519 19.0154 18.6692 19.2714C18.2865 19.5274 17.8387 19.6689 17.3784 19.6795C17.3182 19.6795 17.2579 19.6795 17.1981 19.6795C15.1722 19.6785 13.2112 18.9645 11.6588 17.6627L11.5407 17.5613C11.1408 17.2252 10.7708 16.8551 10.4347 16.4551L10.3334 16.3366C8.98977 14.737 8.27313 12.7037 8.31686 10.6151C8.32737 10.1546 8.46888 9.70674 8.72481 9.32387C8.98073 8.94101 9.34046 8.63903 9.76185 8.45333L9.98782 8.35199C10.0853 8.30973 10.1942 8.30159 10.2969 8.3289C10.3996 8.35621 10.4901 8.41737 10.5538 8.50249L12.0763 10.4909C12.1339 10.5664 12.1622 10.6602 12.1559 10.7549C12.1497 10.8497 12.1093 10.939 12.0423 11.0062L11.0148 12.0344C10.941 12.1082 10.8857 12.1986 10.8537 12.298C10.8216 12.3973 10.8136 12.5029 10.8304 12.606C10.9851 13.5548 11.3932 14.4441 12.0114 15.1802L12.0666 15.2456C12.274 15.4924 12.5023 15.7208 12.7491 15.9281L12.817 15.9854C13.5527 16.6029 14.4414 17.0104 15.3893 17.1651C15.4924 17.1819 15.5981 17.174 15.6976 17.1419C15.797 17.1098 15.8874 17.0545 15.9613 16.9806L16.9893 15.9524C17.0567 15.8855 17.1459 15.8452 17.2406 15.839C17.3353 15.8328 17.4291 15.861 17.5046 15.9185L19.4948 17.4448C19.5785 17.509 19.6384 17.5994 19.6649 17.7016C19.6913 17.8038 19.6828 17.912 19.6407 18.0088V18.0083Z" fill="#25D366" stroke="#25D366" stroke-width="0.5"/>
<path d="M14.0002 1.00004C10.817 0.999898 7.7443 2.16737 5.36451 4.28121C2.98473 6.39504 1.46321 9.30834 1.08831 12.469C0.76771 15.2139 1.32492 17.9898 2.68001 20.3984L1.58299 24.175C1.49278 24.4858 1.48767 24.8151 1.56819 25.1285C1.64871 25.4419 1.81192 25.728 2.04076 25.9568C2.26961 26.1856 2.5557 26.3488 2.86915 26.4293C3.18261 26.5098 3.51194 26.5047 3.82275 26.4145L7.60088 25.3186C9.55935 26.421 11.7689 27.0001 14.0164 27C16.5863 26.9964 19.0974 26.2314 21.2327 24.8017C23.368 23.372 25.0316 21.3417 26.0135 18.9671C26.9954 16.5926 27.2515 13.9804 26.7495 11.4604C26.2474 8.94043 25.0098 6.62572 23.1928 4.80863C21.9885 3.59764 20.5559 2.63749 18.978 1.98375C17.4001 1.33 15.7082 0.995653 14.0002 1.00004ZM22.2599 22.2591C20.4111 24.1214 17.9836 25.2992 15.3765 25.5989C12.8211 25.8981 10.2381 25.3501 8.02445 24.0389C7.94667 23.9926 7.86019 23.9627 7.77037 23.9512C7.68055 23.9396 7.58932 23.9467 7.50235 23.9719L3.45453 25.1475C3.37081 25.1718 3.28211 25.1731 3.19769 25.1514C3.11327 25.1297 3.03622 25.0857 2.97458 25.0241C2.91295 24.9625 2.86898 24.8854 2.84727 24.801C2.82557 24.7166 2.82691 24.6279 2.85117 24.5442L4.02691 20.4965C4.05214 20.4095 4.05921 20.3183 4.04768 20.2285C4.03614 20.1387 4.00626 20.0522 3.95987 19.9744C2.64857 17.7611 2.10043 15.1784 2.39966 12.6233C2.73674 9.78392 4.10384 7.16677 6.24191 5.26785C8.37997 3.36893 11.1404 2.32019 14.0002 2.32035C16.3106 2.32034 18.569 3.00536 20.49 4.28877C22.411 5.57218 23.9083 7.39634 24.7924 9.53057C25.6765 11.6648 25.9078 14.0132 25.457 16.2789C25.0062 18.5445 23.8936 20.6257 22.2599 22.2591Z" fill="#25D366" stroke="#25D366" stroke-width="0.5"/>
</g>
<defs>
<clipPath id="clip0_3905_7407">
<rect width="28" height="28" fill="white"/>
</clipPath>
</defs>
</svg>
